<svg xmlns="http://www.w3.org/2000/svg" width="1030" height="667.152" viewBox="0 0 1030 667.152">
  <g id="Grupo_1013326" data-name="Grupo 1013326" transform="translate(-285 -794.669)">
    <g id="Grupo_81519" data-name="Grupo 81519" transform="translate(-16)">
      <g id="Grupo_81518" data-name="Grupo 81518" transform="translate(301 794.669)">
        <g id="Group_20" data-name="Group 20" transform="translate(0 0)">
          <path id="Trazado_115825" data-name="Trazado 115825" d="M754.74,562.222H542.526V762.264H754.74Z" transform="translate(-124.72 -111.609)" fill="#b3ddff"/>
          <g id="Grupo_81515" data-name="Grupo 81515" transform="translate(444.275 415.093)">
            <path id="Trazado_115826" data-name="Trazado 115826" d="M723,670.324,750.062,737.8c-3.213,20.394-33.011,29.233-53.952,25.666l-75.618-45.507C596.424,704.005,653.159,595.974,723,670.324Z" transform="translate(-583.356 -543.023)" fill="#ffcba0"/>
            <path id="Trazado_115828" data-name="Trazado 115828" d="M668.812,754.162s19.717-1.295,39.427,4.651c11.5,3.474,15.676-5.042,11.879-14.658-5.943-15.042-23.511-28.362-40.535-22.156C664.614,727.458,659.759,749.787,668.812,754.162Z" transform="translate(-593.16 -558.111)" fill="#ffbf8a"/>
            <path id="Trazado_115829" data-name="Trazado 115829" d="M699.536,673.04s-113.146-85.895-123.2-69.258C564.815,622.839,684.354,696.8,684.354,696.8l15.179-23.764Z" transform="translate(-575.551 -534.528)" fill="#ffcba0"/>
            <path id="Trazado_115830" data-name="Trazado 115830" d="M700.7,714.326l-81.644-.691a9.494,9.494,0,0,1-9.183-9.73l.734-176.648a9.221,9.221,0,0,1,9.083-9.3l80.059-.05a9.287,9.287,0,0,1,9.176,9.333l1.021,177.469a9.347,9.347,0,0,1-9.246,9.62Z" transform="translate(-582.365 -517.905)" fill="#00cca7"/>
            <path id="Trazado_115831" data-name="Trazado 115831" d="M702.174,713.337a8.176,8.176,0,0,1-1.031.057l-81.617-.777A8.28,8.28,0,0,1,611.6,704.1l.707-176.455a8.052,8.052,0,0,1,7.845-8.145l80.055-.13c.123,0,.25,0,.374.007a7.787,7.787,0,0,1,5.3,2.432,8.188,8.188,0,0,1,2.242,5.626l1,177.649A8.114,8.114,0,0,1,702.174,713.337Z" transform="translate(-582.707 -518.196)" fill="#33201b"/>
            <path id="Trazado_115832" data-name="Trazado 115832" d="M705.916,530.978l.948,177.035-91.948-.741.664-176.511Z" transform="translate(-583.366 -520.457)" fill="#fff"/>
            <path id="Trazado_115833" data-name="Trazado 115833" d="M699.094,616.835H627.147a1.969,1.969,0,0,0-1.969,1.972V654.25a1.971,1.971,0,0,0,1.969,1.972h71.947a1.974,1.974,0,0,0,1.972-1.972V618.807A1.972,1.972,0,0,0,699.094,616.835Z" transform="translate(-585.403 -537.544)" fill="#b3ddff"/>
            <path id="Trazado_115834" data-name="Trazado 115834" d="M695.048,630.832H632.808a.09.09,0,0,1-.09-.09.093.093,0,0,1,.09-.093h62.241a.1.1,0,0,1,.094.093A.093.093,0,0,1,695.048,630.832Z" transform="translate(-586.9 -540.286)" fill="#fff"/>
            <path id="Trazado_115835" data-name="Trazado 115835" d="M695.048,647.31H632.808a.093.093,0,0,1-.09-.093.09.09,0,0,1,.09-.09h62.241a.093.093,0,0,1,.094.09A.1.1,0,0,1,695.048,647.31Z" transform="translate(-586.9 -543.557)" fill="#fff"/>
            <path id="Trazado_115836" data-name="Trazado 115836" d="M695.048,639.287H632.808a.093.093,0,0,1,0-.187h62.241a.093.093,0,1,1,0,.187Z" transform="translate(-586.9 -541.964)" fill="#fff"/>
            <path id="Trazado_115837" data-name="Trazado 115837" d="M695.006,649.829H632.586l-.08-23.547a.185.185,0,0,1,.183-.184.183.183,0,0,1,.184.18l.077,23.184h62.057a.183.183,0,0,1,.183.183.185.185,0,0,1-.183.184Z" transform="translate(-586.857 -539.383)" fill="#fff"/>
            <path id="Trazado_115838" data-name="Trazado 115838" d="M664.905,633.792l-14.158,13.621-7.3-6.46L632.662,651.04a.188.188,0,0,0-.01.26.179.179,0,0,0,.133.057.185.185,0,0,0,.127-.05l10.544-9.857,7.3,6.463L664.908,634.3V633.8Z" transform="translate(-586.877 -540.91)" fill="#fff"/>
            <path id="Trazado_115839" data-name="Trazado 115839" d="M646.877,642.82a.983.983,0,1,1-.981-.984A.983.983,0,0,1,646.877,642.82Z" transform="translate(-589.32 -542.507)" fill="#fff"/>
            <path id="Trazado_115840" data-name="Trazado 115840" d="M656.132,650.734a.983.983,0,1,1-.984-.984A.984.984,0,0,1,656.132,650.734Z" transform="translate(-591.158 -544.078)" fill="#fff"/>
            <path id="Trazado_115841" data-name="Trazado 115841" d="M673.792,633.677a.983.983,0,1,1-.984-.984A.984.984,0,0,1,673.792,633.677Z" transform="translate(-594.663 -540.692)" fill="#fff"/>
            <path id="Trazado_115842" data-name="Trazado 115842" d="M659.951,555.819H627.4a1.972,1.972,0,0,0-1.972,1.972v25.316a1.972,1.972,0,0,0,1.972,1.972h32.547a1.969,1.969,0,0,0,1.972-1.972V557.791A1.969,1.969,0,0,0,659.951,555.819Z" transform="translate(-585.453 -525.431)" fill="#b3ddff"/>
            <path id="Trazado_115843" data-name="Trazado 115843" d="M661.112,579.187H629.854V557.618a.165.165,0,0,1,.167-.167.167.167,0,0,1,.167.167v21.235h30.925a.17.17,0,0,1,.167.167.167.167,0,0,1-.167.167Z" transform="translate(-586.331 -525.755)" fill="#fdfdff"/>
            <path id="Trazado_115844" data-name="Trazado 115844" d="M637.184,576.119h-3.45v6.6h3.45Z" transform="translate(-587.101 -529.461)" fill="#fdfdff"/>
            <path id="Trazado_115845" data-name="Trazado 115845" d="M643.187,574.241h-3.45v8.108h3.45Z" transform="translate(-588.293 -529.088)" fill="#fdfdff"/>
            <path id="Trazado_115846" data-name="Trazado 115846" d="M649.191,570.436h-3.45v11.158h3.45Z" transform="translate(-589.485 -528.333)" fill="#fdfdff"/>
            <path id="Trazado_115847" data-name="Trazado 115847" d="M655.19,567.776h-3.45v13.29h3.45Z" transform="translate(-590.676 -527.805)" fill="#fdfdff"/>
            <path id="Trazado_115848" data-name="Trazado 115848" d="M661.193,562.039h-3.45v17.888h3.45Z" transform="translate(-591.868 -526.666)" fill="#fdfdff"/>
            <path id="Trazado_115849" data-name="Trazado 115849" d="M708.852,555.819H676.305a1.969,1.969,0,0,0-1.972,1.972v25.316a1.969,1.969,0,0,0,1.972,1.972h32.547a1.972,1.972,0,0,0,1.972-1.972V557.791A1.972,1.972,0,0,0,708.852,555.819Z" transform="translate(-595.161 -525.431)" fill="#b3ddff"/>
            <path id="Trazado_115850" data-name="Trazado 115850" d="M710.013,579.473H678.755v-20.4a.17.17,0,0,1,.167-.167.167.167,0,0,1,.167.167v20.064h30.925a.167.167,0,0,1,.167.167.165.165,0,0,1-.167.167Z" transform="translate(-596.039 -526.044)" fill="#fdfdff"/>
            <path id="Trazado_115851" data-name="Trazado 115851" d="M678.963,579.461c5.235-.454,5.963-21.526,13.734-12.079,7.381,8.976,7.768-7.691,15.786-7.691v19.587Z" transform="translate(-596.08 -526.2)" fill="#fdfdff"/>
            <path id="Trazado_115852" data-name="Trazado 115852" d="M701.152,550.774H625.478v-6.45h75.674Zm-75.494-.18h75.311V544.5H625.658Z" transform="translate(-585.462 -523.149)" fill="#00cca7"/>
            <path id="Trazado_115853" data-name="Trazado 115853" d="M661.005,547H648.442v2.169h12.563Z" transform="translate(-590.021 -523.68)" fill="#00cca7"/>
            <path id="Trazado_115854" data-name="Trazado 115854" d="M672.158,547h-6.5v2.169h6.5Z" transform="translate(-593.439 -523.68)" fill="#00cca7"/>
            <path id="Trazado_115855" data-name="Trazado 115855" d="M642.556,547H627.21v2.169h15.346Z" transform="translate(-585.806 -523.68)" fill="#00cca7"/>
            <path id="Trazado_115856" data-name="Trazado 115856" d="M661.758,597.46H625.744V599.5h36.014Z" transform="translate(-585.515 -533.697)" fill="#cffafa"/>
            <path id="Trazado_115857" data-name="Trazado 115857" d="M657.243,606.847h-31.5v2.042h31.5Z" transform="translate(-585.515 -535.561)" fill="#cffafa"/>
            <path id="Trazado_115858" data-name="Trazado 115858" d="M680.384,602.093H625.744v2.042h54.639Z" transform="translate(-585.515 -534.617)" fill="#cffafa"/>
            <path id="Trazado_115859" data-name="Trazado 115859" d="M666.492,682.8h-.03a21.122,21.122,0,1,0,9.787,39.834l-9.757-18.713V682.8Z" transform="translate(-589.409 -550.638)" fill="#00cca7"/>
            <path id="Trazado_115860" data-name="Trazado 115860" d="M681.484,727.862A21.119,21.119,0,0,0,692.8,709.146H671.727Z" transform="translate(-594.644 -555.869)" fill="#203a8a"/>
            <path id="Trazado_115861" data-name="Trazado 115861" d="M671.727,682.8v21.118H692.8A21.11,21.11,0,0,0,671.727,682.8Z" transform="translate(-594.644 -550.638)" fill="#cffafa"/>
            <path id="Trazado_115862" data-name="Trazado 115862" d="M752.292,733.3c-49.02-3.373-35.79-74.987-35.79-74.987s-17.538-22.68-14.935-36.754,10.11-11.358,10.11-11.358.417.567,1.175,1.625c1.422,1.992,4.057,5.723,7.381,10.648,9.463,14.038,24.492,37.759,32.93,58.51,7.738,19.907,15.139,53.415-.871,52.32Z" transform="translate(-600.515 -536.185)" fill="#ffcba0"/>
            <path id="Trazado_115863" data-name="Trazado 115863" d="M722.431,622.657a30.366,30.366,0,0,1-5.783,3.107,11.858,11.858,0,0,1-1.6-13.754C716.472,614,719.108,617.732,722.431,622.657Z" transform="translate(-602.944 -536.586)" fill="#ffd3ad"/>
            <path id="Trazado_115864" data-name="Trazado 115864" d="M607.2,712.783c-2.693-.777-5.94-3.21-9.61-7.9q-.776-.991-1.415-1.949c-12.233-18.185,10.367-27.155,10.367-27.155a68.346,68.346,0,0,0,5.342,13.394c6.774,11.976,3.814,26.07-4.685,23.611Z" transform="translate(-578.924 -549.246)" fill="#ffcba0"/>
            <path id="Trazado_115865" data-name="Trazado 115865" d="M606.958,715.882c-1.862-.537-4.1-2.222-6.64-5.459q-.536-.686-.981-1.348a12.364,12.364,0,0,1,3.33-4.775C607.652,704.707,608.163,713.333,606.958,715.882Z" transform="translate(-580.273 -554.907)" fill="#ffd3ad"/>
            <path id="Trazado_115866" data-name="Trazado 115866" d="M609.045,752.971c-2.4.307-5.652-1.435-9.5-6.35a24.6,24.6,0,0,1-1.522-2.172c-8.585-13.751,8.5-20.528,8.5-20.528a52.991,52.991,0,0,0,4.168,10.441c4.7,8.332,3.39,17.969-1.652,18.609Z" transform="translate(-579.533 -558.802)" fill="#ffcba0"/>
            <path id="Trazado_115867" data-name="Trazado 115867" d="M609.078,754.794c-1.782.227-4.191-1.068-7.044-4.715a17.7,17.7,0,0,1-1.131-1.608,15,15,0,0,1,3.053-3.921C608.277,744.9,609.465,751.017,609.078,754.794Z" transform="translate(-580.584 -562.897)" fill="#ffd3ad"/>
            <path id="Trazado_115868" data-name="Trazado 115868" d="M608.229,685.632c-2.863-.424-6.45-2.853-10.574-8.115-.254-.324-.5-.651-.727-.971-13.731-18.839,9.68-28.129,9.68-28.129a68.189,68.189,0,0,0,5.342,13.387c6.51,11.512,4.034,24.982-3.717,23.828Z" transform="translate(-578.938 -543.813)" fill="#ffcba0"/>
            <path id="Trazado_115869" data-name="Trazado 115869" d="M607.992,688.743c-1.905-.28-4.288-1.9-7.03-5.4-.17-.214-.33-.434-.484-.644a11.454,11.454,0,0,1,3.293-4.885c4.665.384,5.255,8.242,4.221,10.928Z" transform="translate(-580.499 -549.65)" fill="#ffd3ad"/>
          </g>
          <path id="Trazado_115870" data-name="Trazado 115870" d="M631.737,505.564a3.27,3.27,0,1,0-3.27-3.27A3.268,3.268,0,0,0,631.737,505.564Z" transform="translate(-141.781 -99.064)" fill="#aae0ff"/>
          <path id="Trazado_115871" data-name="Trazado 115871" d="M617.769,488.517l-1.388-1.582a18.552,18.552,0,0,1,27.308.644l-1.465,1.512a16.641,16.641,0,0,0-24.455-.577Z" transform="translate(-139.382 -95.537)" fill="#aae0ff"/>
          <path id="Trazado_115872" data-name="Trazado 115872" d="M621.362,492.924l-1.388-1.582a14.584,14.584,0,0,1,21.389.5l-1.461,1.512a12.684,12.684,0,0,0-18.542-.43Z" transform="translate(-140.095 -96.66)" fill="#aae0ff"/>
          <path id="Trazado_115873" data-name="Trazado 115873" d="M624.843,497.188l-1.388-1.582a10.751,10.751,0,0,1,15.66.357l-1.465,1.512a8.837,8.837,0,0,0-12.807-.29Z" transform="translate(-140.786 -97.748)" fill="#aae0ff"/>
          <path id="Trazado_115874" data-name="Trazado 115874" d="M877.537,359.272H791.7V443.9h85.838Z" transform="translate(-174.185 -71.321)" fill="#e6f9ff"/>
          <g id="Grupo_81516" data-name="Grupo 81516" transform="translate(625.025 311.564)">
            <path id="Trazado_115875" data-name="Trazado 115875" d="M874.533,394.2h-2.309v10.708h2.309Z" transform="translate(-815.195 -389.819)" fill="#203a8a"/>
            <path id="Trazado_115876" data-name="Trazado 115876" d="M874.547,403.48h-2.709a2.128,2.128,0,0,0-.784,1.661l0,1.959,4.278-.008,0-1.959A2.132,2.132,0,0,0,874.547,403.48Z" transform="translate(-814.963 -391.661)" fill="#00cca7"/>
            <path id="Trazado_115877" data-name="Trazado 115877" d="M870.672,408.794a1.084,1.084,0,0,0-1.014,1.468l2.176,5.807a.34.34,0,0,0,.657-.16l-.737-6.158A1.09,1.09,0,0,0,870.672,408.794Z" transform="translate(-814.671 -392.716)" fill="#203a8a"/>
            <path id="Trazado_115878" data-name="Trazado 115878" d="M876.173,408.794a1.087,1.087,0,0,1,1.018,1.468l-2.179,5.807a.34.34,0,0,1-.384.217.345.345,0,0,1-.273-.377l.741-6.158A1.084,1.084,0,0,1,876.173,408.794Z" transform="translate(-815.617 -392.716)" fill="#203a8a"/>
            <path id="Trazado_115879" data-name="Trazado 115879" d="M875.647,407.986h-5.055v.614h5.055Z" transform="translate(-814.871 -392.556)" fill="#203a8a"/>
            <path id="Trazado_115880" data-name="Trazado 115880" d="M872.066,408.71a.5.5,0,1,1-.5-.5A.5.5,0,0,1,872.066,408.71Z" transform="translate(-814.967 -392.601)" fill="#203a8a"/>
            <path id="Trazado_115881" data-name="Trazado 115881" d="M876.151,408.71a.494.494,0,1,1-.494-.5A.494.494,0,0,1,876.151,408.71Z" transform="translate(-815.778 -392.601)" fill="#203a8a"/>
            <path id="Trazado_115882" data-name="Trazado 115882" d="M870.9,391.986H859.888v3.545H870.9Z" transform="translate(-812.746 -389.379)" fill="#203a8a"/>
            <path id="Trazado_115883" data-name="Trazado 115883" d="M858.831,397.116H851.7a3.881,3.881,0,0,1,0-7.762h7.131Z" transform="translate(-810.351 -388.857)" fill="#00cca7"/>
            <path id="Trazado_115884" data-name="Trazado 115884" d="M871.844,397.116h-5.028v-7.762h5.028a3.881,3.881,0,0,1,0,7.762Z" transform="translate(-814.121 -388.857)" fill="#00cca7"/>
            <path id="Trazado_115885" data-name="Trazado 115885" d="M873.529,395.534a2.044,2.044,0,1,1,1.091-2.676A2.046,2.046,0,0,1,873.529,395.534Zm-1.248-2.979a1.184,1.184,0,1,0,1.548.635A1.188,1.188,0,0,0,872.28,392.556Z" transform="translate(-814.891 -389.304)" fill="#203a8a"/>
            <path id="Trazado_115886" data-name="Trazado 115886" d="M832.832,412.167l-6.146-9.523-1.985,1.284,6.146,9.523Z" transform="translate(-805.761 -391.495)" fill="#203a8a"/>
            <path id="Trazado_115887" data-name="Trazado 115887" d="M810.407,418.22a3.09,3.09,0,0,1,.927-4.271l15.886-10.237,3.343,5.2-15.89,10.239a3.085,3.085,0,0,1-4.264-.928Z" transform="translate(-802.826 -391.707)" fill="#203a8a"/>
            <path id="Trazado_115888" data-name="Trazado 115888" d="M832.218,410.862l17.188-12.739a5.2,5.2,0,0,0-5.652-8.715L825.171,399.94l7.051,10.922Z" transform="translate(-805.854 -388.734)" fill="#00cca7"/>
            <path id="Trazado_115889" data-name="Trazado 115889" d="M852.513,397.218a3.339,3.339,0,1,1,.981-4.62A3.339,3.339,0,0,1,852.513,397.218Zm-2.87-4.422a1.934,1.934,0,1,0,2.676.568A1.94,1.94,0,0,0,849.643,392.8Z" transform="translate(-810.259 -389.199)" fill="#203a8a"/>
            <path id="Trazado_115890" data-name="Trazado 115890" d="M834.121,446.024a10.02,10.02,0,0,1-14.141-1l-16.46-19a10.027,10.027,0,1,1,15.146-13.144l16.46,19A10.034,10.034,0,0,1,834.121,446.024Z" transform="translate(-801.07 -392.84)" fill="#00cca7"/>
            <path id="Trazado_115891" data-name="Trazado 115891" d="M808.33,416.081a5.279,5.279,0,1,0,7.444.531A5.284,5.284,0,0,0,808.33,416.081Zm5.526,6.373a3.157,3.157,0,1,1,.317-4.455A3.152,3.152,0,0,1,813.855,422.454Z" transform="translate(-802.15 -393.906)" fill="#203a8a"/>
            <path id="Trazado_115892" data-name="Trazado 115892" d="M833.2,436.255a9.115,9.115,0,0,1,9.106,9.116v7.818H824.093v-7.818A9.115,9.115,0,0,1,833.2,436.255Z" transform="translate(-805.64 -398.168)" fill="#203a8a"/>
            <path id="Trazado_115893" data-name="Trazado 115893" d="M831.84,443.3a4.143,4.143,0,1,0,5.843.417A4.146,4.146,0,0,0,831.84,443.3Zm4.338,5.005a2.478,2.478,0,1,1,.247-3.5A2.481,2.481,0,0,1,836.178,448.308Z" transform="translate(-806.894 -399.365)" fill="#00cca7"/>
            <path id="Trazado_115894" data-name="Trazado 115894" d="M848.831,466.128H814.072V461.26a4.455,4.455,0,0,1,4.451-4.455h25.86a4.452,4.452,0,0,1,4.448,4.455Z" transform="translate(-803.651 -402.247)" fill="#3651a3"/>
          </g>
          <path id="Trazado_115895" data-name="Trazado 115895" d="M904.8,525.815h-18.89a2.681,2.681,0,0,1,0-5.362H904.8a2.681,2.681,0,0,1,0,5.362Z" transform="translate(-192.355 -103.317)" fill="#00cca7"/>
          <path id="Trazado_115896" data-name="Trazado 115896" d="M904.8,537.96h-18.89a2.679,2.679,0,0,1,0-5.359H904.8a2.679,2.679,0,0,1,0,5.359Z" transform="translate(-192.355 -105.729)" fill="#00cca7"/>
          <path id="Trazado_115897" data-name="Trazado 115897" d="M904.8,550.1h-18.89a2.681,2.681,0,0,1,0-5.362H904.8a2.681,2.681,0,0,1,0,5.362Z" transform="translate(-192.355 -108.139)" fill="#00cca7"/>
          <path id="Trazado_115898" data-name="Trazado 115898" d="M818.585,605.206A47.4,47.4,0,1,1,796.616,515.8h.073v22.99a24.413,24.413,0,1,0,11.281,46.064l10.614,20.354Z" transform="translate(-165.758 -102.394)" fill="#00cca7"/>
          <path id="Trazado_115899" data-name="Trazado 115899" d="M858.529,574.945a47.41,47.41,0,0,1-25.4,42L822.519,596.59a24.411,24.411,0,0,0,13.107-21.645Z" transform="translate(-180.303 -114.135)" fill="#203a8a"/>
          <path id="Trazado_115900" data-name="Trazado 115900" d="M855.734,563.2h-22.9a24.4,24.4,0,0,0-24.392-24.415V515.8A47.39,47.39,0,0,1,855.734,563.2Z" transform="translate(-177.508 -102.394)" fill="#cffafa"/>
          <path id="Trazado_115901" data-name="Trazado 115901" d="M945.954,623.359H873.173v68.977h72.781Z" transform="translate(-190.358 -123.746)" fill="#99d2ff"/>
          <path id="Trazado_115902" data-name="Trazado 115902" d="M896.319,670.212h-6.88v19.9h6.88Z" transform="translate(-193.588 -133.047)" fill="#fdfdff"/>
          <path id="Trazado_115903" data-name="Trazado 115903" d="M908.292,666.469h-6.884v22.9h6.884Z" transform="translate(-195.964 -132.304)" fill="#fdfdff"/>
          <path id="Trazado_115904" data-name="Trazado 115904" d="M920.261,658.871h-6.884v28.993h6.884Z" transform="translate(-198.34 -130.796)" fill="#fdfdff"/>
          <path id="Trazado_115905" data-name="Trazado 115905" d="M932.23,653.567h-6.884v33.244h6.884Z" transform="translate(-200.716 -129.743)" fill="#fdfdff"/>
          <path id="Trazado_115906" data-name="Trazado 115906" d="M944.2,642.127h-6.884V684.54H944.2Z" transform="translate(-203.092 -127.472)" fill="#fdfdff"/>
          <path id="Trazado_115907" data-name="Trazado 115907" d="M867.872,807.7a35.949,35.949,0,1,0-35.923-35.947A35.934,35.934,0,0,0,867.872,807.7Z" transform="translate(-182.175 -146.068)" fill="#00cca7"/>
          <path id="Trazado_115908" data-name="Trazado 115908" d="M897.631,758.241q-.541-1.076-1.158-2.109a32.251,32.251,0,0,0-27.385-15.746c-.1,0-.2,0-.307,0-.087,0-.174,0-.26,0a32.241,32.241,0,0,0-27.431,15.746c-.414.688-.8,1.392-1.158,2.109a32.1,32.1,0,0,0-3.4,14.418,32.572,32.572,0,0,0,3.59,14.792q.561,1.081,1.191,2.109a32.259,32.259,0,0,0,27.184,15.372c.093,0,.19,0,.284,0s.2,0,.31,0a32.235,32.235,0,0,0,27.155-15.372q.636-1.026,1.2-2.109a32.109,32.109,0,0,0,3.59-14.792,31.586,31.586,0,0,0-3.4-14.418Zm-2.586,29.213c-.4.721-.841,1.425-1.3,2.109a30.263,30.263,0,0,1-15.356,11.7h0a29.855,29.855,0,0,1-8.552,1.551c-.254.01-.517.017-.777.017h-.514c-.27,0-.544-.01-.814-.017a29.974,29.974,0,0,1-7.351-1.175,30.28,30.28,0,0,1-16.557-12.076q-.7-1.026-1.3-2.109a29.919,29.919,0,0,1-3.857-13.737c-.017-.35-.02-.7-.02-1.054s0-.7.02-1.054a29.939,29.939,0,0,1,3.65-13.364c.394-.721.814-1.425,1.268-2.109a30.1,30.1,0,0,1,24.155-13.624c.27-.01.544-.017.814-.017h.514c.264,0,.521.01.777.017a29.943,29.943,0,0,1,8.549,1.552h0a30.27,30.27,0,0,1,15.6,12.072c.454.681.874,1.385,1.268,2.106a30,30,0,0,1,3.65,13.367c.017.347.02.7.02,1.051s0,.707-.02,1.055a29.989,29.989,0,0,1-3.857,13.741Z" transform="translate(-183.084 -146.977)" fill="#fff"/>
          <path id="Trazado_115909" data-name="Trazado 115909" d="M900.241,779.338h-62.4v2.109h62.4Z" transform="translate(-183.345 -154.71)" fill="#fff"/>
          <path id="Trazado_115910" data-name="Trazado 115910" d="M898.474,762.142h-57.7c.36-.717.744-1.421,1.158-2.109h55.387c.41.687.8,1.392,1.155,2.109Z" transform="translate(-183.927 -150.878)" fill="#fff"/>
          <path id="Trazado_115911" data-name="Trazado 115911" d="M898.333,799.113q-.56,1.076-1.2,2.109H842.2q-.636-1.031-1.191-2.109Z" transform="translate(-183.973 -158.636)" fill="#fff"/>
          <path id="Trazado_115912" data-name="Trazado 115912" d="M897.631,758.241q-.541-1.076-1.158-2.109a32.251,32.251,0,0,0-27.385-15.746c-.1,0-.2,0-.307,0-.087,0-.174,0-.26,0a32.241,32.241,0,0,0-27.431,15.746c-.414.688-.8,1.392-1.158,2.109a32.1,32.1,0,0,0-3.4,14.418,32.572,32.572,0,0,0,3.59,14.792q.561,1.081,1.191,2.109a32.259,32.259,0,0,0,27.184,15.372c.093,0,.19,0,.284,0s.2,0,.31,0a32.235,32.235,0,0,0,27.155-15.372q.636-1.026,1.2-2.109a32.109,32.109,0,0,0,3.59-14.792,31.586,31.586,0,0,0-3.4-14.418Zm-2.586,29.213c-.4.721-.841,1.425-1.3,2.105a30.251,30.251,0,0,1-15.356,11.7h0a29.855,29.855,0,0,1-8.552,1.551c-.254.01-.517.017-.777.017h-.514c-.27,0-.544-.01-.814-.017a30.068,30.068,0,0,1-23.908-13.25q-.7-1.026-1.3-2.109a29.919,29.919,0,0,1-3.857-13.737c-.017-.35-.02-.7-.02-1.054s0-.7.02-1.054a29.916,29.916,0,0,1,3.65-13.364c.394-.721.814-1.425,1.268-2.109a30.252,30.252,0,0,1,16.814-12.449,29.948,29.948,0,0,1,7.341-1.174c.27-.01.544-.017.814-.017h.514c.264,0,.521.01.777.017a29.943,29.943,0,0,1,8.549,1.552h0a30.27,30.27,0,0,1,15.6,12.072c.454.681.874,1.385,1.268,2.106a29.987,29.987,0,0,1,3.65,13.367c.017.347.02.7.02,1.051s0,.707-.02,1.055a29.989,29.989,0,0,1-3.857,13.741Z" transform="translate(-183.084 -146.977)" fill="#fff"/>
          <path id="Trazado_115913" data-name="Trazado 115913" d="M877.56,741.7h-2.105v62.447h2.105Z" transform="translate(-190.811 -147.238)" fill="#fff"/>
          <path id="Trazado_115914" data-name="Trazado 115914" d="M854.709,772.66c0-8.332,1.515-16.113,4.258-21.916,3.21-6.777,7.848-10.357,13.424-10.357v2.106c-10.224,0-15.576,15.179-15.576,30.171s5.352,30.171,15.576,30.171v2.106c-12.149,0-17.682-16.731-17.682-32.277Z" transform="translate(-186.693 -146.978)" fill="#fff"/>
          <path id="Trazado_115915" data-name="Trazado 115915" d="M876.77,804.936v-2.109c11.785,0,17.157-15.639,17.157-30.168s-5.369-30.171-17.157-30.171v-2.106c13.234,0,19.263,16.731,19.263,32.277S890,804.936,876.77,804.936Z" transform="translate(-191.073 -146.977)" fill="#fff"/>
          <path id="Trazado_115916" data-name="Trazado 115916" d="M906.912,817.419h-29.33V781.012h29.33Z" transform="translate(-191.234 -155.042)" fill="#fff"/>
          <path id="Trazado_115917" data-name="Trazado 115917" d="M884.809,823.611H913.2V788.147H884.809Z" transform="translate(-192.668 -156.459)" fill="#00cca7"/>
          <path id="Trazado_115918" data-name="Trazado 115918" d="M890.321,797.722h14.685v-2.306H890.321Z" transform="translate(-193.763 -157.902)" fill="#fff"/>
          <path id="Trazado_115919" data-name="Trazado 115919" d="M890.321,804.479h19.026v-2.306H890.321Z" transform="translate(-193.763 -159.243)" fill="#fff"/>
          <path id="Trazado_115920" data-name="Trazado 115920" d="M890.321,811.24h19.026v-2.306H890.321Z" transform="translate(-193.763 -160.585)" fill="#fff"/>
          <path id="Trazado_115921" data-name="Trazado 115921" d="M890.321,818h19.026V815.7H890.321Z" transform="translate(-193.763 -161.928)" fill="#fff"/>
          <path id="Trazado_115922" data-name="Trazado 115922" d="M890.321,824.762h19.026v-2.306H890.321Z" transform="translate(-193.763 -163.27)" fill="#fff"/>
          <path id="Trazado_115923" data-name="Trazado 115923" d="M709.857,323.465H598.579v105.6H709.857Z" transform="translate(-135.848 -64.213)" fill="#b8f5e9"/>
          <path id="Trazado_115924" data-name="Trazado 115924" d="M682.329,441.285V425.893l-9.113-25.922V384.709h-19.4V399.97L644.7,425.893v15.393Z" transform="translate(-145.004 -76.37)" fill="#3651a3"/>
          <path id="Trazado_115925" data-name="Trazado 115925" d="M676.082,384.636H654.616v.9h21.465Z" transform="translate(-146.972 -76.356)" fill="#3651a3"/>
          <path id="Trazado_115926" data-name="Trazado 115926" d="M746.2,439.154V400.778L726.375,385.84l-19.026,14.938H667.381v38.376Z" transform="translate(-149.506 -76.595)" fill="#00cca7"/>
          <path id="Trazado_115927" data-name="Trazado 115927" d="M681.036,417.654h-8.405V425.6h8.405Z" transform="translate(-150.548 -82.911)" fill="#3651a3"/>
          <path id="Trazado_115928" data-name="Trazado 115928" d="M693.959,417.654h-8.4V425.6h8.4Z" transform="translate(-153.114 -82.911)" fill="#3651a3"/>
          <path id="Trazado_115929" data-name="Trazado 115929" d="M681.036,433.616h-8.405v14.241h8.405Z" transform="translate(-150.548 -86.079)" fill="#00cca7"/>
          <path id="Trazado_115930" data-name="Trazado 115930" d="M692.1,433.616h-8.405v14.241H692.1Z" transform="translate(-152.744 -86.079)" fill="#00cca7"/>
          <path id="Trazado_115931" data-name="Trazado 115931" d="M706.436,433.616H698.03v14.241h8.405Z" transform="translate(-155.59 -86.079)" fill="#00cca7"/>
          <path id="Trazado_115932" data-name="Trazado 115932" d="M717.5,433.616H709.1v14.241H717.5Z" transform="translate(-157.787 -86.079)" fill="#00cca7"/>
          <path id="Trazado_115933" data-name="Trazado 115933" d="M731.436,433.616h-8.405v14.241h8.405Z" transform="translate(-160.553 -86.079)" fill="#00cca7"/>
          <path id="Trazado_115934" data-name="Trazado 115934" d="M742.5,433.616H734.1v14.241H742.5Z" transform="translate(-162.75 -86.079)" fill="#00cca7"/>
          <path id="Trazado_115935" data-name="Trazado 115935" d="M758.593,433.616h-8.405v14.241h8.405Z" transform="translate(-165.944 -86.079)" fill="#00cca7"/>
          <path id="Trazado_115936" data-name="Trazado 115936" d="M706.885,417.654H698.48V425.6h8.405Z" transform="translate(-155.679 -82.911)" fill="#3651a3"/>
          <path id="Trazado_115937" data-name="Trazado 115937" d="M719.809,417.654h-8.4V425.6h8.4Z" transform="translate(-158.246 -82.911)" fill="#3651a3"/>
          <path id="Trazado_115938" data-name="Trazado 115938" d="M732.739,417.654h-8.405V425.6h8.405Z" transform="translate(-160.812 -82.911)" fill="#3651a3"/>
          <path id="Trazado_115939" data-name="Trazado 115939" d="M745.662,417.654h-8.405V425.6h8.405Z" transform="translate(-163.377 -82.911)" fill="#3651a3"/>
          <path id="Trazado_115940" data-name="Trazado 115940" d="M758.588,417.654h-8.405V425.6h8.405Z" transform="translate(-165.943 -82.911)" fill="#3651a3"/>
          <path id="Trazado_115941" data-name="Trazado 115941" d="M711.731,398.7H700.283l.577-11.587.29-5.868.694-13.972h8.325l.694,13.972.29,5.868Z" transform="translate(-156.037 -72.909)" fill="#00cca7"/>
          <path id="Trazado_115942" data-name="Trazado 115942" d="M692.744,399.916h-9.66l.577-11.587.29-5.868.451-9.066h7.024l.45,9.066.29,5.868Z" transform="translate(-152.623 -74.124)" fill="#00cca7"/>
          <path id="Trazado_115943" data-name="Trazado 115943" d="M711.3,367.231h-10v.587h10Z" transform="translate(-156.239 -72.901)" fill="#00cca7"/>
          <path id="Trazado_115944" data-name="Trazado 115944" d="M692.5,373.3h-8.712v.587H692.5Z" transform="translate(-152.764 -74.105)" fill="#00cca7"/>
          <path id="Trazado_115945" data-name="Trazado 115945" d="M749.328,451.605H661.394v2.96h87.934Z" transform="translate(-148.317 -89.65)" fill="#00cca7"/>
          <path id="Trazado_115946" data-name="Trazado 115946" d="M648.224,441.382V425.893l-4.735-13.467-4.381-12.455V384.709h-19.4V399.97l-4.381,12.455L610.6,425.893v15.489Z" transform="translate(-138.234 -76.37)" fill="#fff"/>
          <path id="Trazado_115947" data-name="Trazado 115947" d="M641.973,384.636H620.511v.9h21.462Z" transform="translate(-140.201 -76.356)" fill="#fff"/>
          <path id="Trazado_115948" data-name="Trazado 115948" d="M644.661,414.743H616.5l4.381-12.454v-5.905h19.4v5.905Z" transform="translate(-139.405 -78.688)" fill="#00cca7"/>
          <path id="Trazado_115949" data-name="Trazado 115949" d="M692.02,384.706l.29,5.868H683.8l.29-5.868Z" transform="translate(-152.766 -76.37)" fill="#fff"/>
          <path id="Trazado_115950" data-name="Trazado 115950" d="M711.3,390.574H701l.29-5.868h9.713Z" transform="translate(-156.18 -76.37)" fill="#fff"/>
          <path id="Trazado_115951" data-name="Trazado 115951" d="M708.269,360.748a3.68,3.68,0,1,0-5.2,0A3.685,3.685,0,0,0,708.269,360.748Z" transform="translate(-156.376 -70.367)" fill="#fff"/>
          <path id="Trazado_115952" data-name="Trazado 115952" d="M707.152,352.182a5.277,5.277,0,1,0-6.894,2.858A5.278,5.278,0,0,0,707.152,352.182Z" transform="translate(-155.385 -68.464)" fill="#fff"/>
          <path id="Trazado_115953" data-name="Trazado 115953" d="M700.527,344.617a7.677,7.677,0,1,0-10.851,0A7.681,7.681,0,0,0,700.527,344.617Z" transform="translate(-153.485 -65.809)" fill="#fff"/>
          <path id="Trazado_115954" data-name="Trazado 115954" d="M689.411,338.629a12,12,0,1,0-14.425-8.923A12,12,0,0,0,689.411,338.629Z" transform="translate(-150.951 -62.521)" fill="#fff"/>
          <path id="Trazado_115955" data-name="Trazado 115955" d="M685.171,368.841a3.681,3.681,0,1,0-3.677-3.681A3.681,3.681,0,0,0,685.171,368.841Z" transform="translate(-152.307 -71.759)" fill="#fff"/>
          <path id="Trazado_115956" data-name="Trazado 115956" d="M681.785,362.458a5.281,5.281,0,1,0-5.279-5.281A5.279,5.279,0,0,0,681.785,362.458Z" transform="translate(-151.317 -69.857)" fill="#fff"/>
          <path id="Trazado_115957" data-name="Trazado 115957" d="M680.035,351.634a7.678,7.678,0,1,0-10.854,0A7.686,7.686,0,0,0,680.035,351.634Z" transform="translate(-149.417 -67.202)" fill="#fff"/>
          <path id="Trazado_115958" data-name="Trazado 115958" d="M666.159,345.954a12,12,0,1,0-11.992-12A12,12,0,0,0,666.159,345.954Z" transform="translate(-146.882 -63.913)" fill="#fff"/>
          <path id="Trazado_115959" data-name="Trazado 115959" d="M665.612,332.6a15.248,15.248,0,1,0-21.555,0A15.26,15.26,0,0,0,665.612,332.6Z" transform="translate(-143.99 -60.857)" fill="#fff"/>
          <path id="Trazado_115960" data-name="Trazado 115960" d="M627.195,316.063a16.438,16.438,0,0,0-16.434,16.446c0,9.082,16.434,24.749,16.434,24.749s16.433-15.667,16.433-24.749A16.44,16.44,0,0,0,627.195,316.063Zm0,21a5.589,5.589,0,1,1,5.582-5.588A5.585,5.585,0,0,1,627.195,337.06Z" transform="translate(-138.266 -62.743)" fill="#00cca7"/>
          <g id="Grupo_81517" data-name="Grupo 81517" transform="translate(306.381 295.519)">
            <path id="Trazado_115961" data-name="Trazado 115961" d="M535.132,383.425H403.5V513.191H535.132Z" transform="translate(-403.503 -371.635)" fill="#d9f0ff"/>
            <path id="Trazado_115962" data-name="Trazado 115962" d="M454.6,395.01h-5.222v23.315H454.6Z" transform="translate(-412.61 -373.934)" fill="#203a8a"/>
            <path id="Trazado_115963" data-name="Trazado 115963" d="M481.793,456.551l-15.6,17.314,3.877,3.5,15.6-17.314Z" transform="translate(-415.948 -386.151)" fill="#203a8a"/>
            <path id="Trazado_115964" data-name="Trazado 115964" d="M459.363,489.486l-5.219.057.167,15.656,5.222-.057Z" transform="translate(-413.556 -392.689)" fill="#203a8a"/>
            <path id="Trazado_115965" data-name="Trazado 115965" d="M456.558,373.932a5.214,5.214,0,1,0-10.427,0v16.887a5.214,5.214,0,1,0,10.427,0Z" transform="translate(-411.965 -368.714)" fill="#00cca7"/>
            <path id="Trazado_115966" data-name="Trazado 115966" d="M450.684,392.709a3.046,3.046,0,1,0,4,1.59A3.055,3.055,0,0,0,450.684,392.709Z" transform="translate(-412.505 -373.428)" fill="#203a8a"/>
            <path id="Trazado_115967" data-name="Trazado 115967" d="M473.654,454.889,446.8,430.3a10.109,10.109,0,0,1,13.641-14.922l26.854,24.589a10.109,10.109,0,0,1-13.641,14.922Z" transform="translate(-411.446 -377.452)" fill="#00cca7"/>
            <path id="Trazado_115968" data-name="Trazado 115968" d="M456.738,418.986a5.171,5.171,0,1,0,3.12,6.613A5.173,5.173,0,0,0,456.738,418.986Z" transform="translate(-412.699 -378.634)" fill="#203a8a"/>
            <path id="Trazado_115969" data-name="Trazado 115969" d="M490,449.9a5.171,5.171,0,1,0,3.19,6.58A5.176,5.176,0,0,0,490,449.9Z" transform="translate(-419.311 -384.774)" fill="#203a8a"/>
            <path id="Trazado_115970" data-name="Trazado 115970" d="M473.51,476.917l-13.1,14.655a5.455,5.455,0,0,1-8.128-7.277l13.1-14.655a5.455,5.455,0,1,1,8.128,7.277Z" transform="translate(-412.911 -388.389)" fill="#00cca7"/>
            <path id="Trazado_115971" data-name="Trazado 115971" d="M454.913,491.539a2.242,2.242,0,1,0,2.853-1.388A2.248,2.248,0,0,0,454.913,491.539Z" transform="translate(-413.684 -392.797)" fill="#203a8a"/>
            <path id="Trazado_115972" data-name="Trazado 115972" d="M471.82,473.088a2.242,2.242,0,1,0,2.853-1.385A2.245,2.245,0,0,0,471.82,473.088Z" transform="translate(-417.04 -389.134)" fill="#203a8a"/>
            <path id="Trazado_115973" data-name="Trazado 115973" d="M459.27,519.487h-5.159v2.169h5.159Z" transform="translate(-413.55 -398.645)" fill="#203a8a"/>
            <path id="Trazado_115974" data-name="Trazado 115974" d="M458.5,521.039h-3.1v3.243h3.1Z" transform="translate(-413.804 -398.953)" fill="#203a8a"/>
            <path id="Trazado_115975" data-name="Trazado 115975" d="M459.27,519.487h-5.159v2.169h5.159Z" transform="translate(-413.55 -398.645)" fill="#203a8a"/>
            <path id="Trazado_115976" data-name="Trazado 115976" d="M459.43,525.662v0h0l-.384-.37a3.114,3.114,0,0,0-4.341,0l-.384.37h0l0,0h0v2.566l.394.374a3.1,3.1,0,0,0,2.152.864h.027a3.113,3.113,0,0,0,2.156-.864l.39-.374v-2.566Z" transform="translate(-413.589 -399.622)" fill="#203a8a"/>
            <path id="Trazado_115977" data-name="Trazado 115977" d="M458.617,528.7h-2.953v2.072h2.953Z" transform="translate(-413.858 -400.474)" fill="#203a8a"/>
            <path id="Trazado_115978" data-name="Trazado 115978" d="M456.755,526.889v8.852l.581.574.621-.574v-8.852Z" transform="translate(-414.074 -400.114)" fill="#203a8a"/>
            <path id="Trazado_115979" data-name="Trazado 115979" d="M458.88,519.965h-6.23l-3.193-3.48h12.62Z" transform="translate(-412.626 -398.049)" fill="#00cca7"/>
            <path id="Trazado_115980" data-name="Trazado 115980" d="M452.309,504.124H459l3.427,2.366H448.882Z" transform="translate(-412.511 -395.595)" fill="#00cca7"/>
            <path id="Trazado_115981" data-name="Trazado 115981" d="M462.731,506.481H448.366V514.7h14.365Z" transform="translate(-412.409 -396.063)" fill="#203a8a"/>
          </g>
          <path id="Trazado_115982" data-name="Trazado 115982" d="M451.679,374.095a3.271,3.271,0,1,0-3.267-3.271A3.271,3.271,0,0,0,451.679,374.095Z" transform="translate(-106.037 -72.965)" fill="#aae0ff"/>
          <path id="Trazado_115983" data-name="Trazado 115983" d="M437.714,357.047l-1.388-1.581a18.55,18.55,0,0,1,27.308.643l-1.465,1.51a16.64,16.64,0,0,0-24.455-.575Z" transform="translate(-103.638 -69.438)" fill="#aae0ff"/>
          <path id="Trazado_115984" data-name="Trazado 115984" d="M441.307,361.452l-1.388-1.581a14.586,14.586,0,0,1,21.389.5l-1.465,1.51a12.68,12.68,0,0,0-18.539-.43Z" transform="translate(-104.351 -70.562)" fill="#aae0ff"/>
          <path id="Trazado_115985" data-name="Trazado 115985" d="M444.788,365.717l-1.388-1.581a10.747,10.747,0,0,1,15.656.359l-1.461,1.51a8.839,8.839,0,0,0-12.807-.29Z" transform="translate(-105.042 -71.65)" fill="#aae0ff"/>
          <path id="Trazado_115986" data-name="Trazado 115986" d="M523.449,732a30.018,30.018,0,0,0,.3-4.014,29.681,29.681,0,0,0-57.032-11.552A20.716,20.716,0,0,0,432.2,731.921h-3.867a20.042,20.042,0,0,0,0,40.084h93.636A20.031,20.031,0,0,0,523.449,732Z" transform="translate(-98.076 -138.619)" fill="#00cca7"/>
          <path id="Trazado_115987" data-name="Trazado 115987" d="M481.279,794.988v-13.31H477.9v13.31h-48.92v2.983H532.9v-2.983Z" transform="translate(-102.179 -155.175)" fill="#203a8a"/>
          <path id="Trazado_115988" data-name="Trazado 115988" d="M508.669,734.758H467.85v36.955h40.819Z" transform="translate(-109.896 -145.86)" fill="#99d2ff"/>
          <path id="Trazado_115989" data-name="Trazado 115989" d="M508.6,734.758H467.064a1.375,1.375,0,0,0-1.375,1.375v8.405a1.373,1.373,0,0,0,1.375,1.375H508.6a1.372,1.372,0,0,0,1.371-1.375v-8.405A1.374,1.374,0,0,0,508.6,734.758Z" transform="translate(-109.467 -145.86)" fill="#fff"/>
          <path id="Trazado_115990" data-name="Trazado 115990" d="M472.415,738.31h-4.378v5.909h4.378Z" transform="translate(-109.933 -146.565)" fill="#99d2ff"/>
          <path id="Trazado_115991" data-name="Trazado 115991" d="M480.609,738.31h-4.378v5.909h4.378Z" transform="translate(-111.56 -146.565)" fill="#99d2ff"/>
          <path id="Trazado_115992" data-name="Trazado 115992" d="M488.8,738.31h-4.375v5.909H488.8Z" transform="translate(-113.186 -146.565)" fill="#99d2ff"/>
          <path id="Trazado_115993" data-name="Trazado 115993" d="M508.6,751.286H467.064a1.373,1.373,0,0,0-1.375,1.375v8.405a1.375,1.375,0,0,0,1.375,1.375H508.6a1.374,1.374,0,0,0,1.371-1.375v-8.405A1.372,1.372,0,0,0,508.6,751.286Z" transform="translate(-109.467 -149.141)" fill="#fff"/>
          <path id="Trazado_115994" data-name="Trazado 115994" d="M472.415,754.833h-4.378v5.913h4.378Z" transform="translate(-109.933 -149.846)" fill="#99d2ff"/>
          <path id="Trazado_115995" data-name="Trazado 115995" d="M480.609,754.833h-4.378v5.913h4.378Z" transform="translate(-111.56 -149.846)" fill="#99d2ff"/>
          <path id="Trazado_115996" data-name="Trazado 115996" d="M488.8,754.833h-4.375v5.913H488.8Z" transform="translate(-113.186 -149.846)" fill="#99d2ff"/>
          <path id="Trazado_115997" data-name="Trazado 115997" d="M508.6,767.81H467.064a1.375,1.375,0,0,0-1.375,1.375v8.405a1.373,1.373,0,0,0,1.375,1.375H508.6a1.372,1.372,0,0,0,1.371-1.375v-8.405A1.374,1.374,0,0,0,508.6,767.81Z" transform="translate(-109.467 -152.422)" fill="#fff"/>
          <path id="Trazado_115998" data-name="Trazado 115998" d="M472.415,771.361h-4.378v5.909h4.378Z" transform="translate(-109.933 -153.127)" fill="#99d2ff"/>
          <path id="Trazado_115999" data-name="Trazado 115999" d="M480.609,771.361h-4.378v5.909h4.378Z" transform="translate(-111.56 -153.127)" fill="#99d2ff"/>
          <path id="Trazado_116000" data-name="Trazado 116000" d="M488.8,771.361h-4.375v5.909H488.8Z" transform="translate(-113.186 -153.127)" fill="#99d2ff"/>
          <path id="Trazado_116001" data-name="Trazado 116001" d="M498.117,795.167H482.471v7.555h15.646Z" transform="translate(-112.798 -157.852)" fill="#203a8a"/>
          <path id="Trazado_116002" data-name="Trazado 116002" d="M435.845,683.787c-4.268,4.491-11.051,8.152-18.3,9.683-.007.48-.037,3.147-.17,15.436-.184,16.394,15.426,24.509,17.852,25.753,2.362-1.064,18.275-8.959,18.459-25.353.137-12.289.167-14.959.173-15.439-7.211-1.688-13.851-5.5-18.015-10.084Z" transform="translate(-99.876 -135.741)" fill="#fff"/>
          <path id="Trazado_116003" data-name="Trazado 116003" d="M436.271,687.481A38.511,38.511,0,0,1,420,695.769l-.154,13.891c-.07,6.357,2.426,12.123,7.421,17.141a36.083,36.083,0,0,0,8.5,6.28c.077-.04.16-.083.244-.123l.3-45.443A.179.179,0,0,1,436.271,687.481Z" transform="translate(-100.366 -136.475)" fill="#00cca7"/>
          <path id="Trazado_116004" data-name="Trazado 116004" d="M440.311,687.523l-.3,45.443a36.113,36.113,0,0,0,8.4-5.966c5.105-4.908,7.728-10.618,7.8-16.974l.157-13.891a38.523,38.523,0,0,1-16.05-8.612Z" transform="translate(-104.369 -136.483)" fill="#00cca7"/>
          <path id="Trazado_116005" data-name="Trazado 116005" d="M430.444,710.945v11.2c0,1.248,15.226,1.248,15.226,0v-11.2Zm8.382,5.95v3.177a.769.769,0,1,1-1.538,0v-3.183a1.869,1.869,0,1,1,1.538.01Z" transform="translate(-102.47 -141.133)" fill="#fff"/>
          <path id="Trazado_116006" data-name="Trazado 116006" d="M444.668,708.2h-1.542v-.754a4.738,4.738,0,1,0-9.476,0v.754h-1.542v-.754a6.28,6.28,0,1,1,12.56,0v.754Z" transform="translate(-102.801 -139.191)" fill="#fff"/>
          <path id="Trazado_116007" data-name="Trazado 116007" d="M408.391,643.233l-14.24-10.744h31.127L411.113,643.23A2.261,2.261,0,0,1,408.391,643.233Z" transform="translate(-95.266 -125.559)" fill="#00cca7"/>
          <path id="Trazado_116008" data-name="Trazado 116008" d="M426.259,634.716v21.676H392.521V634.716l15.123,11.355a2.965,2.965,0,0,0,3.565,0l15.05-11.352Z" transform="translate(-94.942 -126.001)" fill="#00cca7"/>
          <path id="Trazado_116009" data-name="Trazado 116009" d="M566.27,537.821H518.307a4.727,4.727,0,0,0-4.728,4.732v19.06a4.729,4.729,0,0,0,4.728,4.732H566.27A4.731,4.731,0,0,0,571,561.612v-19.06A4.729,4.729,0,0,0,566.27,537.821Z" transform="translate(-118.974 -106.765)" fill="#00cca7"/>
          <path id="Trazado_116010" data-name="Trazado 116010" d="M570.15,567.594v12.87l-13.107-13.117Z" transform="translate(-127.602 -112.627)" fill="#00cca7"/>
          <path id="Trazado_116011" data-name="Trazado 116011" d="M528.436,557.1a2.5,2.5,0,1,0-3.54,0A2.513,2.513,0,0,0,528.436,557.1Z" transform="translate(-121.075 -109.743)" fill="#fff"/>
          <path id="Trazado_116012" data-name="Trazado 116012" d="M539.516,556.061a2.5,2.5,0,1,0-3.14,1.635A2.508,2.508,0,0,0,539.516,556.061Z" transform="translate(-123.152 -109.739)" fill="#fff"/>
          <path id="Trazado_116013" data-name="Trazado 116013" d="M548.556,557.631a2.5,2.5,0,1,0-3.267-1.365A2.505,2.505,0,0,0,548.556,557.631Z" transform="translate(-125.232 -109.741)" fill="#fff"/>
          <path id="Trazado_116014" data-name="Trazado 116014" d="M560.139,556.708a2.5,2.5,0,1,0-3.474.677A2.505,2.505,0,0,0,560.139,556.708Z" transform="translate(-127.308 -109.74)" fill="#fff"/>
          <path id="Trazado_116015" data-name="Trazado 116015" d="M570.3,557.1a2.5,2.5,0,1,0-3.54,0A2.5,2.5,0,0,0,570.3,557.1Z" transform="translate(-129.386 -109.743)" fill="#fff"/>
          <path id="Trazado_116016" data-name="Trazado 116016" d="M446.518,582.971a14.429,14.429,0,0,0-.337,5.592l1.568-.214a13.018,13.018,0,0,0,1.662,4.8l-1.361.8a14.461,14.461,0,0,0,3.714,4.191l.217-.28.741-.981a12.852,12.852,0,0,0,4.571,2.219l-.4,1.535a14.336,14.336,0,0,0,5.589.327l-.214-1.568a12.9,12.9,0,0,0,4.8-1.658l.8,1.361a14.448,14.448,0,0,0,4.191-3.724h-.007l-.36-.28-.891-.681a12.877,12.877,0,0,0,2.212-4.568l1.535.4a14.311,14.311,0,0,0,.33-5.6l-1.568.21a12.953,12.953,0,0,0-1.655-4.8l1.358-.8a14.424,14.424,0,0,0-3.717-4.191l-.958,1.258a12.831,12.831,0,0,0-4.568-2.216l.4-1.535a14.235,14.235,0,0,0-5.592-.33l.214,1.568A12.868,12.868,0,0,0,454,575.473l-.8-1.361a14.38,14.38,0,0,0-4.188,3.72l.01.01.828.631.42.32a12.872,12.872,0,0,0-2.216,4.571l-1.532-.4Zm7.244,1.882a7,7,0,1,1,5.012,8.542,6.989,6.989,0,0,1-5.012-8.542Z" transform="translate(-105.568 -113.572)" fill="#aae0ff"/>
          <path id="Trazado_116017" data-name="Trazado 116017" d="M525.821,665.533V647.521a16.859,16.859,0,0,1,0-33.695V595.8a34.262,34.262,0,0,0-4.108.324l.514,3.777a30.924,30.924,0,0,0-11.538,3.991l-1.925-3.277a34.692,34.692,0,0,0-10.077,8.953l.023.02,2,1.521,1.008.767a30.942,30.942,0,0,0-5.329,10.995l-3.69-.961a34.75,34.75,0,0,0-.8,13.454l3.774-.514a31.343,31.343,0,0,0,4,11.565l-3.277,1.925a34.914,34.914,0,0,0,8.932,10.084l.517-.674,1.788-2.356a31,31,0,0,0,11,5.335l-.958,3.694a34.6,34.6,0,0,0,8.152,1.111Z" transform="translate(-114.605 -118.275)" fill="#aae0ff"/>
          <path id="Trazado_116018" data-name="Trazado 116018" d="M143.634,760.126h-.726v.727h.726Zm0-27.428-4.192,7.261h8.384Zm201.152,26.7H143.634v1.451H344.786Zm-200.425.724V739.231h-1.452v20.895Z" transform="translate(-44.702 -145.451)" fill="#707070"/>
          <path id="Trazado_116019" data-name="Trazado 116019" d="M1165.635,760.126h.727v.727h-.727Zm0-27.428,4.191,7.261h-8.382Zm-201.15,26.7h201.15v1.451H964.485Zm200.425.724V739.231h1.452v20.895Z" transform="translate(-208.485 -145.451)" fill="#707070"/>
          <circle id="Elipse_4709" data-name="Elipse 4709" cx="26.599" cy="26.599" r="26.599" transform="translate(66.1 376.535)" fill="#00cca7"/>
          <circle id="Elipse_4710" data-name="Elipse 4710" cx="26.599" cy="26.599" r="26.599" transform="translate(892.315 417.264)" fill="#00cca7"/>
          <circle id="Elipse_4711" data-name="Elipse 4711" cx="26.599" cy="26.599" r="26.599" transform="translate(125.115 157.929)" fill="#00cca7"/>
          <circle id="Elipse_4712" data-name="Elipse 4712" cx="26.599" cy="26.599" r="26.599" transform="translate(849.925 175.384)" fill="#00cca7"/>
          <circle id="Elipse_4713" data-name="Elipse 4713" cx="26.599" cy="26.599" r="26.599" transform="translate(504.143)" fill="#00cca7"/>
          <path id="Trazado_116030" data-name="Trazado 116030" d="M209.489,443.289h-.726v.727h.726Zm0-23.271L205.3,427.28h8.384Zm135.9,22.546h-135.9v1.451h135.9Zm-135.176.724V426.552h-1.452v16.737Z" transform="translate(-57.775 -83.38)" fill="#707070"/>
          <path id="Trazado_116031" data-name="Trazado 116031" d="M1081.716,443.289h.727v.727h-.727Zm0-23.271,4.194,7.261h-8.385Zm-135.9,22.546h135.9v1.451h-135.9Zm135.175.724V426.552h1.452v16.737Z" transform="translate(-204.78 -83.38)" fill="#707070"/>
          <path id="Trazado_116032" data-name="Trazado 116032" d="M680.323,191.86l-4.191,7.261h8.382Zm.727,69.821V198.395H679.6v63.286Z" transform="translate(-151.243 -38.087)" fill="#707070"/>
          <text id="_2" data-name="2" transform="translate(146 190.331)" fill="#12263f" font-size="18" font-family="Roboto-Regular, Roboto"><tspan x="0" y="0">2</tspan></text>
          <text id="_1" data-name="1" transform="translate(87 408.331)" fill="#12263f" font-size="18" font-family="Roboto-Regular, Roboto"><tspan x="0" y="0">1</tspan></text>
          <text id="_3" data-name="3" transform="translate(525 33.331)" fill="#12263f" font-size="18" font-family="Roboto-Regular, Roboto"><tspan x="0" y="0">3</tspan></text>
          <text id="_4" data-name="4" transform="translate(871 209.331)" fill="#12263f" font-size="18" font-family="Roboto-Regular, Roboto"><tspan x="0" y="0">4</tspan></text>
          <text id="_5" data-name="5" transform="translate(913 450.331)" fill="#12263f" font-size="18" font-family="Roboto-Regular, Roboto"><tspan x="0" y="0">5</tspan></text>
          <text id="La_implementación_del_control_de_calidad_se_establece_preferencialmente_en_la_producción_incorporando_procedimientos_de_compras_ventas_y_servicio_al_cliente._También_se_aplica_en_otros_departamentos_internos_como_talento_humano_contabilidad_innovación" data-name="La implementación del control de calidad, se establece preferencialmente en la producción, incorporando procedimientos de compras, ventas y servicio al cliente. También se aplica en otros departamentos internos como talento humano, contabilidad, innovación" transform="translate(0 447.331)" fill="#12263f" font-size="11" font-family="Roboto-Regular, Roboto"><tspan x="0" y="10">La implementación del control de calidad, se </tspan><tspan x="0" y="24">establece preferencialmente en la producción, </tspan><tspan x="0" y="38">incorporando procedimientos de compras, ventas y </tspan><tspan x="0" y="52">servicio al cliente. También se aplica en otros </tspan><tspan x="0" y="66">departamentos internos como talento humano, </tspan><tspan x="0" y="80">contabilidad, innovación, etc., de acuerdo al </tspan><tspan x="0" y="94">tamaño de la empresa.</tspan></text>
          <text id="También_de_acuerdo_al_compromiso_de_la_empresa_se_deben_incluir_controles_ambientales_y_de_salud_y_seguridad_en_el_trabajo_se_dice_debe_porque_algunos_requisitos_son_de_obligatorio_cumplimiento_y_otros_voluntarios." data-name="También de acuerdo al compromiso de la empresa se deben incluir controles ambientales y de salud y seguridad en el trabajo; se dice “debe” porque algunos requisitos son de obligatorio cumplimiento y otros voluntarios." transform="translate(21 227.331)" fill="#12263f" font-size="11" font-family="Roboto-Regular, Roboto"><tspan x="0" y="10">También de acuerdo al compromiso de la empresa </tspan><tspan x="0" y="24">se deben incluir controles ambientales y de salud y </tspan><tspan x="0" y="38">seguridad en el trabajo; se dice “debe” porque </tspan><tspan x="0" y="52">algunos requisitos son de obligatorio cumplimiento </tspan><tspan x="0" y="66">y otros voluntarios.</tspan></text>
          <text id="Por_la_actividad_de_tecnología_se_pueden_incluir_algunas_normas_como_las_del_IPC_Interconnecting_and_Packaging_Electronic_Circuits" data-name="Por la actividad de tecnología se pueden incluir algunas normas como las del IPC Interconnecting and Packaging Electronic Circuits" transform="translate(768 249.331)" fill="#12263f" font-size="11" font-family="Roboto-Regular, Roboto"><tspan x="0" y="10">Por la actividad de tecnología se pueden </tspan><tspan x="0" y="24">incluir algunas normas como las del IPC </tspan><tspan x="0" y="38">Interconnecting and Packaging Electronic </tspan><tspan x="0" y="52">Circuits</tspan></text>
          <text id="Otras_normas_que_se_requieren_implantar_en_la_empresa_son_las_RAEE_también_de_cumplimiento_y_por_el_cuidado_con_el_medio_ambiente." data-name="Otras normas que se requieren implantar en la empresa son las RAEE, también de cumplimiento y por el cuidado con el medio ambiente." transform="translate(411 72.331)" fill="#12263f" font-size="11" font-family="Roboto-Regular, Roboto"><tspan x="0" y="10">Otras normas que se requieren implantar en la </tspan><tspan x="0" y="24">empresa son las RAEE, también de cumplimiento y </tspan><tspan x="0" y="38">por el cuidado con el medio ambiente.</tspan></text>
          <text id="En_Colombia_existen_las_normas_técnicas_colombianas_NTC_creadas_por_el_ICONTEC_en_España_las_normas_técnicas_son_creadas_por_el_AENOR._" data-name="En Colombia, existen las normas técnicas colombianas NTC, creadas por el ICONTEC; en España, las normas técnicas son creadas por el AENOR. " transform="translate(810 499.331)" fill="#12263f" font-size="11" font-family="Roboto-Regular, Roboto"><tspan x="0" y="10">En Colombia, existen las normas técnicas </tspan><tspan x="0" y="24">colombianas NTC, creadas por el ICONTEC; </tspan><tspan x="0" y="38">en España, las normas técnicas son creadas </tspan><tspan x="0" y="52">por el AENOR. </tspan></text>
        </g>
      </g>
    </g>
  </g>
</svg>
