<svg xmlns="http://www.w3.org/2000/svg" xmlns:xlink="http://www.w3.org/1999/xlink" width="1075.375" height="747.703" viewBox="0 0 1075.375 747.703">
  <defs>
    <radialGradient id="radial-gradient" cx="-0.503" cy="0.891" r="1.076" gradientTransform="translate(-1.11 -40.034) rotate(180) scale(0.466 0.461)" gradientUnits="objectBoundingBox">
      <stop offset="0.19" stop-color="#afb6e5"/>
      <stop offset="1" stop-color="#fff"/>
    </radialGradient>
  </defs>
  <g id="Grupo_1013328" data-name="Grupo 1013328" transform="translate(-283.089 -1360.836)">
    <g id="Group_23" data-name="Group 23" transform="translate(283 1443.985)">
      <path id="Trazado_116033" data-name="Trazado 116033" d="M109.893,1253.97H41.661v20.159c0,10.979,15.278,19.87,34.121,19.87s34.121-8.891,34.121-19.87V1253.97Z" transform="translate(-20.265 -640.361)" fill="#0d316a"/>
      <path id="Trazado_116034" data-name="Trazado 116034" d="M109.709,1240.64H40.224v23.577c0,11.175,15.559,20.237,34.737,20.237s34.737-9.052,34.737-20.227v-23.572Z" transform="translate(-19.531 -633.55)" fill="#1c468a"/>
      <path id="Trazado_116035" data-name="Trazado 116035" d="M74.961,1240.024c19.185,0,34.737-9.057,34.737-20.227s-15.552-20.227-34.737-20.227-34.737,9.057-34.737,20.227S55.776,1240.024,74.961,1240.024Z" transform="translate(-19.531 -612.565)" fill="#fff"/>
      <path id="Trazado_116036" data-name="Trazado 116036" d="M74.961,1261.38c-18.973,0-34.391-8.872-34.726-19.87,0,.118-.011.235-.011.357,0,11.17,15.559,20.222,34.737,20.222s34.737-9.052,34.737-20.222c0-.122-.011-.24-.011-.357C109.353,1252.518,93.945,1261.38,74.961,1261.38Z" transform="translate(-19.531 -633.994)" fill="#fff"/>
      <path id="Trazado_116037" data-name="Trazado 116037" d="M86.713,1241.927c12.973,0,23.49-6.123,23.49-13.679s-10.517-13.679-23.49-13.679-23.49,6.128-23.49,13.679S73.74,1241.927,86.713,1241.927Z" transform="translate(-31.282 -620.229)" fill="#fff"/>
      <path id="Trazado_116038" data-name="Trazado 116038" d="M83.654,1241.856c14.59,0,26.418-6.891,26.418-15.391s-11.828-15.385-26.418-15.385-26.417,6.891-26.417,15.385S69.064,1241.856,83.654,1241.856Z" transform="translate(-28.223 -618.446)" fill="#c9e7ff"/>
      <g id="Grupo_81520" data-name="Grupo 81520" transform="translate(29.013 592.624)">
        <path id="Trazado_116039" data-name="Trazado 116039" d="M83.654,1212.747c14.1,0,25.6,6.441,26.342,14.544.021-.284.076-.552.076-.846,0-8.49-11.832-15.385-26.418-15.385s-26.417,6.881-26.417,15.385a7.455,7.455,0,0,0,.076.846C58.068,1219.188,69.554,1212.747,83.654,1212.747Z" transform="translate(-57.236 -1211.06)" fill="#b3ddff"/>
      </g>
      <path id="Trazado_116040" data-name="Trazado 116040" d="M96.842,1251.444c12.991,0,23.522-4.91,23.522-10.969s-10.531-10.964-23.522-10.964-23.522,4.91-23.522,10.964S83.851,1251.444,96.842,1251.444Z" transform="translate(-36.441 -627.863)" fill="url(#radial-gradient)"/>
      <g id="Grupo_81521" data-name="Grupo 81521" transform="translate(75.533 620.826)" opacity="0.5">
        <path id="Trazado_116041" data-name="Trazado 116041" d="M152.471,1270.033c-.259.152-.032,6.407.259,12.7s.67,12.6.67,12.857a1.692,1.692,0,0,0,.951,1.413l3.306,1.849.756.421s4.041,2.249,4.063,2.249a3.356,3.356,0,0,0,1.588.411h.087a2.829,2.829,0,0,0,1.383-.337l1.383-.9a1.468,1.468,0,0,0,.789-1.252,1.706,1.706,0,0,0-.929-1.428c0-.01-6.126-4.6-6.148-4.612l-.432-.328a3.408,3.408,0,0,0-1.664-.421c-.162,0-.518-2.386-.907-5.639-.238-1.946-.508-4.191-.767-6.431-.367-3.164-.745-6.318-1.026-8.578a16.034,16.034,0,0,0-.54-3.282l-2.831,1.306Z" transform="translate(-152.358 -1268.726)" fill="#abb2e2" opacity="0.05"/>
        <path id="Trazado_116042" data-name="Trazado 116042" d="M153.461,1273.026c-.26.151-.054,6.1.227,12.089s.648,11.992.659,12.251a1.674,1.674,0,0,0,.908,1.35l3.2,1.785s.724.4.724.411c.043.02,3.89,2.152,3.944,2.137a3.388,3.388,0,0,0,1.534.381h.076a2.718,2.718,0,0,0,1.329-.338l1.34-.866a1.43,1.43,0,0,0,.767-1.2,1.609,1.609,0,0,0-.875-1.359c.011-.035-5.813-4.411-5.867-4.431l-.41-.3a3.258,3.258,0,0,0-1.6-.411,29.192,29.192,0,0,1-.908-5.38c-.227-1.858-.508-4-.778-6.128-.378-3.012-.756-6.006-1.037-8.133a14.677,14.677,0,0,0-.54-3.115l-2.7,1.257Z" transform="translate(-152.86 -1270.281)" fill="#a7addf" opacity="0.1"/>
        <path id="Trazado_116043" data-name="Trazado 116043" d="M154.451,1276.022c-.259.147-.065,5.8.195,11.483s.626,11.375.648,11.634a1.644,1.644,0,0,0,.865,1.286l3.09,1.721s.692.386.7.386c.065.034,3.75,2.054,3.814,2.034a3.372,3.372,0,0,0,1.48.352h.076a2.684,2.684,0,0,0,1.286-.323l1.3-.831a1.378,1.378,0,0,0,.735-1.145,1.521,1.521,0,0,0-.822-1.3c.022-.044-5.51-4.216-5.586-4.25l-.389-.289a3.1,3.1,0,0,0-1.523-.4,25.358,25.358,0,0,1-.9-5.12c-.227-1.76-.519-3.8-.789-5.824-.378-2.851-.778-5.683-1.048-7.693a12.878,12.878,0,0,0-.54-2.929l-2.582,1.2Z" transform="translate(-153.365 -1271.838)" fill="#a3a9dc" opacity="0.14"/>
        <path id="Trazado_116044" data-name="Trazado 116044" d="M155.439,1279.049c-.259.152-.087,5.5.162,10.881s.6,10.774.638,11.033a1.587,1.587,0,0,0,.821,1.222l2.971,1.653s.659.367.681.377c.087.034,3.6,1.947,3.684,1.932a3.4,3.4,0,0,0,1.426.328h.076a2.752,2.752,0,0,0,1.232-.313l1.253-.8a1.3,1.3,0,0,0,.7-1.091,1.456,1.456,0,0,0-.767-1.242c.022-.054-5.208-4.01-5.305-4.064l-.367-.269a3.089,3.089,0,0,0-1.448-.377,24.175,24.175,0,0,1-.9-4.851c-.227-1.677-.53-3.6-.8-5.512-.389-2.7-.8-5.37-1.059-7.262a11.641,11.641,0,0,0-.53-2.753l-2.463,1.144Z" transform="translate(-153.866 -1273.433)" fill="#9fa4d8" opacity="0.19"/>
        <path id="Trazado_116045" data-name="Trazado 116045" d="M156.425,1282c-.259.151-.108,5.2.13,10.275s.595,10.167.627,10.417a1.522,1.522,0,0,0,.778,1.145l2.863,1.589s.627.357.648.357c.108.044,3.447,1.849,3.555,1.824a3.477,3.477,0,0,0,1.372.294h.065a2.637,2.637,0,0,0,1.188-.313l1.21-.768a1.229,1.229,0,0,0,.67-1.037,1.378,1.378,0,0,0-.714-1.178c.033-.073-4.905-3.815-5.013-3.878l-.346-.259a2.97,2.97,0,0,0-1.383-.367,22.6,22.6,0,0,1-.886-4.592c-.216-1.589-.53-3.4-.81-5.208-.389-2.538-.822-5.047-1.081-6.817a11.075,11.075,0,0,0-.529-2.582l-2.345,1.091Z" transform="translate(-154.367 -1274.945)" fill="#9ba0d5" opacity="0.24"/>
        <path id="Trazado_116046" data-name="Trazado 116046" d="M157.411,1285.015c-.259.152-.13,4.9.1,9.669s.573,9.551.616,9.81a1.476,1.476,0,0,0,.745,1.081l2.755,1.526s.6.333.626.347c.14.054,3.3,1.751,3.436,1.716a3.5,3.5,0,0,0,1.318.259h.065a2.535,2.535,0,0,0,1.135-.3l1.167-.734a1.2,1.2,0,0,0,.648-.973,1.3,1.3,0,0,0-.659-1.125c.032-.083-4.6-3.619-4.733-3.692l-.335-.25a2.806,2.806,0,0,0-1.307-.347,20.531,20.531,0,0,1-.886-4.333c-.216-1.5-.54-3.208-.821-4.905-.4-2.387-.843-4.734-1.092-6.372a8.724,8.724,0,0,0-.529-2.4l-2.226,1.037Z" transform="translate(-154.867 -1276.524)" fill="#979bd2" opacity="0.29"/>
        <path id="Trazado_116047" data-name="Trazado 116047" d="M158.4,1288.023c-.259.152-.14,4.593.065,9.067s.551,8.945.605,9.194a1.419,1.419,0,0,0,.7,1.013l2.647,1.462s.572.323.6.333c.162.063,3.144,1.653,3.306,1.609a3.678,3.678,0,0,0,1.264.24h.065a2.423,2.423,0,0,0,1.08-.3l1.113-.7a1.135,1.135,0,0,0,.616-.915,1.219,1.219,0,0,0-.6-1.061c.043-.108-4.3-3.424-4.452-3.512l-.313-.225a2.619,2.619,0,0,0-1.243-.338,18.247,18.247,0,0,1-.875-4.064c-.216-1.413-.54-3.012-.832-4.587-.4-2.24-.853-4.411-1.1-5.947a8.508,8.508,0,0,0-.519-2.225l-2.107.983Z" transform="translate(-155.37 -1278.093)" fill="#9397cf" opacity="0.33"/>
        <path id="Trazado_116048" data-name="Trazado 116048" d="M159.386,1291.008c-.259.152-.162,4.289.033,8.461s.486,8.348.594,8.588a1.171,1.171,0,0,0,.659.949l2.528,1.384s.54.3.573.313c.184.078,2.993,1.545,3.177,1.516a3.7,3.7,0,0,0,1.21.205h.054a2.449,2.449,0,0,0,1.037-.293l1.07-.67a1.082,1.082,0,0,0,.583-.866,1.12,1.12,0,0,0-.562-.993c.054-.117-4-3.233-4.171-3.326l-.292-.22a2.631,2.631,0,0,0-1.167-.323,17.158,17.158,0,0,1-.875-3.8c-.205-1.325-.551-2.817-.843-4.289-.41-2.074-.875-4.084-1.113-5.5a7.186,7.186,0,0,0-.519-2.054l-1.977.929Z" transform="translate(-155.868 -1279.641)" fill="#8f92cc" opacity="0.38"/>
        <path id="Trazado_116049" data-name="Trazado 116049" d="M160.365,1294.025c-.27.151-.184,3.986,0,7.854s.454,7.737.573,7.972a1.131,1.131,0,0,0,.616.885l2.42,1.321s.519.279.551.3a32.546,32.546,0,0,0,3.047,1.4,3.508,3.508,0,0,0,1.156.171h.054a2.362,2.362,0,0,0,.983-.279l1.027-.636a1.069,1.069,0,0,0,.562-.812,1.043,1.043,0,0,0-.508-.939,47.464,47.464,0,0,0-3.889-3.145l-.27-.2a2.477,2.477,0,0,0-1.1-.3,15.076,15.076,0,0,1-.864-3.546c-.205-1.242-.562-2.621-.854-3.976-.41-1.922-.9-3.77-1.124-5.057a5.582,5.582,0,0,0-.518-1.868l-1.858.875Z" transform="translate(-156.361 -1281.22)" fill="#8b8ec9" opacity="0.43"/>
        <path id="Trazado_116050" data-name="Trazado 116050" d="M161.352,1296.981c-.27.152-.194,3.688-.032,7.253a73.522,73.522,0,0,0,.562,7.37,1.033,1.033,0,0,0,.573.807l2.312,1.257s.486.269.529.288a24.658,24.658,0,0,0,2.928,1.3,3.771,3.771,0,0,0,1.091.142h.043a2.407,2.407,0,0,0,.94-.279l.983-.606a1.012,1.012,0,0,0,.53-.758.958.958,0,0,0-.454-.875,36.867,36.867,0,0,0-3.609-2.959l-.259-.186a2.346,2.346,0,0,0-1.027-.289,13.959,13.959,0,0,1-.864-3.286c-.195-1.154-.573-2.421-.865-3.673-.421-1.76-.918-3.448-1.145-4.626a5.126,5.126,0,0,0-.508-1.7l-1.74.822Z" transform="translate(-156.862 -1282.743)" fill="#8789c6" opacity="0.48"/>
        <path id="Trazado_116051" data-name="Trazado 116051" d="M162.311,1299.992c-.27.151-.216,3.394-.065,6.646a58.049,58.049,0,0,0,.551,6.754.967.967,0,0,0,.54.743l2.2,1.188.5.274a24.509,24.509,0,0,0,2.8,1.2,4.752,4.752,0,0,0,1.037.118h.043a2.3,2.3,0,0,0,.886-.269l.94-.572a.953.953,0,0,0,.5-.7.893.893,0,0,0-.4-.822,29.941,29.941,0,0,0-3.327-2.778l-.238-.171a2.186,2.186,0,0,0-.962-.269,11.624,11.624,0,0,1-.853-3.018c-.195-1.066-.573-2.225-.875-3.37-.421-1.609-.929-3.135-1.156-4.181a3.9,3.9,0,0,0-.508-1.521l-1.621.753Z" transform="translate(-157.346 -1284.317)" fill="#8385c2" opacity="0.52"/>
        <path id="Trazado_116052" data-name="Trazado 116052" d="M163.291,1302.984c-.27.152-.238,3.091-.1,6.03a43.278,43.278,0,0,0,.54,6.138.921.921,0,0,0,.5.679l2.085,1.125s.422.235.475.259a18.554,18.554,0,0,0,2.669,1.091,4.918,4.918,0,0,0,.983.088h.043a2.339,2.339,0,0,0,.843-.274l.9-.538a.877.877,0,0,0,.465-.651.813.813,0,0,0-.346-.753,22.011,22.011,0,0,0-3.047-2.6l-.216-.147a2.171,2.171,0,0,0-.886-.264,10.321,10.321,0,0,1-.853-2.754c-.195-.983-.583-2.029-.886-3.056-.432-1.448-.951-2.812-1.167-3.741a3.111,3.111,0,0,0-.508-1.34l-1.5.7Z" transform="translate(-157.84 -1285.87)" fill="#7f80bf" opacity="0.57"/>
        <path id="Trazado_116053" data-name="Trazado 116053" d="M164.276,1305.969c-.27.152-.248,2.788-.13,5.424a32.344,32.344,0,0,0,.529,5.531.818.818,0,0,0,.454.616l1.977,1.061s.4.215.454.235a13.908,13.908,0,0,0,2.539.983,5.743,5.743,0,0,0,.929.054h.032a2.3,2.3,0,0,0,.789-.259l.843-.509a.846.846,0,0,0,.443-.592.72.72,0,0,0-.291-.689,16.827,16.827,0,0,0-2.766-2.411l-.195-.142a2.023,2.023,0,0,0-.81-.235,9.339,9.339,0,0,1-.843-2.5,24.177,24.177,0,0,0-.9-2.754c-.443-1.3-.972-2.484-1.178-3.306a2.658,2.658,0,0,0-.5-1.169l-1.383.65Z" transform="translate(-158.338 -1287.418)" fill="#7b7cbc" opacity="0.62"/>
        <path id="Trazado_116054" data-name="Trazado 116054" d="M165.253,1308.976c-.27.152-.27,2.484-.162,4.817a24.487,24.487,0,0,0,.519,4.915.756.756,0,0,0,.41.553l1.87.993s.367.205.421.229a12.122,12.122,0,0,0,2.42.885,7.388,7.388,0,0,0,.875.029h.032a2.471,2.471,0,0,0,.745-.245l.8-.479a.771.771,0,0,0,.411-.538.669.669,0,0,0-.238-.636,12.693,12.693,0,0,0-2.485-2.225l-.173-.132a1.929,1.929,0,0,0-.746-.225,8.273,8.273,0,0,1-.843-2.23,18.957,18.957,0,0,0-.908-2.45c-.443-1.135-.983-2.161-1.188-2.861a2.061,2.061,0,0,0-.5-1Z" transform="translate(-158.829 -1288.987)" fill="#7777b9" opacity="0.67"/>
        <path id="Trazado_116055" data-name="Trazado 116055" d="M166.229,1311.982c-.27.152-.291,2.181-.194,4.211a17.726,17.726,0,0,0,.508,4.313.713.713,0,0,0,.367.474l1.761.929c.054.034.335.186.4.215a9.662,9.662,0,0,0,2.291.778c.259.054.551-.044.821,0h.022a2.291,2.291,0,0,0,.691-.25l.756-.44a.724.724,0,0,0,.379-.489.6.6,0,0,0-.184-.572c.1-.225-1.869-1.858-2.2-2.039l-.162-.108a1.788,1.788,0,0,0-.67-.22,6.7,6.7,0,0,1-.832-1.966,14.3,14.3,0,0,0-.918-2.137,26.582,26.582,0,0,0-1.21-2.421c-.075-.606-.465-.831-.5-.812l-1.135.543Z" transform="translate(-159.319 -1290.555)" fill="#7373b6" opacity="0.71"/>
        <path id="Trazado_116056" data-name="Trazado 116056" d="M167.207,1314.933c-.27.152-.3,1.883-.227,3.609a12.341,12.341,0,0,0,.5,3.7.66.66,0,0,0,.324.411l1.653.861c.065.034.313.176.378.2a7.792,7.792,0,0,0,2.161.67c.248.034.508-.063.767-.029h.022a2.376,2.376,0,0,0,.638-.24l.713-.411a.725.725,0,0,0,.357-.43.521.521,0,0,0-.13-.509c.1-.24-1.567-1.653-1.923-1.858l-.14-.1a1.928,1.928,0,0,0-.6-.2,5.786,5.786,0,0,1-.832-1.707,9.661,9.661,0,0,0-.929-1.839,18.356,18.356,0,0,0-1.221-1.985.7.7,0,0,0-.486-.636l-1.016.484Z" transform="translate(-159.811 -1292.083)" fill="#6f6eb3" opacity="0.76"/>
        <path id="Trazado_116057" data-name="Trazado 116057" d="M168.179,1317.939c-.27.152-.324,1.58-.26,3a8.972,8.972,0,0,0,.475,3.091.56.56,0,0,0,.292.347l1.534.8c.065.034.281.152.357.186a6.7,6.7,0,0,0,2.032.572c.238.02.475-.1.713-.063h.021a2.577,2.577,0,0,0,.594-.23l.67-.377a.681.681,0,0,0,.324-.376.487.487,0,0,0-.076-.455c.108-.249-1.264-1.457-1.642-1.677l-.119-.073a1.824,1.824,0,0,0-.53-.186,3.036,3.036,0,0,1-.821-1.447c-.281-.519-.616-1.047-.94-1.531a9.4,9.4,0,0,0-1.231-1.546.536.536,0,0,0-.487-.465l-.9.43Z" transform="translate(-160.296 -1293.651)" fill="#6b6ab0" opacity="0.81"/>
        <path id="Trazado_116058" data-name="Trazado 116058" d="M169.148,1320.964c-.27.152-.346,1.276-.292,2.4a5.617,5.617,0,0,0,.465,2.475.529.529,0,0,0,.248.284l1.427.733a2.422,2.422,0,0,0,.324.171,5.266,5.266,0,0,0,1.912.465c.227,0,.443-.127.659-.083h.011a2.878,2.878,0,0,0,.54-.23l.627-.342a.645.645,0,0,0,.291-.327.435.435,0,0,0-.022-.386c.108-.269-.961-1.267-1.362-1.492l-.1-.064a1.688,1.688,0,0,0-.465-.166,2.643,2.643,0,0,1-.821-1.174,9.481,9.481,0,0,0-.951-1.222,5.414,5.414,0,0,0-1.242-1.1c-.033-.3-.465-.293-.476-.283l-.778.381Z" transform="translate(-160.779 -1295.238)" fill="#6765ac" opacity="0.86"/>
        <path id="Trazado_116059" data-name="Trazado 116059" d="M170.115,1323.889c-.27.152-.367.973-.324,1.795a3.359,3.359,0,0,0,.454,1.868.558.558,0,0,0,.205.215l1.318.67c.076.044.227.118.3.152a4.468,4.468,0,0,0,1.783.357,1.63,1.63,0,0,0,.605-.122s.454-.191.5-.215l.573-.313a.7.7,0,0,0,.27-.269.463.463,0,0,0,.033-.337c.119-.279-.659-1.066-1.081-1.316l-.087-.054a2.923,2.923,0,0,0-.389-.152c-.022,0-.778-.6-.821-.919a5.853,5.853,0,0,0-.961-.919,3.321,3.321,0,0,0-1.253-.67c-.022-.205-.465-.117-.475-.108l-.659.328Z" transform="translate(-161.26 -1296.725)" fill="#6361a9" opacity="0.9"/>
        <path id="Trazado_116060" data-name="Trazado 116060" d="M171.083,1326.814c-.27.152-.378.67-.357,1.189a2.058,2.058,0,0,0,.443,1.252.723.723,0,0,0,.162.142l1.21.6a2.4,2.4,0,0,0,.281.142,3.5,3.5,0,0,0,1.653.259,1.618,1.618,0,0,0,.54-.152l.443-.215.53-.279a.853.853,0,0,0,.238-.205.457.457,0,0,0,.086-.274c.119-.288-.357-.876-.8-1.135l-.065-.029s-.292-.142-.313-.142c0,0-.789-.5-.81-.66a3.534,3.534,0,0,0-.972-.616,2.2,2.2,0,0,0-1.275-.225c-.011-.1-.465.063-.475.063l-.54.269Z" transform="translate(-161.742 -1298.213)" fill="#5f5ca6" opacity="0.95"/>
        <path id="Trazado_116061" data-name="Trazado 116061" d="M175.564,1331.379l.886-.455c.584-.333.508-.915-.162-1.306l-1.091-.538a2.507,2.507,0,0,0-2.269-.1l-.886.45c-.583.337-.508.919.162,1.31l1.091.538A2.507,2.507,0,0,0,175.564,1331.379Z" transform="translate(-162.214 -1299.398)" fill="#5b58a3"/>
      </g>
      <g id="Grupo_81522" data-name="Grupo 81522" transform="translate(57.017 628.279)" opacity="0.5">
        <path id="Trazado_116062" data-name="Trazado 116062" d="M114.651,1285.342c-.281.161-.13,7.042.087,13.948s.518,13.85.529,14.134a1.83,1.83,0,0,0,1.016,1.521l3.555,1.99s.8.45.81.45,4.343,2.411,4.365,2.411a3.6,3.6,0,0,0,1.707.445h.087a2.947,2.947,0,0,0,1.48-.367l1.491-.963a1.587,1.587,0,0,0,.853-1.34,1.812,1.812,0,0,0-1-1.526c0-.01-6.71-5.042-6.731-5.057l-.324-.235a3.622,3.622,0,0,0-1.783-.455c-.184,0-.53-2.744-.908-6.441-.216-2.084-.465-4.46-.692-6.837-.346-3.5-.691-6.979-.961-9.468a17.433,17.433,0,0,0-.53-3.585l-3.036,1.4Z" transform="translate(-114.498 -1283.966)" fill="#abb2e2" opacity="0.05"/>
        <path id="Trazado_116063" data-name="Trazado 116063" d="M115.659,1288.579c-.281.161-.151,6.709.065,13.278s.508,13.185.53,13.454a1.8,1.8,0,0,0,.972,1.448l3.436,1.912s.767.43.778.43c.044.024,4.181,2.313,4.236,2.3a3.623,3.623,0,0,0,1.653.411h.087a2.974,2.974,0,0,0,1.426-.357l1.437-.929a1.527,1.527,0,0,0,.821-1.286,1.716,1.716,0,0,0-.94-1.457c.011-.034-6.375-4.832-6.418-4.851l-.313-.225a3.434,3.434,0,0,0-1.707-.445c-.173,0-.54-2.636-.908-6.147-.216-1.99-.475-4.26-.713-6.515-.357-3.33-.724-6.626-.983-8.979a17.15,17.15,0,0,0-.529-3.4l-2.906,1.35Z" transform="translate(-115.009 -1285.627)" fill="#a7addf" opacity="0.1"/>
        <path id="Trazado_116064" data-name="Trazado 116064" d="M116.692,1291.845c-.281.166-.162,6.377.032,12.622s.5,12.51.518,12.784a1.724,1.724,0,0,0,.929,1.369l3.317,1.849s.746.411.757.421c.075.034,4.019,2.205,4.095,2.181a3.527,3.527,0,0,0,1.588.381h.086a2.9,2.9,0,0,0,1.372-.347l1.394-.895a1.46,1.46,0,0,0,.789-1.232,1.645,1.645,0,0,0-.886-1.394c.022-.044-6.04-4.617-6.116-4.656l-.292-.22a3.423,3.423,0,0,0-1.631-.421c-.162,0-.54-2.519-.908-5.844-.2-1.893-.475-4.04-.735-6.191-.367-3.154-.746-6.28-1.005-8.495a14.3,14.3,0,0,0-.529-3.208l-2.777,1.286Z" transform="translate(-115.534 -1287.329)" fill="#a3a9dc" opacity="0.14"/>
        <path id="Trazado_116065" data-name="Trazado 116065" d="M117.7,1295.141c-.281.161-.173,6.04,0,11.952s.486,11.84.519,12.109a1.689,1.689,0,0,0,.886,1.311l3.2,1.771s.713.4.724.4c.1.039,3.857,2.093,3.954,2.074a3.717,3.717,0,0,0,1.534.342h.076a2.753,2.753,0,0,0,1.329-.342l1.35-.856a1.4,1.4,0,0,0,.757-1.164,1.541,1.541,0,0,0-.832-1.33c.032-.063-5.705-4.4-5.8-4.45l-.281-.205a3.261,3.261,0,0,0-1.556-.411,28.669,28.669,0,0,1-.908-5.546c-.205-1.79-.486-3.834-.746-5.864-.367-2.983-.778-5.922-1.027-8.006a12.4,12.4,0,0,0-.529-3.017Z" transform="translate(-116.047 -1289.045)" fill="#9fa4d8" opacity="0.19"/>
        <path id="Trazado_116066" data-name="Trazado 116066" d="M118.731,1298.448c-.281.161-.195,5.712-.011,11.277s.475,11.175.518,11.444a1.633,1.633,0,0,0,.843,1.232l3.079,1.707s.681.376.7.386c.119.054,3.7,1.99,3.825,1.956a3.629,3.629,0,0,0,1.47.313h.076a2.86,2.86,0,0,0,1.275-.332l1.3-.822a1.342,1.342,0,0,0,.724-1.115,1.461,1.461,0,0,0-.767-1.262c.033-.078-5.381-4.181-5.5-4.245l-.259-.2a3.062,3.062,0,0,0-1.48-.391,25.974,25.974,0,0,1-.908-5.238c-.205-1.707-.5-3.634-.767-5.531-.378-2.812-.8-5.58-1.048-7.522a11.453,11.453,0,0,0-.529-2.822l-2.518,1.169Z" transform="translate(-116.568 -1290.772)" fill="#9ba0d5" opacity="0.24"/>
        <path id="Trazado_116067" data-name="Trazado 116067" d="M119.74,1301.694c-.281.161-.205,5.379-.044,10.622s.465,10.5.519,10.769a1.584,1.584,0,0,0,.8,1.159l2.96,1.629s.648.357.67.372c.14.063,3.544,1.878,3.684,1.844a3.834,3.834,0,0,0,1.415.284h.065a2.689,2.689,0,0,0,1.221-.328l1.253-.787a1.3,1.3,0,0,0,.692-1.047,1.363,1.363,0,0,0-.713-1.2c.043-.1-5.046-3.966-5.186-4.054l-.248-.181a3.013,3.013,0,0,0-1.4-.382,24.52,24.52,0,0,1-.908-4.949c-.205-1.609-.508-3.414-.778-5.208-.389-2.636-.832-5.218-1.07-7.032a10.23,10.23,0,0,0-.519-2.626l-2.388,1.115Z" transform="translate(-117.08 -1292.454)" fill="#979bd2" opacity="0.29"/>
        <path id="Trazado_116068" data-name="Trazado 116068" d="M120.767,1304.985c-.281.166-.227,5.047-.065,9.952s.454,9.825.508,10.1a1.532,1.532,0,0,0,.745,1.09l2.842,1.565s.616.347.648.357c.173.069,3.382,1.775,3.555,1.741a3.682,3.682,0,0,0,1.351.249h.065a2.683,2.683,0,0,0,1.167-.323l1.2-.758a1.231,1.231,0,0,0,.659-.993,1.272,1.272,0,0,0-.659-1.135c.043-.107-4.711-3.751-4.873-3.849l-.227-.171a2.9,2.9,0,0,0-1.329-.357,21.294,21.294,0,0,1-.908-4.646c-.194-1.511-.518-3.208-.8-4.885-.4-2.46-.853-4.871-1.091-6.558a8.678,8.678,0,0,0-.519-2.431l-2.258,1.047Z" transform="translate(-117.6 -1294.17)" fill="#9397cf" opacity="0.33"/>
        <path id="Trazado_116069" data-name="Trazado 116069" d="M121.776,1308.246c-.281.162-.238,4.71-.086,9.292s.389,9.175.508,9.424a1.251,1.251,0,0,0,.7,1.012l2.723,1.492s.583.323.616.338c.195.073,3.22,1.663,3.414,1.619a3.863,3.863,0,0,0,1.3.215h.065a2.574,2.574,0,0,0,1.113-.313l1.156-.724a1.17,1.17,0,0,0,.626-.929,1.228,1.228,0,0,0-.594-1.071c.054-.127-4.376-3.531-4.57-3.639l-.216-.161a2.668,2.668,0,0,0-1.253-.347,19.228,19.228,0,0,1-.908-4.343c-.195-1.428-.54-3-.81-4.558-.41-2.294-.886-4.519-1.113-6.074a8.057,8.057,0,0,0-.518-2.25l-2.128,1Z" transform="translate(-118.112 -1295.852)" fill="#8f92cc" opacity="0.38"/>
        <path id="Trazado_116070" data-name="Trazado 116070" d="M122.782,1311.553c-.281.161-.248,4.387-.119,8.622s.379,8.5.508,8.749a1.235,1.235,0,0,0,.659.954l2.6,1.413s.551.3.594.323c.216.088,3.058,1.555,3.274,1.516a3.757,3.757,0,0,0,1.232.181h.054a2.656,2.656,0,0,0,1.059-.3l1.1-.68a1.1,1.1,0,0,0,.594-.875,1.123,1.123,0,0,0-.54-1,53.114,53.114,0,0,0-4.257-3.448l-.195-.152a2.68,2.68,0,0,0-1.178-.323,17.141,17.141,0,0,1-.908-4.044c-.195-1.325-.551-2.788-.832-4.235-.422-2.117-.908-4.157-1.135-5.585a6.616,6.616,0,0,0-.518-2.054l-2,.929Z" transform="translate(-118.621 -1297.579)" fill="#8b8ec9" opacity="0.43"/>
        <path id="Trazado_116071" data-name="Trazado 116071" d="M123.808,1314.8c-.281.161-.27,4.049-.14,7.952s.357,7.835.5,8.084a1.132,1.132,0,0,0,.616.875l2.485,1.35s.518.289.562.3a28.511,28.511,0,0,0,3.144,1.394,4.351,4.351,0,0,0,1.178.152h.054a2.53,2.53,0,0,0,1-.3l1.059-.651a.992.992,0,0,0,.076-1.751,40.754,40.754,0,0,0-3.954-3.243l-.184-.127a2.516,2.516,0,0,0-1.1-.313,15.937,15.937,0,0,1-.908-3.751c-.195-1.232-.562-2.582-.853-3.912-.432-1.942-.94-3.815-1.156-5.1a5.351,5.351,0,0,0-.519-1.858l-1.869.875Z" transform="translate(-119.138 -1299.264)" fill="#8789c6" opacity="0.48"/>
        <path id="Trazado_116072" data-name="Trazado 116072" d="M124.814,1318.12c-.281.161-.281,3.717-.162,7.292a61.434,61.434,0,0,0,.5,7.409,1.033,1.033,0,0,0,.573.8l2.367,1.276s.486.269.54.288a24.044,24.044,0,0,0,3,1.286,5.475,5.475,0,0,0,1.124.132h.043a2.421,2.421,0,0,0,.951-.293l1-.616a.939.939,0,0,0,.108-1.633,32.592,32.592,0,0,0-3.641-3.032l-.162-.122a2.514,2.514,0,0,0-1.027-.289,14,14,0,0,1-.907-3.448c-.184-1.145-.573-2.377-.865-3.59-.443-1.77-.961-3.458-1.178-4.612a4.258,4.258,0,0,0-.519-1.663l-1.74.822Z" transform="translate(-119.648 -1301.001)" fill="#8385c2" opacity="0.52"/>
        <path id="Trazado_116073" data-name="Trazado 116073" d="M125.84,1321.422c-.281.162-.292,3.384-.195,6.622a47.547,47.547,0,0,0,.5,6.744.978.978,0,0,0,.529.734l2.248,1.213.508.279a20.212,20.212,0,0,0,2.863,1.179,6.693,6.693,0,0,0,1.059.1h.043a2.558,2.558,0,0,0,.9-.284l.961-.582a.974.974,0,0,0,.508-.69.882.882,0,0,0-.368-.812,24.816,24.816,0,0,0-3.327-2.841l-.152-.108a2.285,2.285,0,0,0-.951-.284,12.45,12.45,0,0,1-.908-3.145c-.183-1.047-.583-2.156-.886-3.252-.443-1.594-.984-3.1-1.2-4.137a3.434,3.434,0,0,0-.518-1.467l-1.61.753Z" transform="translate(-120.165 -1302.729)" fill="#7f80bf" opacity="0.57"/>
        <path id="Trazado_116074" data-name="Trazado 116074" d="M126.837,1324.658c-.291.166-.313,3.061-.216,5.957a35.1,35.1,0,0,0,.5,6.069.859.859,0,0,0,.486.66l2.128,1.135s.432.24.486.259a15.774,15.774,0,0,0,2.734,1.061,8.2,8.2,0,0,0,1.005.063h.032a2.365,2.365,0,0,0,.843-.279l.908-.553a.9.9,0,0,0,.475-.641.8.8,0,0,0-.313-.744,19.334,19.334,0,0,0-3.025-2.636l-.13-.1a2.2,2.2,0,0,0-.875-.259,10.416,10.416,0,0,1-.908-2.841,28.249,28.249,0,0,0-.9-2.929c-.454-1.423-1.016-2.744-1.221-3.648-.2-.875-.475-1.3-.518-1.276l-1.48.7Z" transform="translate(-120.665 -1304.4)" fill="#7b7cbc" opacity="0.62"/>
        <path id="Trazado_116075" data-name="Trazado 116075" d="M127.86,1327.975c-.292.161-.324,2.724-.249,5.3a27.555,27.555,0,0,0,.487,5.389.8.8,0,0,0,.443.582l2.01,1.071c.054.034.4.215.454.249a12.89,12.89,0,0,0,2.593.949,6.666,6.666,0,0,0,.94.034h.033a2.748,2.748,0,0,0,.8-.269l.865-.509a.857.857,0,0,0,.443-.572.721.721,0,0,0-.248-.68c.1-.23-2.377-2.24-2.712-2.435L133.6,1337a2.155,2.155,0,0,0-.8-.249,9.262,9.262,0,0,1-.908-2.538,20.774,20.774,0,0,0-.918-2.607c-.465-1.262-1.037-2.387-1.253-3.164-.205-.758-.487-1.1-.519-1.081l-1.351.636Z" transform="translate(-121.18 -1306.137)" fill="#7777b9" opacity="0.67"/>
        <path id="Trazado_116076" data-name="Trazado 116076" d="M128.857,1331.226c-.292.161-.346,2.387-.27,4.622a19.748,19.748,0,0,0,.486,4.724.785.785,0,0,0,.4.518l1.891.993c.065.034.367.205.432.225a10.392,10.392,0,0,0,2.463.831c.281.054.583-.039.886,0h.032a2.651,2.651,0,0,0,.745-.259l.81-.474a.79.79,0,0,0,.411-.518.645.645,0,0,0-.195-.616c.108-.234-2.042-2.02-2.409-2.235l-.1-.078a2.1,2.1,0,0,0-.724-.225,7.643,7.643,0,0,1-.907-2.25,14.393,14.393,0,0,0-.929-2.279c-.475-1.091-.929-2.083-1.275-2.68a1.007,1.007,0,0,0-.519-.9l-1.221.582Z" transform="translate(-121.681 -1307.809)" fill="#7373b6" opacity="0.71"/>
        <path id="Trazado_116077" data-name="Trazado 116077" d="M129.858,1334.508c-.292.161-.357,2.054-.292,3.966a13.63,13.63,0,0,0,.486,4.049.659.659,0,0,0,.356.445l1.772.929c.065.029.335.181.4.215a8.848,8.848,0,0,0,2.323.724c.27.044.551-.073.821-.034h.022a2.305,2.305,0,0,0,.692-.259l.767-.44a.8.8,0,0,0,.378-.465.6.6,0,0,0-.13-.553c.108-.259-1.707-1.8-2.1-2.03l-.087-.063a1.842,1.842,0,0,0-.648-.205,6.6,6.6,0,0,1-.908-1.946,9.035,9.035,0,0,0-.951-1.956,19.361,19.361,0,0,0-1.3-2.2.755.755,0,0,0-.518-.7Z" transform="translate(-122.186 -1309.525)" fill="#6f6eb3" opacity="0.76"/>
        <path id="Trazado_116078" data-name="Trazado 116078" d="M130.876,1337.763c-.291.167-.367,1.731-.324,3.3a9.735,9.735,0,0,0,.475,3.384.609.609,0,0,0,.3.367l1.653.851a3.325,3.325,0,0,0,.378.2,6.755,6.755,0,0,0,2.183.606c.259.02.508-.107.767-.063h.022a2.975,2.975,0,0,0,.638-.249l.713-.411a.767.767,0,0,0,.346-.4.548.548,0,0,0-.076-.484c.119-.269-1.383-1.589-1.783-1.829l-.076-.054a2.026,2.026,0,0,0-.561-.191,3.509,3.509,0,0,1-.908-1.643,16.5,16.5,0,0,0-.973-1.633,11.038,11.038,0,0,0-1.318-1.717.572.572,0,0,0-.519-.509l-.961.465Z" transform="translate(-122.695 -1311.206)" fill="#6b6ab0" opacity="0.81"/>
        <path id="Trazado_116079" data-name="Trazado 116079" d="M131.871,1341.067c-.292.161-.389,1.394-.346,2.626A6.081,6.081,0,0,0,132,1346.4a.584.584,0,0,0,.259.3l1.534.792c.076.039.27.152.346.181a5.687,5.687,0,0,0,2.053.5c.238,0,.475-.142.7-.1h.011a3.317,3.317,0,0,0,.583-.24l.67-.377a.7.7,0,0,0,.313-.347.477.477,0,0,0-.022-.421c.119-.293-1.048-1.369-1.48-1.633l-.054-.039a1.834,1.834,0,0,0-.486-.176,3,3,0,0,1-.908-1.34,10.945,10.945,0,0,0-.983-1.306,5.978,5.978,0,0,0-1.34-1.232c-.032-.333-.5-.323-.508-.313l-.832.4Z" transform="translate(-123.193 -1312.93)" fill="#6765ac" opacity="0.86"/>
        <path id="Trazado_116080" data-name="Trazado 116080" d="M132.891,1344.336c-.292.161-.4,1.057-.368,1.966a3.665,3.665,0,0,0,.476,2.04.493.493,0,0,0,.216.23l1.416.709a3.276,3.276,0,0,0,.324.166,4.536,4.536,0,0,0,1.913.386,1.923,1.923,0,0,0,.649-.127h.011a5.066,5.066,0,0,0,.529-.24l.616-.332a.731.731,0,0,0,.281-.284.469.469,0,0,0,.043-.357c.13-.3-.713-1.164-1.167-1.423l-.043-.034a2.706,2.706,0,0,0-.411-.161c-.022,0-.875-.67-.908-1.051a5.625,5.625,0,0,0-1-.968,3.582,3.582,0,0,0-1.361-.748c-.022-.225-.5-.127-.508-.117Z" transform="translate(-123.705 -1314.62)" fill="#6361a9" opacity="0.9"/>
        <path id="Trazado_116081" data-name="Trazado 116081" d="M133.879,1347.52c-.291.171-.41.724-.4,1.3a2.326,2.326,0,0,0,.465,1.374.612.612,0,0,0,.173.152l1.3.646c.086.044.2.108.291.152a3.651,3.651,0,0,0,1.783.269,1.656,1.656,0,0,0,.583-.161l.475-.225.573-.3a.747.747,0,0,0,.248-.225.53.53,0,0,0,.1-.294c.14-.323-.378-.953-.865-1.222h-.022a3.283,3.283,0,0,0-.335-.161s-.886-.562-.908-.743a3.93,3.93,0,0,0-1.016-.65,2.492,2.492,0,0,0-1.383-.259c-.011-.108-.508.064-.508.078l-.573.289Z" transform="translate(-124.196 -1316.238)" fill="#5f5ca6" opacity="0.95"/>
        <path id="Trazado_116082" data-name="Trazado 116082" d="M138.662,1352.473l.951-.5c.627-.357.551-.993-.173-1.4l-1.178-.572a2.688,2.688,0,0,0-2.442-.1l-.951.5c-.626.357-.551.993.173,1.4l1.178.572A2.686,2.686,0,0,0,138.662,1352.473Z" transform="translate(-124.69 -1317.528)" fill="#5b58a3"/>
      </g>
      <path id="Trazado_116083" data-name="Trazado 116083" d="M124.518,1159.832c3.22.518,12.653,13.366,13.873,16.368s.346,17.234.346,17.234.227-.553-1.113.019c-2.572,1.105-1.977,2.054-1.977,2.054l-3.944-15.19-10.016-9.346S121.288,1159.314,124.518,1159.832Z" transform="translate(-61.146 -592.252)" fill="#99d2ff"/>
      <g id="Grupo_81523" data-name="Grupo 81523" transform="translate(60.525 573.038)">
        <path id="Trazado_116084" data-name="Trazado 116084" d="M121.687,1176.683a31.453,31.453,0,0,1,.346-5.673c4.063,3.252,10.913,11.688,11.939,14.217.8,1.966.886,8.46.843,12.784l-3.112-12-10.016-9.346Z" transform="translate(-121.671 -1171.01)" fill="#b3ddff"/>
      </g>
      <path id="Trazado_116085" data-name="Trazado 116085" d="M126.112,1338.958v3.78c0,1.208,6.31,4.744,7.412,4.842s3.987-1.159,2.518-2.421-4.646-3.991-4.646-5.653-5.294-.548-5.294-.548Z" transform="translate(-63.409 -683.598)" fill="#3651a3"/>
      <g id="Grupo_81524" data-name="Grupo 81524" transform="translate(62.702 655.174)">
        <path id="Trazado_116086" data-name="Trazado 116086" d="M127.149,1338.96c0,.831-.065,2.054-.065,2.7,0,1.213,5.456,4.885,6.569,4.983.648.054,2.2-.714,2.355-1.34l.043.044c1.459,1.262-1.415,2.514-2.517,2.421s-7.412-3.634-7.412-4.842v-3.78s.421-.088,1.026-.176Z" transform="translate(-126.123 -1338.96)" fill="#b3ddff"/>
      </g>
      <path id="Trazado_116087" data-name="Trazado 116087" d="M163.475,1315.56s-.908,3.267-1.394,4.465,4.743,4.128,6.612,4.935,5.078-.861,3.7-1.868-4.365-3.5-4.128-5.272-4.8-2.26-4.8-2.26Z" transform="translate(-81.778 -671.83)" fill="#3651a3"/>
      <g id="Grupo_81525" data-name="Grupo 81525" transform="translate(80.293 643.72)">
        <path id="Trazado_116088" data-name="Trazado 116088" d="M162.113,1320c.475-1.2,1.394-4.465,1.394-4.465s.432.044,1.037.142a29.71,29.71,0,0,0-.9,3.653c-.162,1.315,4.138,3.7,5.856,4.45a3.592,3.592,0,0,0,3.177-.455c.583,1-2.236,2.343-3.944,1.6-1.869-.812-7.1-3.736-6.612-4.939Z" transform="translate(-162.092 -1315.54)" fill="#b3ddff"/>
      </g>
      <path id="Trazado_116089" data-name="Trazado 116089" d="M118.09,1222.78s13.042,5.081,20.615,9.307,9.638,6.48,9.67,9.527c.043,3.824-9.67,29.69-9.67,29.69a4.791,4.791,0,0,1-3.068,0c-3.468-1.252-2.679-2.3-2.679-2.3l4.03-24.756-33.268-11.214L118.1,1222.77Z" transform="translate(-51.974 -624.419)" fill="#ffca00"/>
      <g id="Grupo_81526" data-name="Grupo 81526" transform="translate(57.376 603.427)">
        <path id="Trazado_116090" data-name="Trazado 116090" d="M115.231,1234.319l1.631-1.169,26.644,14.222a3.089,3.089,0,0,1,1.578,3.3l-4.873,25.367c-1.913-.983-1.362-1.727-1.362-1.727l4.03-24.756-26.266-8.857-1.372-6.387Z" transform="translate(-115.231 -1233.15)" fill="#b3ddff"/>
      </g>
      <path id="Trazado_116091" data-name="Trazado 116091" d="M101.209,1225.88s10.394,17.591,11.658,20.907c1.523,4.01-2,34.145-2,34.145a5.561,5.561,0,0,1-3.425,1.091c-2.334.088-3.025-.778-3.025-.778s-2.215-28.492-2.507-30.125-11.075-7.6-14.068-10.231c-5.564-4.881-1.437-18.119-1.437-18.119l14.8,3.1Z" transform="translate(-42.375 -624.419)" fill="#ffca00"/>
      <path id="Trazado_116092" data-name="Trazado 116092" d="M108.517,1161.281c.076,3.531,1.394,28.707,1.394,28.707a17.155,17.155,0,0,1-9.011,5.467c-6.947,1.868-15.407-1.179-15.407-1.179s.205-9.551.259-16.183c.054-6.475-.573-11.194-.162-13.972.227-1.555,3.6-3.619,8.773-5.952S108.431,1157.476,108.517,1161.281Z" transform="translate(-42.638 -590.86)" fill="#99d2ff"/>
      <path id="Trazado_116093" data-name="Trazado 116093" d="M98.771,1162.8c0,2.763,7.067,5.663,7.067,5.663s3.5-2.856,3.5-5.663c0-1.677-2.367-3.037-5.284-3.037S98.771,1161.12,98.771,1162.8Z" transform="translate(-49.445 -592.224)" fill="#fff"/>
      <path id="Trazado_116094" data-name="Trazado 116094" d="M152.53,1225.78s1.124,2.289,1.491,3.086.3,4.465-.8,5.277-3.436-2.162-3.436-2.162l-.443-5.135Z" transform="translate(-75.285 -625.957)" fill="#ffd4c0"/>
      <path id="Trazado_116095" data-name="Trazado 116095" d="M110,1147.936c.173-1.09-1.188-2.225-3.058-2.558s-3.533.289-3.739,1.369c0,0-2.02,7.854-2.02,7.869-.227,1.306,1.415,2.69,3.663,3.086s4.257-.352,4.494-1.663C109.337,1156.03,110,1147.936,110,1147.936Z" transform="translate(-50.665 -584.831)" fill="#ffd4c0"/>
      <g id="Grupo_81527" data-name="Grupo 81527" transform="translate(52.903 560.46)">
        <path id="Trazado_116096" data-name="Trazado 116096" d="M106.441,1150.7a12.534,12.534,0,0,1-.238-4.724,4.084,4.084,0,0,1,3.263-.6c1.869.323,3.23,1.467,3.058,2.558,0,0-.659,8.094-.659,8.1a1.472,1.472,0,0,1-.41.768c-2.42-1.037-4.43-4.02-5-6.1Z" transform="translate(-106.085 -1145.291)" fill="#f1d5be"/>
      </g>
      <path id="Trazado_116097" data-name="Trazado 116097" d="M114.292,1136.068c1.523,3.056-.216,12.823-3.306,12.75s-5.921-3.942-6.624-6.485-.561-7.82,2.183-9.008A5.889,5.889,0,0,1,114.292,1136.068Z" transform="translate(-52.119 -578.45)" fill="#ffd4c0"/>
      <g id="Grupo_81528" data-name="Grupo 81528" transform="translate(42.555 601.593)">
        <path id="Trazado_116098" data-name="Trazado 116098" d="M85.614,1229.4l4.657,2.8c0,9.639,2.842,10.622,8.979,15.332,4.808,3.687,5.478,4.817,5.478,10.514,0,4.646.583,21.23.8,27.2a2.264,2.264,0,0,1-1.113-.587s-2.215-28.492-2.507-30.12-11.075-7.61-14.068-10.231C84.015,1240.937,84.76,1233.645,85.614,1229.4Z" transform="translate(-84.926 -1229.4)" fill="#b3ddff"/>
      </g>
      <path id="Trazado_116099" data-name="Trazado 116099" d="M115.66,1134.242c.562,2.064-1.059,4.02-4.721,3.741a15.078,15.078,0,0,1-5.284-1.125s-.14,2.959-.562,3.022-.7-2.181-1.621-1.824-.184,3.565-.961,4.128-1.081-1.321-1.081-3.565-.5-8.006,4.506-8.363S115.2,1132.545,115.66,1134.242Z" transform="translate(-50.797 -577.132)" fill="#203a8a"/>
      <path id="Trazado_116100" data-name="Trazado 116100" d="M112.173,1244.393l21.988-12.7a.992.992,0,0,0,.583-.831v-1.091c0-.377-.292.279-.832-.034l-12.479-7.2a3.738,3.738,0,0,0-3.382-.142l-21.987,12.7c-.292.161-.5-.543-.573-.313-.022.073,0,1.066-.011,1.144a1.4,1.4,0,0,0,.832,1.125l12.479,7.2A3.739,3.739,0,0,0,112.173,1244.393Z" transform="translate(-47.763 -624.054)" fill="#2d3259"/>
      <path id="Trazado_116101" data-name="Trazado 116101" d="M112.174,1242.207l21.988-12.7c.865-.494.757-1.369-.248-1.956l-12.48-7.2a3.769,3.769,0,0,0-3.382-.142l-21.988,12.7c-.864.5-.756,1.374.249,1.956l12.479,7.208A3.751,3.751,0,0,0,112.174,1242.207Z" transform="translate(-47.764 -622.939)" fill="#2d3259"/>
      <path id="Trazado_116102" data-name="Trazado 116102" d="M111.166,1242.572a2.512,2.512,0,0,0,1.253-.279l21.988-12.7c.14-.073.367-.249.367-.465a1.044,1.044,0,0,0-.6-.724l-12.48-7.208a3.473,3.473,0,0,0-1.7-.421,2.511,2.511,0,0,0-1.253.283l-21.987,12.7c-.14.073-.367.244-.367.465a1.043,1.043,0,0,0,.605.724l12.479,7.2A3.423,3.423,0,0,0,111.166,1242.572Z" transform="translate(-48.226 -623.402)" fill="#6bf"/>
      <path id="Trazado_116103" data-name="Trazado 116103" d="M118.573,1243.521l17.849-10.309c.356-.205.313-.562-.1-.807l-6.7-3.869a1.547,1.547,0,0,0-1.394-.054l-17.849,10.3c-.357.206-.313.562.1.812l6.7,3.869A1.547,1.547,0,0,0,118.573,1243.521Z" transform="translate(-55.255 -627.266)" fill="#9ed4ff"/>
      <path id="Trazado_116104" data-name="Trazado 116104" d="M130.244,1229.595a.592.592,0,0,0-.529,0l-1.145.66c-.14.088-.152.215,0,.3a.562.562,0,0,0,.529,0l1.145-.66C130.385,1229.815,130.4,1229.683,130.244,1229.595Zm-1.956,1.135a.592.592,0,0,0-.529,0l-.54.313c-.14.088-.151.22,0,.3a.565.565,0,0,0,.53,0l.54-.313C128.429,1230.949,128.44,1230.817,128.289,1230.729Zm-1.361.777a.594.594,0,0,0-.53,0l-.54.318c-.14.083-.151.215,0,.3a.564.564,0,0,0,.53,0l.54-.313C127.068,1231.727,127.079,1231.595,126.928,1231.507Zm-1.362.783a.563.563,0,0,0-.53,0l-.54.313c-.141.083-.152.215,0,.3a.564.564,0,0,0,.529,0l.54-.313C125.706,1232.5,125.717,1232.373,125.566,1232.289Zm-1.362.787a.564.564,0,0,0-.53,0l-.54.313c-.14.088-.151.215,0,.3a.592.592,0,0,0,.529,0l.54-.313C124.345,1233.292,124.356,1233.16,124.2,1233.077Zm-1.362.778a.563.563,0,0,0-.529,0l-.54.313c-.14.088-.151.215,0,.3a.593.593,0,0,0,.53,0l.54-.313C122.984,1234.07,122.995,1233.942,122.843,1233.854Zm-1.361.778a.565.565,0,0,0-.53,0l-.54.313c-.14.088-.151.215,0,.3a.564.564,0,0,0,.53,0l.54-.313C121.622,1234.847,121.633,1234.72,121.482,1234.632Zm-1.361.787a.594.594,0,0,0-.53,0l-.54.313c-.141.088-.152.215,0,.3a.564.564,0,0,0,.529,0l.54-.313C120.261,1235.635,120.272,1235.507,120.121,1235.419Zm-1.362.778a.593.593,0,0,0-.53,0l-.54.313c-.14.088-.152.22,0,.3a.564.564,0,0,0,.529,0l.54-.313C118.9,1236.412,118.91,1236.285,118.759,1236.2Zm-1.362.777a.592.592,0,0,0-.529,0l-.54.313c-.14.088-.151.22,0,.3a.564.564,0,0,0,.53,0l.54-.313C117.538,1237.195,117.549,1237.063,117.4,1236.974Zm-1.362.792a.564.564,0,0,0-.529,0l-.54.313c-.14.083-.151.215,0,.3a.594.594,0,0,0,.53,0l.54-.313C116.177,1237.982,116.188,1237.85,116.036,1237.767Zm-1.361.778a.565.565,0,0,0-.53,0l-.54.313c-.141.083-.152.215,0,.3a.593.593,0,0,0,.529,0l.54-.313C114.815,1238.76,114.826,1238.627,114.675,1238.544Zm-1.383.8a.594.594,0,0,0-.53,0l-.54.313c-.141.088-.152.215,0,.3a.563.563,0,0,0,.529,0l.54-.313C113.432,1239.557,113.443,1239.43,113.292,1239.342Zm18.13-9.052-.465-.269a.638.638,0,0,0-.594,0l-.465.269c-.162.1-.162.25,0,.342l.465.274a.638.638,0,0,0,.594,0l.465-.274C131.584,1230.539,131.584,1230.387,131.422,1230.289Zm-1.826,1.4.465-.269a.185.185,0,0,0,0-.347l-.465-.269a.639.639,0,0,0-.595,0l-.465.269a.185.185,0,0,0,0,.347l.465.269A.639.639,0,0,0,129.6,1231.693Zm-.886.161-.465-.269a.639.639,0,0,0-.594,0l-.465.269a.185.185,0,0,0,0,.347l.465.269a.639.639,0,0,0,.594,0l.465-.269A.185.185,0,0,0,128.71,1231.854Zm-1.362.778-.465-.269a.638.638,0,0,0-.594,0l-.465.269a.185.185,0,0,0,0,.347l.465.269a.638.638,0,0,0,.594,0l.465-.269A.185.185,0,0,0,127.349,1232.632Zm-2.9,1.135.465.269a.638.638,0,0,0,.594,0l.465-.269a.185.185,0,0,0,0-.347l-.465-.269a.638.638,0,0,0-.594,0l-.465.269A.185.185,0,0,0,124.453,1233.766Zm-1.362.778.465.274a.667.667,0,0,0,.595,0l.465-.274c.162-.1.162-.25,0-.342l-.465-.274a.638.638,0,0,0-.595,0l-.465.274C122.93,1234.295,122.93,1234.446,123.091,1234.544Zm-1.361.792.465.269a.638.638,0,0,0,.594,0l.465-.269a.185.185,0,0,0,0-.347l-.465-.269a.638.638,0,0,0-.594,0l-.465.269A.185.185,0,0,0,121.73,1235.336Zm-1.362.778.465.269a.638.638,0,0,0,.594,0l.465-.269a.185.185,0,0,0,0-.347l-.465-.269a.638.638,0,0,0-.594,0l-.465.269A.185.185,0,0,0,120.369,1236.114Zm-1.361.778.465.269a.637.637,0,0,0,.594,0l.465-.269a.185.185,0,0,0,0-.347l-.465-.269a.639.639,0,0,0-.594,0l-.465.269A.185.185,0,0,0,119.007,1236.891Zm-1.362.787.465.269a.638.638,0,0,0,.595,0l.465-.269a.185.185,0,0,0,0-.347l-.465-.269a.639.639,0,0,0-.595,0l-.465.269A.185.185,0,0,0,117.646,1237.679Zm.173.43-.465-.269a.638.638,0,0,0-.594,0l-.465.269a.185.185,0,0,0,0,.347l.465.269a.637.637,0,0,0,.594,0l.465-.269A.185.185,0,0,0,117.819,1238.109Zm-2.9,1.135.465.274a.667.667,0,0,0,.594,0l.465-.274c.162-.1.162-.245,0-.342l-.465-.274a.668.668,0,0,0-.594,0l-.465.274C114.761,1239,114.761,1239.146,114.923,1239.244Zm-1.988,1.149.465.269a.638.638,0,0,0,.594,0l1.07-.616a.185.185,0,0,0,0-.347l-.465-.269a.638.638,0,0,0-.594,0l-1.07.616A.185.185,0,0,0,112.935,1240.393Zm19.7-9.39-.465-.274a.638.638,0,0,0-.594,0l-1.07.616a.185.185,0,0,0,0,.347l.465.269a.64.64,0,0,0,.595,0l1.07-.616C132.794,1231.248,132.794,1231.1,132.632,1231Zm-1.956,1.135-.465-.274a.638.638,0,0,0-.594,0l-.465.274c-.162.093-.162.245,0,.342l.465.274a.668.668,0,0,0,.594,0l.465-.274C130.839,1232.382,130.839,1232.231,130.677,1232.138Zm-1.362,1.12c.162-.1.162-.245,0-.342l-.465-.274a.668.668,0,0,0-.594,0l-.465.274c-.162.1-.162.244,0,.342l.465.274a.668.668,0,0,0,.594,0Zm-1.362.777c.162-.093.162-.245,0-.342l-.465-.274a.667.667,0,0,0-.594,0l-.465.274c-.162.1-.162.249,0,.342l.465.274a.638.638,0,0,0,.594,0Zm-2.42.176-.465.269a.185.185,0,0,0,0,.347l.465.269a.638.638,0,0,0,.594,0l.465-.269a.185.185,0,0,0,0-.347l-.465-.269A.638.638,0,0,0,125.534,1234.211Zm-1.329.768-.53.3c-.151.083-.151.225,0,.313l.519.3a.587.587,0,0,0,.54,0l.529-.3c.151-.088.151-.23,0-.313l-.518-.3A.586.586,0,0,0,124.2,1234.979Zm-1.362.787-.529.3c-.152.083-.152.225,0,.313l.518.3a.617.617,0,0,0,.54,0l.529-.3c.152-.088.152-.23,0-.313l-.518-.3A.586.586,0,0,0,122.843,1235.767Zm-1.361.777-.53.3c-.151.088-.151.225,0,.313l.518.3a.617.617,0,0,0,.54,0l.53-.3c.151-.088.151-.225,0-.313l-.519-.3A.586.586,0,0,0,121.482,1236.544Zm-1.361.778-.53.3c-.151.088-.151.225,0,.313l.519.3a.586.586,0,0,0,.54,0l.53-.3c.151-.088.151-.225,0-.313l-.519-.3A.585.585,0,0,0,120.121,1237.322Zm-1.362.787-.53.3c-.151.088-.151.23,0,.313l.519.3a.586.586,0,0,0,.54,0l.529-.3c.151-.083.151-.225,0-.313l-.518-.3A.618.618,0,0,0,118.759,1238.109Zm-.821,1.7.529-.3c.152-.083.152-.225,0-.313l-.518-.3a.617.617,0,0,0-.54,0l-.529.3c-.152.088-.152.23,0,.313l.518.3A.586.586,0,0,0,117.938,1239.806Zm-1.362.787.53-.3c.151-.088.151-.23,0-.313l-.519-.3a.585.585,0,0,0-.54,0l-.53.3c-.151.083-.151.225,0,.313l.518.3A.587.587,0,0,0,116.576,1240.594Zm-2.453.5.518.3a.586.586,0,0,0,.54,0l.53-.3c.151-.088.151-.225,0-.313l-.519-.3a.616.616,0,0,0-.54,0l-.53.3C113.973,1240.867,113.973,1241,114.124,1241.092Zm19.762-9.355-.519-.3a.587.587,0,0,0-.54,0l-1.7.983c-.151.088-.151.225,0,.313l.518.3a.585.585,0,0,0,.54,0l1.7-.983C134.037,1231.962,134.037,1231.825,133.886,1231.737Zm-2.528,1.457-.519-.3a.615.615,0,0,0-.54,0l-.53.3c-.151.088-.151.225,0,.313l.519.3a.584.584,0,0,0,.54,0l.53-.3C131.509,1233.419,131.509,1233.282,131.357,1233.194Zm-1.362.778-.518-.3a.614.614,0,0,0-.54,0l-.53.3c-.151.088-.151.23,0,.313l.519.3a.584.584,0,0,0,.54,0l.53-.3C130.147,1234.2,130.147,1234.06,130,1233.972Zm-1.362.778-.518-.3a.616.616,0,0,0-.54,0l-.529.3c-.152.088-.152.23,0,.313l.518.3a.585.585,0,0,0,.54,0l.529-.3C128.786,1234.979,128.786,1234.837,128.634,1234.749Zm-1.88,1.4.53-.3c.151-.088.151-.23,0-.313l-.519-.3a.585.585,0,0,0-.54,0l-.529.3c-.151.083-.151.225,0,.313l.518.3A.587.587,0,0,0,126.754,1236.153Zm-1.362.782.53-.3c.151-.088.151-.23,0-.313l-.519-.3a.583.583,0,0,0-.54,0l-.53.3c-.151.083-.151.225,0,.313l.519.3A.616.616,0,0,0,125.393,1236.935Zm-1.361.778.529-.3c.151-.088.151-.23,0-.313l-.518-.3a.586.586,0,0,0-.54,0l-.53.3c-.151.083-.151.225,0,.313l.519.3A.617.617,0,0,0,124.032,1237.713Zm-1.362.787.529-.3c.152-.088.152-.225,0-.313l-.518-.3a.585.585,0,0,0-.54,0l-.529.3c-.152.088-.152.225,0,.313l.518.3A.586.586,0,0,0,122.67,1238.5Zm-1.362.778.53-.3c.151-.088.151-.225,0-.313l-.519-.3a.586.586,0,0,0-.54,0l-.529.3c-.151.088-.151.225,0,.313l.518.3A.585.585,0,0,0,121.309,1239.278Zm-1.362.778.53-.3c.151-.088.151-.225,0-.313l-.519-.3a.615.615,0,0,0-.54,0l-.53.3c-.151.088-.151.225,0,.313l.519.3A.584.584,0,0,0,119.947,1240.056Zm-.832.161-.518-.3a.617.617,0,0,0-.54,0l-.53.3c-.151.088-.151.23,0,.313l.519.3a.586.586,0,0,0,.54,0l.529-.3C119.267,1240.447,119.267,1240.3,119.116,1240.217Zm-3.76,1.57.518.3a.585.585,0,0,0,.54,0l1.339-.777c.152-.083.152-.225,0-.313l-.518-.3a.617.617,0,0,0-.54,0l-1.34.778A.168.168,0,0,0,115.356,1241.787Zm19.751-9.36-.454-.259a.66.66,0,0,0-.6,0l-2.41,1.394a.188.188,0,0,0,0,.357l.454.259a.66.66,0,0,0,.6,0l2.41-1.394A.188.188,0,0,0,135.106,1232.426Zm-3.317,1.912-.454-.259a.66.66,0,0,0-.605,0l-.454.259a.188.188,0,0,0,0,.357l.454.259a.662.662,0,0,0,.605,0l.454-.259A.188.188,0,0,0,131.79,1234.339Zm-1.362.792-.454-.259a.66.66,0,0,0-.6,0l-.454.259a.184.184,0,0,0,0,.352l.454.264a.691.691,0,0,0,.6,0l.454-.264A.184.184,0,0,0,130.428,1235.131Zm-1.362.778-.454-.259a.659.659,0,0,0-.6,0l-.454.259a.188.188,0,0,0,0,.357l.454.259a.691.691,0,0,0,.6,0l.454-.259A.188.188,0,0,0,129.067,1235.908Zm-1.362.778-.454-.259a.659.659,0,0,0-.6,0l-.454.259a.188.188,0,0,0,0,.357l.454.259a.66.66,0,0,0,.6,0l.454-.259A.188.188,0,0,0,127.705,1236.686Zm-1.361.778-.454-.259a.661.661,0,0,0-.605,0l-.454.259a.188.188,0,0,0,0,.357l.454.259a.661.661,0,0,0,.605,0l.454-.259A.188.188,0,0,0,126.344,1237.464Zm-1.361.787-.454-.259a.66.66,0,0,0-.6,0l-.454.259a.188.188,0,0,0,0,.357l.454.259a.66.66,0,0,0,.6,0l.454-.259A.188.188,0,0,0,124.983,1238.251Zm-1.362.778-.454-.259a.66.66,0,0,0-.6,0l-.454.259a.188.188,0,0,0,0,.357l.454.259a.66.66,0,0,0,.6,0l.454-.259A.188.188,0,0,0,123.621,1239.029Zm-1.362.778-.454-.259a.66.66,0,0,0-.6,0l-.454.259a.188.188,0,0,0,0,.357l.454.259a.66.66,0,0,0,.6,0l.454-.259A.188.188,0,0,0,122.26,1239.806Zm-1.362.787-.453-.259a.693.693,0,0,0-.605,0l-.454.259a.188.188,0,0,0,0,.357l.454.259a.661.661,0,0,0,.605,0l.453-.259C121.071,1240.858,121.071,1240.691,120.9,1240.594Zm-1.361.782-.454-.259a.659.659,0,0,0-.6,0l-.454.259a.184.184,0,0,0,0,.352l.454.259a.662.662,0,0,0,.6,0l.454-.259A.184.184,0,0,0,119.537,1241.376Zm-2.906,1.154.454.259a.66.66,0,0,0,.6,0l.454-.259a.188.188,0,0,0,0-.357l-.454-.259a.66.66,0,0,0-.6,0l-.454.259A.188.188,0,0,0,116.631,1242.53Zm17.568-8.686.454.259a.66.66,0,0,0,.6,0l1.059-.616a.188.188,0,0,0,0-.357l-.454-.259a.661.661,0,0,0-.605,0l-1.059.616A.188.188,0,0,0,134.2,1233.845Zm-1.361.787.454.259a.661.661,0,0,0,.6,0l.454-.259a.188.188,0,0,0,0-.357l-.454-.259a.661.661,0,0,0-.6,0l-.454.259A.188.188,0,0,0,132.838,1234.632Zm-1.362.778.454.259a.66.66,0,0,0,.6,0l.454-.259a.188.188,0,0,0,0-.357l-.454-.259a.66.66,0,0,0-.6,0l-.454.259A.188.188,0,0,0,131.476,1235.41Zm-9.5,5.477.454.259a.66.66,0,0,0,.6,0l8.6-4.959a.188.188,0,0,0,0-.357l-.454-.259a.662.662,0,0,0-.6,0l-8.6,4.959A.188.188,0,0,0,121.979,1240.887Zm-1.362.777.454.259a.66.66,0,0,0,.6,0l.454-.259a.188.188,0,0,0,0-.357l-.454-.259a.66.66,0,0,0-.6,0l-.454.259A.188.188,0,0,0,120.617,1241.664Zm-1.362.778.454.259a.66.66,0,0,0,.6,0l.454-.259a.188.188,0,0,0,0-.357l-.454-.259a.66.66,0,0,0-.6,0l-.454.259A.188.188,0,0,0,119.256,1242.442Zm-1.383.8.454.259a.661.661,0,0,0,.605,0l.453-.259a.188.188,0,0,0,0-.357l-.453-.259a.661.661,0,0,0-.605,0l-.454.259A.188.188,0,0,0,117.873,1243.244Z" transform="translate(-56.262 -627.874)" fill="#e5e9ff"/>
      <path id="Trazado_116105" data-name="Trazado 116105" d="M127.939,1229.7l21.729-12.451a4.369,4.369,0,0,0,1.783-2.949l2.193-17.449c.14-1.145-.421-1.682-1.264-1.208l-21.728,12.446a4.367,4.367,0,0,0-1.783,2.949l-2.193,17.449C126.534,1229.629,127.1,1230.172,127.939,1229.7Z" transform="translate(-63.692 -610.469)" fill="#6bf"/>
      <path id="Trazado_116106" data-name="Trazado 116106" d="M129.91,1207.574l21.728-12.446a.916.916,0,0,1,.843-.117c.033.01.389.245.422.269a.874.874,0,0,0-.886.083l-21.728,12.451a4.369,4.369,0,0,0-1.783,2.949l-2.193,17.449c-.086.714.1,1.2.454,1.34a.18.18,0,0,1-.119-.054c-.022-.01-.41-.294-.421-.3a1.4,1.4,0,0,1-.281-1.232l2.193-17.449a4.346,4.346,0,0,1,1.783-2.949Z" transform="translate(-63.318 -610.206)" fill="#2d3259"/>
      <path id="Trazado_116107" data-name="Trazado 116107" d="M104.3,1237.97a5.1,5.1,0,0,0,1.848.66c1.1.171,1.674-.24,3.2.142,1.566.386,3.382,2.915,2.053,3.961-.918.724-2.517-.161-3.814-.342-.562-.079-1.674.054-2.247.044-1.88-.069-3.544-2.377-3.544-2.377l2.5-2.088Z" transform="translate(-50.992 -632.185)" fill="#ffd4c0"/>
      <g id="Grupo_81529" data-name="Grupo 81529" transform="translate(42.824 574.04)">
        <path id="Trazado_116108" data-name="Trazado 116108" d="M97.877,1204.134a33.286,33.286,0,0,1-12.371-1.687s.205-9.551.259-16.183c.054-5.922-.465-10.363-.227-13.2l5.057,3.781c0,5.942-.454,14.4-.454,18.286,0,2.342,5.283,8.426,7.758,9Z" transform="translate(-85.476 -1173.06)" fill="#b3ddff"/>
      </g>
      <path id="Trazado_116109" data-name="Trazado 116109" d="M77.959,1168.572c-1.891-.875-4.743,2.073-6.645,8.289s-6.991,13.752-6.029,16.334,18.79,12.75,18.79,12.75a5.364,5.364,0,0,1,1.145-2.108c.961-1.144,1.4-1.144,1.4-1.144l-13.009-11.786s5.024-6.656,7.218-12.667c1.956-5.345.313-8.187-2.885-9.649Z" transform="translate(-32.274 -596.649)" fill="#99d2ff"/>
      <path id="Trazado_116110" data-name="Trazado 116110" d="M36.885,131.109a2389.577,2389.577,0,1,0,.04.041Z" transform="translate(-13.366 -57.697)" fill="#3651a3"/>
      <path id="Trazado_116111" data-name="Trazado 116111" d="M42.258,156.57H14.586a3.025,3.025,0,0,0-3.03,3.03v29.166a3.03,3.03,0,0,0,6.059,0V163.841H19.07v63.383a3.878,3.878,0,1,0,7.756,0V196.24h3.151v30.984a3.878,3.878,0,1,0,7.756,0V163.841h1.454v24.925a3.03,3.03,0,0,0,6.059,0V159.6a3.026,3.026,0,0,0-3.03-3.03Z" transform="translate(-4.883 -79.644)" fill="#3651a3"/>
      <path id="Trazado_116112" data-name="Trazado 116112" d="M155.955,131.066a8.766,8.766,0,1,0-8.766-8.766A8.759,8.759,0,0,0,155.955,131.066Z" transform="translate(-74.184 -57.655)" fill="#3651a3"/>
      <path id="Trazado_116113" data-name="Trazado 116113" d="M161.371,156.57H133.7a3.025,3.025,0,0,0-3.03,3.03v29.166a3.03,3.03,0,0,0,6.059,0V163.841h1.454v63.383a3.878,3.878,0,0,0,7.756,0V196.239h3.151v30.985a3.878,3.878,0,0,0,7.756,0V163.841H158.3v24.925a3.03,3.03,0,0,0,6.059,0V159.6a3.025,3.025,0,0,0-3.03-3.03Z" transform="translate(-65.743 -79.644)" fill="#3651a3"/>
      <path id="Trazado_116114" data-name="Trazado 116114" d="M275.151,131.066a8.766,8.766,0,1,0-8.766-8.766A8.758,8.758,0,0,0,275.151,131.066Z" transform="translate(-135.088 -57.655)" fill="#3651a3"/>
      <path id="Trazado_116115" data-name="Trazado 116115" d="M280.484,156.57H252.812a3.025,3.025,0,0,0-3.03,3.03v29.166a3.03,3.03,0,0,0,6.059,0V163.841H257.3v63.383a3.878,3.878,0,0,0,7.756,0V196.239H268.2v30.985a3.878,3.878,0,0,0,7.756,0V163.841h1.454v24.925a3.03,3.03,0,1,0,6.059,0V159.6a3.026,3.026,0,0,0-3.03-3.03Z" transform="translate(-126.604 -79.644)" fill="#3651a3"/>
      <path id="Trazado_116116" data-name="Trazado 116116" d="M394.263,131.066A8.766,8.766,0,1,0,385.5,122.3,8.759,8.759,0,0,0,394.263,131.066Z" transform="translate(-195.948 -57.655)" fill="#3651a3"/>
      <path id="Trazado_116117" data-name="Trazado 116117" d="M399.678,156.57H372.007a3.025,3.025,0,0,0-3.03,3.03v29.166a3.03,3.03,0,1,0,6.059,0V163.841h1.454v63.383a3.878,3.878,0,0,0,7.756,0V196.239H387.4v30.985a3.878,3.878,0,0,0,7.756,0V163.841h1.454v24.925a3.03,3.03,0,0,0,6.059,0V159.6a3.026,3.026,0,0,0-3.03-3.03Z" transform="translate(-187.507 -79.644)" fill="#3651a3"/>
      <path id="Trazado_116118" data-name="Trazado 116118" d="M513.376,131.066a8.766,8.766,0,1,0-8.766-8.766A8.759,8.759,0,0,0,513.376,131.066Z" transform="translate(-256.809 -57.655)" fill="#3651a3"/>
      <path id="Trazado_116119" data-name="Trazado 116119" d="M518.792,156.57H491.12a3.026,3.026,0,0,0-3.03,3.03v29.166a3.03,3.03,0,1,0,6.059,0V163.841H495.6v63.383a3.878,3.878,0,0,0,7.756,0V196.239h3.151v30.985a3.878,3.878,0,0,0,7.756,0V163.841h1.454v24.925a3.03,3.03,0,1,0,6.059,0V159.6a3.025,3.025,0,0,0-3.03-3.03Z" transform="translate(-248.368 -79.644)" fill="#3651a3"/>
      <path id="Trazado_116120" data-name="Trazado 116120" d="M632.489,131.066a8.766,8.766,0,1,0-8.766-8.766A8.758,8.758,0,0,0,632.489,131.066Z" transform="translate(-317.669 -57.655)" fill="#3651a3"/>
      <path id="Trazado_116121" data-name="Trazado 116121" d="M637.9,156.57H610.233a3.025,3.025,0,0,0-3.03,3.03v29.166a3.03,3.03,0,0,0,6.059,0V163.841h1.454v63.383a3.878,3.878,0,0,0,7.756,0V196.239h3.151v30.985a3.878,3.878,0,0,0,7.756,0V163.841h1.454v24.925a3.03,3.03,0,1,0,6.059,0V159.6a3.026,3.026,0,0,0-3.03-3.03Z" transform="translate(-309.229 -79.644)" fill="#3651a3"/>
      <path id="Trazado_116122" data-name="Trazado 116122" d="M751.684,131.066a8.766,8.766,0,1,0-8.766-8.766A8.759,8.759,0,0,0,751.684,131.066Z" transform="translate(-378.572 -57.655)" fill="#3651a3"/>
      <path id="Trazado_116123" data-name="Trazado 116123" d="M757.017,156.57H729.345a3.026,3.026,0,0,0-3.03,3.03v29.166a3.03,3.03,0,0,0,6.06,0V163.841h1.454v63.383a3.878,3.878,0,0,0,7.756,0V196.239h3.151v30.985a3.878,3.878,0,0,0,7.756,0V163.841h1.454v24.925a3.03,3.03,0,0,0,6.059,0V159.6a3.026,3.026,0,0,0-3.03-3.03Z" transform="translate(-370.089 -79.644)" fill="#3651a3"/>
      <path id="Trazado_116124" data-name="Trazado 116124" d="M870.8,131.066a8.766,8.766,0,1,0-8.766-8.766A8.758,8.758,0,0,0,870.8,131.066Z" transform="translate(-439.433 -57.655)" fill="#e0e0e0"/>
      <path id="Trazado_116125" data-name="Trazado 116125" d="M876.212,156.57H848.54a3.026,3.026,0,0,0-3.03,3.03v29.166a3.03,3.03,0,0,0,6.06,0V163.841h1.454v63.383a3.878,3.878,0,0,0,7.756,0V196.239h3.151v30.985a3.878,3.878,0,0,0,7.756,0V163.841h1.454v24.925a3.03,3.03,0,0,0,6.06,0V159.6a3.026,3.026,0,0,0-3.03-3.03Z" transform="translate(-430.992 -79.644)" fill="#e0e0e0"/>
      <path id="Trazado_116126" data-name="Trazado 116126" d="M989.91,131.066a8.766,8.766,0,1,0-8.766-8.766A8.757,8.757,0,0,0,989.91,131.066Z" transform="translate(-500.294 -57.655)" fill="#e0e0e0"/>
      <path id="Trazado_116127" data-name="Trazado 116127" d="M995.325,156.57H967.654a3.025,3.025,0,0,0-3.03,3.03v29.166a3.03,3.03,0,1,0,6.059,0V163.841h1.455v63.383a3.878,3.878,0,0,0,7.756,0V196.239h3.151v30.985a3.878,3.878,0,0,0,7.756,0V163.841h1.453v24.925a3.03,3.03,0,0,0,6.059,0V159.6a3.023,3.023,0,0,0-3.027-3.03Z" transform="translate(-491.853 -79.644)" fill="#e0e0e0"/>
      <path id="Trazado_116128" data-name="Trazado 116128" d="M1109.024,131.066a8.766,8.766,0,1,0-8.764-8.766A8.761,8.761,0,0,0,1109.024,131.066Z" transform="translate(-561.156 -57.655)" fill="#e0e0e0"/>
      <path id="Trazado_116129" data-name="Trazado 116129" d="M1114.438,156.57h-27.67a3.023,3.023,0,0,0-3.027,3.03v29.166a3.03,3.03,0,1,0,6.059,0V163.841h1.453v63.383a3.878,3.878,0,0,0,7.756,0V196.239h3.149v30.985a3.878,3.878,0,0,0,7.756,0V163.841h1.457v24.925a3.029,3.029,0,1,0,6.059,0V159.6a3.026,3.026,0,0,0-3.032-3.03Z" transform="translate(-552.716 -79.644)" fill="#e0e0e0"/>
      <path id="Trazado_116130" data-name="Trazado 116130" d="M1234.472,173H1220.94v-3.959h18.017v3.878l-10.221,35.913h-4.445l10.182-35.792Z" transform="translate(-622.818 -86.017)" fill="#203a8a"/>
      <path id="Trazado_116131" data-name="Trazado 116131" d="M1270.727,185.244a6.438,6.438,0,0,1,5.9-3.312c5.13,0,7.394,3.757,7.394,9.453v7.8c0,6.1-2.91,10.059-8.969,10.059s-8.93-3.959-8.93-10.059v-2.666h4.162v2.949c0,3.6,1.5,5.737,4.646,5.737s4.646-2.141,4.646-5.737v-7.716c0-3.6-1.5-5.736-4.646-5.736-2.426,0-4.079,1.373-4.485,4.282v.929h-4.162l1.091-22.1h15.674v3.959h-11.713l-.606,12.2Z" transform="translate(-645.903 -86.059)" fill="#203a8a"/>
      <path id="Trazado_116132" data-name="Trazado 116132" d="M1322.37,174.888v12.563c0,3.878-1.819,6.423-5.7,6.423s-5.693-2.545-5.693-6.423V174.888c0-3.8,1.814-6.423,5.693-6.423S1322.37,171.091,1322.37,174.888Zm-8.524-.161v12.967c0,2.141.807,3.6,2.827,3.6s2.827-1.414,2.827-3.6V174.727c0-2.141-.846-3.636-2.827-3.636S1313.846,172.586,1313.846,174.727Zm21.655-6.019L1319.827,208.5h-2.67l15.674-39.791Zm6.421,21.047v12.523c0,3.878-1.78,6.423-5.7,6.423s-5.693-2.545-5.693-6.423V189.754c0-3.8,1.815-6.383,5.693-6.383S1341.922,185.917,1341.922,189.754Zm-8.524-.162v12.887c0,2.141.846,3.636,2.827,3.636s2.827-1.495,2.827-3.636V189.592c0-2.141-.846-3.6-2.827-3.6S1333.4,187.411,1333.4,189.592Z" transform="translate(-668.824 -85.722)" fill="#203a8a"/>
      <path id="Trazado_116133" data-name="Trazado 116133" d="M1003.788,715.534C1022.7,699.4,1045.5,602.125,1123.6,652.791c40.347,26.177,108.383-22.474,164.7-5.67,51.717,15.432,56.7,66.276,51.7,82.842-10.109,33.466,21.347,38.446,50.529,52.824,45.775,22.554,11.849,102.658-31.392,103.04s-304.874,0-304.874,0-62.892-1.438-89.015-36.112C937.126,812.408,954.947,757.2,1003.788,715.534Z" transform="translate(-485.337 -325.789)" fill="#c9e7ff"/>
      <path id="Trazado_116134" data-name="Trazado 116134" d="M1561.129,1123.1s-.548,8.832-2.259,8.964c-.225.015-8.666.015-8.666.015l-10.773-.063a3.491,3.491,0,0,1,3.218-3.145c3.149-.548,8.421-2.763,10.329-6.925C1554.987,1117.572,1561.129,1123.1,1561.129,1123.1Z" transform="translate(-785.551 -572.043)" fill="#163560"/>
      <path id="Trazado_116135" data-name="Trazado 116135" d="M1573.9,915.28s-4.695,1.205-7.678.307-8.118.578-8.945,1.666-.523,1.521.953,1.9,6.705,2.6,10.138,1.314a27.378,27.378,0,0,1,7.918-1.337l-2.382-3.845Z" transform="translate(-794.439 -467.307)" fill="#e49963"/>
      <path id="Trazado_116136" data-name="Trazado 116136" d="M1628.64,826.435s-5.276,37.48-14.006,40.836c-4.309,1.656-23.352,5.411-28.981,5.787,0,0-1.379-1.119-1.047-5.675,0,0,19.953-7.324,22.785-11.306,4.221-5.928-2.616-24.216,2.675-29.785s14.207-7.959,18.574.143Z" transform="translate(-808.607 -419.239)" fill="#6bf"/>
      <path id="Trazado_116137" data-name="Trazado 116137" d="M1646,1064.88v-8.172h12.867a.632.632,0,0,0,.631-.631v-1.311a.632.632,0,0,0-.631-.631H1646v-46.514a2.38,2.38,0,0,0-2.372-2.372h-2.548a2.38,2.38,0,0,0-2.372,2.372v46.514h-12.867a.633.633,0,0,0-.631.631v1.311a.632.632,0,0,0,.631.631h12.867v8.172c-9.307.7-16.765,4.054-18.858,8.387h45.007c-2.093-4.333-9.551-7.683-18.858-8.387Z" transform="translate(-826.641 -513.277)" fill="#99d2ff"/>
      <path id="Trazado_116138" data-name="Trazado 116138" d="M1615.637,970.366a65.719,65.719,0,0,1-5.15,7.372c-5.668,7.155-11.84,13.053-12.911,18.628a25.4,25.4,0,0,1-1,3.57c-.45,1.277-1,2.621-1.648,4.01a123.3,123.3,0,0,1-9.59,16.4c-6.206,9.2-12.045,16.872-12.045,16.872l-10.705-.455c.43-1.071,5.1-13.772,11.346-29.294,2.533-6.3,5.233-13,7.834-19.469.347-.861.694-1.722,1.037-2.572.792-1.976,1.58-3.922,2.343-5.82,5.864-14.573,10.534-26.179,10.534-26.179s23.44-8.879,25.871-3.126c2.01,4.744.376,9.391-5.923,20.065Z" transform="translate(-797.384 -484.21)" fill="#e58638"/>
      <path id="Trazado_116139" data-name="Trazado 116139" d="M1628.633,1074.47s7.443,4.783,6.724,6.338c-.1.205-4.211,7.575-4.211,7.575l-5.311,9.38a3.5,3.5,0,0,1-1.173-4.348c1.056-3.017,1.692-8.7-1.013-12.392-2.846-3.888,4.984-6.553,4.984-6.553Z" transform="translate(-828.264 -548.645)" fill="#163560"/>
      <path id="Trazado_116140" data-name="Trazado 116140" d="M1579.528,950.1s-29.421,18.327-32.707,30.645,39.139,38.591,39.139,38.591,4.651-4.108,5.473-7.121c0,0-19.176-22.971-23.333-28.12-2.558-3.164,37.769-10.95,42.7-18.613s3.159-14.112,3.159-14.112l-34.429-1.272Z" transform="translate(-789.234 -485.095)" fill="#ffca00"/>
      <path id="Trazado_116141" data-name="Trazado 116141" d="M1662.233,998.22h-60.217a2.19,2.19,0,0,0-2.186,2.191v12.04a2.19,2.19,0,0,0,2.186,2.191h60.217a2.194,2.194,0,0,0,2.191-2.191v-12.04A2.194,2.194,0,0,0,1662.233,998.22Z" transform="translate(-816.412 -509.685)" fill="#1c468a"/>
      <path id="Trazado_116142" data-name="Trazado 116142" d="M1637.025,802.986a16.62,16.62,0,0,0-4.484,4.061c7.052,1.824,18.736-4.709,18.736-4.709a17.3,17.3,0,0,1-6.221-9.747c-.083-.338-.161-.684-.23-1.04a21.165,21.165,0,0,1-.382-3.667l-3.237,2.9-5.385,4.823a46.131,46.131,0,0,0,.8,5.443c.117.6.25,1.247.406,1.933Z" transform="translate(-833.125 -402.214)" fill="#e49963"/>
      <path id="Trazado_116143" data-name="Trazado 116143" d="M1648.171,848.4c-1.007,13.579.69,34.224-.454,37.8-.988,3.086-12.623,1.26-17.117.228-1.663-.381-3.678-.925-5.761-1.569-5.8-1.8-12.133-4.365-12.813-6.271a1.347,1.347,0,0,1-.059-.218,1.755,1.755,0,0,1,.01-.8c.225-.972,1.1-2.023,1.2-4.427.117-2.686.1-5.848.2-9.248,0-.383.01-.8.054-1.183v-.139c0-.073,0-.145,0-.218.1-3.793.3-7.78.528-11.735.147-2.483.313-4.943.509-7.3a97.656,97.656,0,0,1,2.094-14.912,23.941,23.941,0,0,1,7.692-11.876l2.142-1.838a12.393,12.393,0,0,0,7.776-1.036c2.768-1.314,3.722-2.255,4.206-1.9,6.387,4.932,10.984,20.04,9.791,36.641Z" transform="translate(-822.592 -414.372)" fill="#99d2ff"/>
      <path id="Trazado_116144" data-name="Trazado 116144" d="M1624.947,927.464c-5.81-1.8-12.133-4.365-12.813-6.271a2.156,2.156,0,0,1-.064-.218c0-.267.01-.534.015-.8.225-.972,1.1-2.023,1.2-4.427.113-2.686.1-5.848.2-9.248,0-.383.01-.8.054-1.183v-.139c0-.074,0-.145,0-.219l21.934-9.948s1.262,17.677-10.529,32.452Z" transform="translate(-822.666 -456.952)" fill="#6bf"/>
      <path id="Trazado_116145" data-name="Trazado 116145" d="M1639.25,798.641a46.078,46.078,0,0,0,.8,5.443c5.257-1.7,7.644-6.448,8.436-8.462a9.524,9.524,0,0,0,.328-.922s-.205-.045-.557-.118l-3.619-.767-5.385,4.823Z" transform="translate(-836.553 -405.245)" fill="#d68d5d"/>
      <path id="Trazado_116146" data-name="Trazado 116146" d="M1632.048,783.506s11.551,1.3,12.25-5.9,2.666-11.89-4.68-13.028-9.047,1.474-9.869,3.822-.689,14.583,2.3,15.107Z" transform="translate(-831.479 -390.164)" fill="#e49963"/>
      <path id="Trazado_116147" data-name="Trazado 116147" d="M1643.685,773.272a11.871,11.871,0,0,0-11.248-10.557c-7.2-.678-3.184-6.877-2.416-7.866,0,0,5.517.755,11.17,1.691,11.869,1.962,3.658,15.24,2.494,16.73Z" transform="translate(-830.914 -385.335)" fill="#2b478b"/>
      <path id="Trazado_116148" data-name="Trazado 116148" d="M1535.485,906.828l-1.013.329-8.6-26.475,1.012-.328Z" transform="translate(-778.622 -449.461)" fill="#6bf"/>
      <path id="Trazado_116149" data-name="Trazado 116149" d="M1572.65,932.075l-29.206.622-.034-1.746,29.206-.622Z" transform="translate(-787.584 -474.996)" fill="#6bf"/>
      <path id="Trazado_116150" data-name="Trazado 116150" d="M1579.28,927.063s-4.533,1.716-7.6,1.152-8.006,1.468-8.705,2.641-.357,1.569,1.154,1.78,6.95,1.851,10.221.189a27.416,27.416,0,0,1,7.722-2.2l-2.792-3.559Z" transform="translate(-797.402 -473.327)" fill="#e49963"/>
      <path id="Trazado_116151" data-name="Trazado 116151" d="M1628.931,830.483s-1.11,37.831-9.419,42.131c-4.1,2.122-22.609,7.951-28.169,8.949,0,0-1.491-.961-1.663-5.527,0,0,19.019-9.478,21.4-13.75,3.536-6.358-5.272-23.781-.626-29.9s13.244-9.478,18.476-1.9Z" transform="translate(-811.226 -421.75)" fill="#99d2ff"/>
      <path id="Trazado_116152" data-name="Trazado 116152" d="M1125.374,764.71h150.72a19.055,19.055,0,0,0,19.044-19.047V539.591a19.054,19.054,0,0,0-19.044-19.046h-150.72a19.054,19.054,0,0,0-19.044,19.046V745.663A19.058,19.058,0,0,0,1125.374,764.71Z" transform="translate(-564.258 -265.617)" fill="#b3ddff"/>
      <path id="Trazado_116153" data-name="Trazado 116153" d="M1295.651,766.729H1143.64V572.871h152.011Z" transform="translate(-583.321 -292.353)" fill="#f3f9ff"/>
      <path id="Trazado_116154" data-name="Trazado 116154" d="M1179.33,819.252a8.019,8.019,0,0,0,8.02-8.021V700.342a8.02,8.02,0,1,0-16.041,0V811.231A8.021,8.021,0,0,0,1179.33,819.252Z" transform="translate(-597.459 -353.386)" fill="#ffca00"/>
      <path id="Trazado_116155" data-name="Trazado 116155" d="M1233.07,782.287a8.019,8.019,0,0,0,8.021-8.021V627.995a8.02,8.02,0,1,0-16.041,0V774.266A8.02,8.02,0,0,0,1233.07,782.287Z" transform="translate(-624.918 -316.42)" fill="#ffca00"/>
      <path id="Trazado_116156" data-name="Trazado 116156" d="M1291.7,851.322a8.019,8.019,0,0,0,8.021-8.021V763.107a8.02,8.02,0,1,0-16.041,0V843.3A8.02,8.02,0,0,0,1291.7,851.322Z" transform="translate(-654.875 -385.456)" fill="#ffca00"/>
      <path id="Trazado_116157" data-name="Trazado 116157" d="M1348.76,804.928a8.022,8.022,0,0,0,8.02-8.021v-124.6a8.02,8.02,0,1,0-16.041,0v124.6a8.021,8.021,0,0,0,8.02,8.021Z" transform="translate(-684.03 -339.062)" fill="#ffca00"/>
      <path id="Trazado_116158" data-name="Trazado 116158" d="M1398.09,801.623v61.358a8.02,8.02,0,1,0,16.041,0V801.623a8.02,8.02,0,1,0-16.041,0Z" transform="translate(-713.333 -405.136)" fill="#ffca00"/>
      <path id="Trazado_116159" data-name="Trazado 116159" d="M1356.319,643.973h-13.581a1.405,1.405,0,1,0,0,2.81h13.581a1.405,1.405,0,1,0,0-2.81Z" transform="translate(-684.331 -328.683)" fill="#99d2ff"/>
      <path id="Trazado_116160" data-name="Trazado 116160" d="M1345.829,654.432h-3.091a1.405,1.405,0,1,0,0,2.81h3.091a1.405,1.405,0,0,0,0-2.81Z" transform="translate(-684.331 -334.027)" fill="#99d2ff"/>
      <path id="Trazado_116161" data-name="Trazado 116161" d="M1241.859,599.87h-13.586a1.4,1.4,0,0,0,0,2.81h13.586a1.4,1.4,0,0,0,0-2.81Z" transform="translate(-625.848 -306.148)" fill="#99d2ff"/>
      <path id="Trazado_116162" data-name="Trazado 116162" d="M1231.369,610.329h-3.1a1.4,1.4,0,0,0,0,2.81h3.1a1.4,1.4,0,0,0,0-2.81Z" transform="translate(-625.848 -311.492)" fill="#99d2ff"/>
      <path id="Trazado_116163" data-name="Trazado 116163" d="M1186.309,672.169h-13.586a1.4,1.4,0,0,0,0,2.81h13.586a1.4,1.4,0,0,0,0-2.81Z" transform="translate(-597.464 -343.089)" fill="#99d2ff"/>
      <path id="Trazado_116164" data-name="Trazado 116164" d="M1175.814,682.624h-3.091a1.4,1.4,0,0,0,0,2.81h3.091a1.4,1.4,0,1,0,0-2.81Z" transform="translate(-597.464 -348.431)" fill="#99d2ff"/>
      <path id="Trazado_116165" data-name="Trazado 116165" d="M1298.31,734.962h-13.586a1.4,1.4,0,0,0,0,2.81h13.586a1.4,1.4,0,0,0,0-2.81Z" transform="translate(-654.691 -375.173)" fill="#99d2ff"/>
      <path id="Trazado_116166" data-name="Trazado 116166" d="M1287.819,745.421h-3.1a1.4,1.4,0,0,0,0,2.81h3.1a1.4,1.4,0,0,0,0-2.81Z" transform="translate(-654.691 -380.517)" fill="#99d2ff"/>
      <path id="Trazado_116167" data-name="Trazado 116167" d="M1412.719,773.36h-13.586a1.4,1.4,0,0,0,0,2.81h13.586a1.4,1.4,0,0,0,0-2.81Z" transform="translate(-713.148 -394.793)" fill="#99d2ff"/>
      <path id="Trazado_116168" data-name="Trazado 116168" d="M1402.229,783.819h-3.1a1.4,1.4,0,0,0,0,2.81h3.1a1.4,1.4,0,0,0,0-2.81Z" transform="translate(-713.148 -400.137)" fill="#99d2ff"/>
      <path id="Trazado_116169" data-name="Trazado 116169" d="M1409.273,754.756a4.991,4.991,0,1,0-4.993-4.991A5,5,0,0,0,1409.273,754.756Zm0-8.052a3.059,3.059,0,1,1-3.062,3.059A3.06,3.06,0,0,1,1409.273,746.7Z" transform="translate(-716.495 -380.186)" fill="#2b478b"/>
      <path id="Trazado_116170" data-name="Trazado 116170" d="M1417.83,730.738a.958.958,0,0,0,.68-.282l15-15h121.871a.966.966,0,1,0,0-1.932H1432.711l-15.566,15.567a.965.965,0,0,0,.685,1.648Z" transform="translate(-722.924 -364.219)" fill="#2b478b"/>
      <path id="Trazado_116171" data-name="Trazado 116171" d="M1350.573,969.991A4.991,4.991,0,1,0,1345.58,965,5,5,0,0,0,1350.573,969.991Zm0-8.052a3.059,3.059,0,1,1-3.056,3.059A3.06,3.06,0,0,1,1350.573,961.938Z" transform="translate(-686.503 -490.161)" fill="#2b478b"/>
      <path id="Trazado_116172" data-name="Trazado 116172" d="M1073.108,993.685H1193.85l15.566-15.565a.966.966,0,0,0-1.364-1.367l-15,15H1073.108a.966.966,0,1,0,0,1.932Z" transform="translate(-546.788 -498.573)" fill="#2b478b"/>
      <path id="Trazado_116173" data-name="Trazado 116173" d="M1237.663,581.538a4.991,4.991,0,1,0-4.993-4.991A5,5,0,0,0,1237.663,581.538Zm0-8.052a3.059,3.059,0,1,1-3.057,3.059A3.064,3.064,0,0,1,1237.663,573.486Z" transform="translate(-628.811 -291.681)" fill="#2b478b"/>
      <path id="Trazado_116174" data-name="Trazado 116174" d="M1246.22,557.521a.98.98,0,0,0,.685-.282l15-15h121.871a.966.966,0,1,0,0-1.932H1261.1l-15.567,15.567a.965.965,0,0,0,.685,1.649Z" transform="translate(-635.24 -275.713)" fill="#2b478b"/>
      <path id="Trazado_116175" data-name="Trazado 116175" d="M1531.005,703.831h80.067a2.448,2.448,0,0,0,0-4.9h-80.067a2.448,2.448,0,0,0,0,4.9Z" transform="translate(-779.996 -356.765)" fill="#99d2ff"/>
      <path id="Trazado_116176" data-name="Trazado 116176" d="M1531.005,688.026h49.15a2.448,2.448,0,0,0,0-4.9h-49.15a2.448,2.448,0,0,0,0,4.9Z" transform="translate(-779.996 -348.69)" fill="#99d2ff"/>
      <path id="Trazado_116177" data-name="Trazado 116177" d="M1531.005,672.222h49.15a2.448,2.448,0,0,0,0-4.9h-49.15a2.448,2.448,0,0,0,0,4.9Z" transform="translate(-779.996 -340.614)" fill="#99d2ff"/>
      <path id="Trazado_116178" data-name="Trazado 116178" d="M1360.54,529.591H1440.6a2.448,2.448,0,1,0,0-4.9H1360.54a2.448,2.448,0,1,0,0,4.9Z" transform="translate(-692.895 -267.737)" fill="#99d2ff"/>
      <path id="Trazado_116179" data-name="Trazado 116179" d="M1211.386,1055.243a17.424,17.424,0,1,1,24.638,0A17.421,17.421,0,0,1,1211.386,1055.243Z" transform="translate(-615.327 -523.623)" fill="#3651a3"/>
      <path id="Trazado_116180" data-name="Trazado 116180" d="M1226.525,1031.01a14.729,14.729,0,0,0-10.495,25.059l10.495-10.329,13.762,5.252a14.741,14.741,0,0,0-13.762-19.983Z" transform="translate(-618.148 -526.439)" fill="#fff"/>
      <path id="Trazado_116181" data-name="Trazado 116181" d="M1230.495,1045.84h-6.27a.447.447,0,0,0,0,.895h6.27a.447.447,0,1,0,0-.895Z" transform="translate(-624.269 -534.017)" fill="#3651a3"/>
      <path id="Trazado_116182" data-name="Trazado 116182" d="M1230.495,1048.74h-6.27a.448.448,0,0,0,0,.9h6.27a.448.448,0,1,0,0-.9Z" transform="translate(-624.269 -535.499)" fill="#3651a3"/>
      <path id="Trazado_116183" data-name="Trazado 116183" d="M1226.817,1051.64h-2.592a.447.447,0,0,0,0,.895h2.592a.447.447,0,0,0,0-.895Z" transform="translate(-624.269 -536.98)" fill="#3651a3"/>
      <path id="Trazado_116184" data-name="Trazado 116184" d="M1265.911,1037.205l-6.891-6.9h6.891Z" transform="translate(-642.275 -526.082)" fill="#3651a3"/>
      <path id="Trazado_116185" data-name="Trazado 116185" d="M1085.927,1043.843a17.425,17.425,0,1,1,18.276,16.53A17.431,17.431,0,0,1,1085.927,1043.843Z" transform="translate(-553.822 -523.647)" fill="#3651a3"/>
      <path id="Trazado_116186" data-name="Trazado 116186" d="M1120.94,1045.74a14.719,14.719,0,1,0-5.79,11.708l-8.935-11.708,13.762,5.252A14.749,14.749,0,0,0,1120.94,1045.74Z" transform="translate(-556.675 -526.439)" fill="#fff"/>
      <path id="Trazado_116187" data-name="Trazado 116187" d="M1109.935,1045.84h-6.269a.447.447,0,0,0,0,.895h6.269a.447.447,0,1,0,0-.895Z" transform="translate(-562.669 -534.017)" fill="#3651a3"/>
      <path id="Trazado_116188" data-name="Trazado 116188" d="M1109.935,1048.74h-6.269a.448.448,0,0,0,0,.9h6.269a.448.448,0,1,0,0-.9Z" transform="translate(-562.669 -535.499)" fill="#3651a3"/>
      <path id="Trazado_116189" data-name="Trazado 116189" d="M1106.257,1051.64h-2.592a.447.447,0,0,0,0,.895h2.592a.447.447,0,0,0,0-.895Z" transform="translate(-562.669 -536.98)" fill="#3651a3"/>
      <path id="Trazado_116190" data-name="Trazado 116190" d="M1145.4,1037.205l-6.891-6.9h6.891Z" transform="translate(-580.7 -526.082)" fill="#3651a3"/>
      <path id="Trazado_116191" data-name="Trazado 116191" d="M990.569,1144.4h402.819a.577.577,0,1,0,0-1.154H990.569a.577.577,0,1,0,0,1.154Z" transform="translate(-504.814 -583.788)" fill="#202f4e"/>
      <path id="Trazado_116192" data-name="Trazado 116192" d="M2,317.957V346H400.173v-28.04" transform="translate(0 -162.105)" fill="none" stroke="#2b478b" stroke-width="3.822"/>
      <path id="Trazado_116193" data-name="Trazado 116193" d="M579.631,84.161V56.121H2v28.04" transform="translate(0 -28.319)" fill="none" stroke="#2b478b" stroke-width="3.822"/>
      <line id="Lnea_220" data-name="Lnea 220" y2="27.106" transform="translate(291.75 0.696)" fill="none" stroke="#2b478b" stroke-width="3.822"/>
      <line id="Lnea_221" data-name="Lnea 221" y2="27.106" transform="translate(202.021 184.827)" fill="none" stroke="#2b478b" stroke-width="3.822"/>
      <path id="Trazado_116194" data-name="Trazado 116194" d="M1523.979,199.558l-9.346-5.4v10.793Zm-56.079.935h47.668v-1.87H1467.9Z" transform="translate(-749.002 -98.851)" fill="#2b478b"/>
      <path id="Trazado_116195" data-name="Trazado 116195" d="M306.538,1267.924l-9.347-5.394v10.793Zm-56.08.934h47.668v-1.868H250.458Z" transform="translate(-126.95 -644.734)" fill="#2b478b"/>
      <path id="Trazado_116196" data-name="Trazado 116196" d="M780.121,850.864h-.935v.934h.935Zm0-146.747h.935v-.935h-.935Zm-72.884,0,9.347,5.4V698.721ZM1005.4,849.925H780.121V851.8H1005.4Zm-224.342.939V704.117h-1.869V850.864Zm-.935-147.681H715.649v1.869h64.472Z" transform="translate(-360.341 -356.656)" fill="#2b478b"/>
      <path id="Trazado_116197" data-name="Trazado 116197" d="M746.241,1018.588h-.935v.934h.935Zm0-39.257h.935V978.4h-.935Zm-17.981,0,9.347,5.4V973.935Zm175.72,38.323H746.241v1.868H903.98Zm-156.8.934V979.331h-1.87v39.257Zm-.935-40.191h-9.569v1.87h9.569Z" transform="translate(-371.083 -497.277)" fill="#2b478b"/>
      <path id="Trazado_116198" data-name="Trazado 116198" d="M1564.714,536.886l-9.346-5.4v10.793Zm-71.974.935H1556.3v-1.869H1492.74Z" transform="translate(-761.694 -271.209)" fill="#2b478b"/>
      <path id="Trazado_116199" data-name="Trazado 116199" d="M1243.314,1158.338h-.934v.934h.934Zm167.03.66a.93.93,0,0,0,0-1.32l-5.947-5.952a.936.936,0,0,0-1.321,1.326l5.287,5.286-5.287,5.286a.934.934,0,0,0,1.321,1.321ZM1242.38,1091.04v67.3h1.868v-67.3Zm.934,68.232h166.37V1157.4h-166.37Z" transform="translate(-633.772 -557.112)" fill="#2b478b"/>
    </g>
    <text id="Poblacin._Grupo_al_cual_se_va_a_revisar_una_situacin_o_fenmeno_de_la_poblacin_con_cierta_propiedad_o_caracterstica_se_extrae_la_muestra._Para_la_poblacin_se_utilizan_eventos_poblacin_propiamente_individuos_o_grupos_objetos." data-name="Poblacin. Grupo al cual se va a revisar una situacin o fenmeno, de la poblacin con cierta propiedad o caracterstica, se extrae la muestra. Para la poblacin se utilizan eventos, poblacin propiamente (individuos o grupos), objetos." transform="translate(285.464 1360.836)" fill="#3c0061" font-size="16" font-family="Roboto-Bold, Roboto" font-weight="700"><tspan x="0" y="15">Poblacin.</tspan><tspan y="15" xml:space="preserve" fill="#12263f" font-family="Roboto-Regular, Roboto" font-weight="400"> Grupo al cual se va a revisar una situacin o fenmeno, de la poblacin </tspan><tspan x="0" y="35" fill="#12263f" font-family="Roboto-Regular, Roboto" font-weight="400">con cierta propiedad o caracterstica, se extrae la muestra. Para la poblacin se </tspan><tspan x="0" y="55" fill="#12263f" font-family="Roboto-Regular, Roboto" font-weight="400">utilizan eventos, poblacin propiamente (individuos o grupos), objetos.</tspan></text>
    <text id="Muestra.Es_un_subconjunto_de_la_poblacin_que_tiene_igualmente_medidas_de_la_poblacin_individuos_y_objetos." data-name="Muestra.Es un subconjunto de la poblacin que tiene igualmente medidas de la poblacin, individuos y objetos." transform="translate(285.464 1669.836)" fill="#3c0061" font-size="16" font-family="Roboto-Bold, Roboto" font-weight="700"><tspan x="0" y="15">Muestra.</tspan><tspan y="15" fill="#12263f" font-family="Roboto-Regular, Roboto" font-weight="400">Es un subconjunto de la poblacin que </tspan><tspan x="0" y="35" fill="#12263f" font-family="Roboto-Regular, Roboto" font-weight="400">tiene igualmente medidas de la poblacin, </tspan><tspan x="0" y="55" fill="#12263f" font-family="Roboto-Regular, Roboto" font-weight="400">individuos y objetos.</tspan></text>
    <text id="Variable._Representa_la_caracterstica_de_cada_elemento_estudiado_su_valoracin_puede_ser_cuantitativa_que_puede_ser_discreta_continua_o_numrica_tambin_calificativa_como_calificar_caractersticas_o_rasgos." data-name="Variable. Representa la caracterstica de cada elemento estudiado, su valoracin puede ser cuantitativa que puede ser discreta, continua o numrica; tambin calificativa como calificar caractersticas o rasgos." transform="translate(285.464 1755.836)" fill="#3c0061" font-size="16" font-family="Roboto-Bold, Roboto" font-weight="700"><tspan x="0" y="15">Variable. </tspan><tspan y="15" fill="#12263f" font-family="Roboto-Regular, Roboto" font-weight="400">Representa la caracterstica de cada </tspan><tspan x="0" y="35" fill="#12263f" font-family="Roboto-Regular, Roboto" font-weight="400">elemento estudiado, su valoracin puede ser </tspan><tspan x="0" y="55" fill="#12263f" font-family="Roboto-Regular, Roboto" font-weight="400">cuantitativa que puede ser discreta, continua </tspan><tspan x="0" y="75" fill="#12263f" font-family="Roboto-Regular, Roboto" font-weight="400">o numrica; tambin calificativa como </tspan><tspan x="0" y="95" fill="#12263f" font-family="Roboto-Regular, Roboto" font-weight="400">calificar caractersticas o rasgos.</tspan></text>
    <text id="Estadstica._Valor_numrico_que_resume_los_datos_de_la_poblacin." data-name="Estadstica. Valor numrico que resume los datos de la poblacin." transform="translate(285.464 1907.836)" fill="#3c0061" font-size="16" font-family="Roboto-Bold, Roboto" font-weight="700"><tspan x="0" y="15">Estadstica. </tspan><tspan y="15" fill="#12263f" font-family="Roboto-Regular, Roboto" font-weight="400">Valor numrico que resume los </tspan><tspan x="0" y="35" fill="#12263f" font-family="Roboto-Regular, Roboto" font-weight="400">datos de la poblacin.</tspan></text>
    <text id="Experimento._Actividad_realizada_o_planeada_para_recoleccin_de_los_datos." data-name="Experimento. Actividad realizada o planeada para recoleccin de los datos." transform="translate(473.464 2053.836)" fill="#3c0061" font-size="16" font-family="Roboto-Bold, Roboto" font-weight="700"><tspan x="0" y="15">Experimento. </tspan><tspan y="15" fill="#12263f" font-family="Roboto-Regular, Roboto" font-weight="400">Actividad realizada o planeada para recoleccin de los datos.</tspan></text>
    <text id="Dato._Es_el_valor_de_la_variable_asociada_a_la_poblacin_puede_ser_nmero_palabra_o_smbolo." data-name="Dato.  Es el valor de la variable asociada a la poblacin, puede ser nmero, palabra o smbolo." transform="translate(1125.464 1522.836)" fill="#3c0061" font-size="16" font-family="Roboto-Bold, Roboto" font-weight="700"><tspan x="0" y="15">Dato.</tspan><tspan y="15" xml:space="preserve" fill="#12263f" font-family="Roboto-Regular, Roboto" font-weight="400">  Es el valor de la variable </tspan><tspan x="0" y="35" fill="#12263f" font-family="Roboto-Regular, Roboto" font-weight="400">asociada a la poblacin, puede </tspan><tspan x="0" y="55" fill="#12263f" font-family="Roboto-Regular, Roboto" font-weight="400">ser nmero, palabra o smbolo.</tspan></text>
    <text id="Datos._Valores_recolectados_para_la_variable_de_cada_uno_de_los_elementos." data-name="Datos. Valores recolectados para la variable de cada uno de los elementos." transform="translate(1125.464 1689.836)" fill="#3c0061" font-size="16" font-family="Roboto-Bold, Roboto" font-weight="700"><tspan x="0" y="15">Datos.</tspan><tspan y="15" xml:space="preserve" fill="#12263f" font-family="Roboto-Regular, Roboto" font-weight="400"> Valores recolectados </tspan><tspan x="0" y="35" fill="#12263f" font-family="Roboto-Regular, Roboto" font-weight="400">para la variable de cada uno de </tspan><tspan x="0" y="55" fill="#12263f" font-family="Roboto-Regular, Roboto" font-weight="400">los elementos.</tspan></text>
    <text id="Parmetro._Valor_numrico_de_los_datos_de_la_poblacin" data-name="Parmetro. Valor numrico de los datos de la poblacin" transform="translate(1082.464 2033.836)" fill="#3c0061" font-size="16" font-family="Roboto-Bold, Roboto" font-weight="700"><tspan x="0" y="15">Parmetro.</tspan><tspan y="15" xml:space="preserve" fill="#12263f" font-family="Roboto-Regular, Roboto" font-weight="400"> Valor numrico de </tspan><tspan x="0" y="35" fill="#12263f" font-family="Roboto-Regular, Roboto" font-weight="400">los datos de la poblacin</tspan></text>
  </g>
</svg>
