<svg xmlns="http://www.w3.org/2000/svg" width="671.805" height="364.375" viewBox="0 0 671.805 364.375">
  <g id="Grupo_1013339" data-name="Grupo 1013339" transform="translate(-463.464 -1911.625)">
    <g id="Grupo_1013329" data-name="Grupo 1013329">
      <g id="Elipse_4714" data-name="Elipse 4714" transform="translate(463.464 1929)" fill="none" stroke="#b3009d" stroke-width="2">
        <ellipse cx="231.5" cy="173.5" rx="231.5" ry="173.5" stroke="none"/>
        <ellipse cx="231.5" cy="173.5" rx="230.5" ry="172.5" fill="none"/>
      </g>
      <circle id="Elipse_4715" data-name="Elipse 4715" cx="9" cy="9" r="9" transform="translate(568.464 2006)" fill="#3c0061"/>
      <circle id="Elipse_4716" data-name="Elipse 4716" cx="9" cy="9" r="9" transform="translate(600.464 2113)" fill="#3c0061"/>
      <circle id="Elipse_4726" data-name="Elipse 4726" cx="9" cy="9" r="9" transform="translate(686.464 2145)" fill="#3c0061"/>
      <circle id="Elipse_4721" data-name="Elipse 4721" cx="9" cy="9" r="9" transform="translate(562.464 2178)" fill="#3c0061"/>
      <circle id="Elipse_4720" data-name="Elipse 4720" cx="9" cy="9" r="9" transform="translate(686.464 2208)" fill="#3c0061"/>
      <circle id="Elipse_4723" data-name="Elipse 4723" cx="9" cy="9" r="9" transform="translate(790.464 2196)" fill="#3c0061"/>
      <circle id="Elipse_4727" data-name="Elipse 4727" cx="9" cy="9" r="9" transform="translate(850.464 2103)" fill="#3c0061"/>
      <circle id="Elipse_4728" data-name="Elipse 4728" cx="9" cy="9" r="9" transform="translate(802.464 2006)" fill="#3c0061"/>
      <circle id="Elipse_4719" data-name="Elipse 4719" cx="9" cy="9" r="9" transform="translate(642.464 2040)" fill="#3c0061"/>
      <circle id="Elipse_4722" data-name="Elipse 4722" cx="9" cy="9" r="9" transform="translate(723.464 2085)" fill="#3c0061"/>
      <circle id="Elipse_4725" data-name="Elipse 4725" cx="9" cy="9" r="9" transform="translate(772.464 2067)" fill="#3c0061"/>
      <circle id="Elipse_4724" data-name="Elipse 4724" cx="9" cy="9" r="9" transform="translate(737.464 2040)" fill="#3c0061"/>
      <circle id="Elipse_4717" data-name="Elipse 4717" cx="9" cy="9" r="9" transform="translate(520.464 2085)" fill="#3c0061"/>
      <circle id="Elipse_4718" data-name="Elipse 4718" cx="9" cy="9" r="9" transform="translate(705.464 1975)" fill="#3c0061"/>
      <g id="Elipse_4729" data-name="Elipse 4729" transform="translate(697.464 2020)" fill="none" stroke="#00cca7" stroke-width="2">
        <circle cx="52.5" cy="52.5" r="52.5" stroke="none"/>
        <circle cx="52.5" cy="52.5" r="51.5" fill="none"/>
      </g>
      <g id="Grupo_1013323" data-name="Grupo 1013323" transform="translate(31 -282)">
        <line id="Línea_2519" data-name="Línea 2519" y1="113" x2="153" transform="translate(762 2212)" fill="none" stroke="#00cca7" stroke-width="2"/>
        <path id="Polígono_40" data-name="Polígono 40" d="M7,0l7,12H0Z" transform="translate(918.721 2199.784) rotate(51)" fill="#00cca7"/>
      </g>
      <g id="Grupo_1013324" data-name="Grupo 1013324" transform="translate(1641.524 -231.445) rotate(36)">
        <line id="Línea_2519-2" data-name="Línea 2519" y1="71.678" x2="97.051" transform="translate(762 2207.533)" fill="none" stroke="#b3009d" stroke-width="2"/>
        <path id="Polígono_40-2" data-name="Polígono 40" d="M6.24,0l6.24,10.7H0Z" transform="translate(862.714 2196.951) rotate(51)" fill="#b3009d"/>
      </g>
      <path id="Polígono_40-3" data-name="Polígono 40" d="M6.24,0l6.24,10.7H0Z" transform="translate(1044.728 2197) rotate(88)" fill="#3c0061"/>
      <path id="Trazado_116740" data-name="Trazado 116740" d="M3.258-11.375,6.977-2.094,10.7-11.375h1.945V0h-1.5V-4.43l.141-4.781L7.547,0H6.4L2.672-9.187,2.82-4.43V0H1.32V-11.375ZM20.281-.836A3.07,3.07,0,0,1,17.8.156a2.628,2.628,0,0,1-2.059-.785,3.4,3.4,0,0,1-.715-2.324v-5.5h1.445v5.461q0,1.922,1.563,1.922a2.163,2.163,0,0,0,2.2-1.234V-8.453h1.445V0H20.313Zm7.109.992a3.693,3.693,0,0,1-2.8-1.129,4.19,4.19,0,0,1-1.078-3.02v-.266A5.073,5.073,0,0,1,24-6.5,3.748,3.748,0,0,1,25.34-8.051a3.378,3.378,0,0,1,1.871-.559,3.166,3.166,0,0,1,2.563,1.086,4.7,4.7,0,0,1,.914,3.109v.6H24.961a3,3,0,0,0,.73,2.02,2.3,2.3,0,0,0,1.777.77,2.517,2.517,0,0,0,1.3-.312,3.259,3.259,0,0,0,.93-.828l.883.688A3.55,3.55,0,0,1,27.391.156Zm-.18-7.578a1.928,1.928,0,0,0-1.469.637A3.1,3.1,0,0,0,25.008-5h4.234v-.109a2.753,2.753,0,0,0-.594-1.707A1.815,1.815,0,0,0,27.211-7.422Zm10.07,5.18a1.064,1.064,0,0,0-.441-.91A4.249,4.249,0,0,0,35.3-3.711a7.277,7.277,0,0,1-1.742-.562,2.479,2.479,0,0,1-.953-.781A1.869,1.869,0,0,1,32.3-6.133a2.193,2.193,0,0,1,.879-1.758,3.432,3.432,0,0,1,2.246-.719,3.532,3.532,0,0,1,2.332.742,2.357,2.357,0,0,1,.895,1.9H37.2a1.3,1.3,0,0,0-.5-1.023,1.888,1.888,0,0,0-1.27-.43,1.976,1.976,0,0,0-1.234.344,1.082,1.082,0,0,0-.445.9.877.877,0,0,0,.414.789,5.1,5.1,0,0,0,1.5.508,7.8,7.8,0,0,1,1.754.578,2.558,2.558,0,0,1,1,.809,1.988,1.988,0,0,1,.324,1.152A2.163,2.163,0,0,1,37.82-.527a3.8,3.8,0,0,1-2.352.684,4.257,4.257,0,0,1-1.8-.359,2.922,2.922,0,0,1-1.223-1A2.42,2.42,0,0,1,32.008-2.6h1.445a1.5,1.5,0,0,0,.582,1.152,2.258,2.258,0,0,0,1.434.426,2.331,2.331,0,0,0,1.316-.332A1.02,1.02,0,0,0,37.281-2.242ZM42.57-10.5v2.047h1.578v1.117H42.57v5.249a1.173,1.173,0,0,0,.211.763.888.888,0,0,0,.719.254,3.5,3.5,0,0,0,.688-.094V0a4.215,4.215,0,0,1-1.109.155A1.8,1.8,0,0,1,41.617-.43a2.517,2.517,0,0,1-.492-1.664V-7.336H39.586V-8.453h1.539V-10.5Zm7.352,3.344a4.331,4.331,0,0,0-.711-.055A1.9,1.9,0,0,0,47.281-6V0H45.836V-8.453h1.406l.023.977a2.251,2.251,0,0,1,2.016-1.133,1.477,1.477,0,0,1,.641.109ZM56.156,0a3.036,3.036,0,0,1-.2-.891A3.225,3.225,0,0,1,53.547.156,2.984,2.984,0,0,1,51.5-.551a2.287,2.287,0,0,1-.8-1.793,2.39,2.39,0,0,1,1-2.051,4.733,4.733,0,0,1,2.824-.73H55.93v-.664A1.623,1.623,0,0,0,55.477-7a1.821,1.821,0,0,0-1.336-.449,2.107,2.107,0,0,0-1.3.391,1.151,1.151,0,0,0-.523.945H50.867a2,2,0,0,1,.449-1.223,3.066,3.066,0,0,1,1.219-.934,4.1,4.1,0,0,1,1.691-.344,3.342,3.342,0,0,1,2.289.73,2.635,2.635,0,0,1,.859,2.012v3.891a4.757,4.757,0,0,0,.3,1.852V0Zm-2.4-1.1a2.54,2.54,0,0,0,1.289-.352,2.127,2.127,0,0,0,.883-.914V-4.1H54.8q-2.656,0-2.656,1.555a1.316,1.316,0,0,0,.453,1.063A1.742,1.742,0,0,0,53.758-1.1Z" transform="translate(972.464 1923)" fill="#12263f"/>
      <path id="Trazado_116741" data-name="Trazado 116741" d="M2.82-4.453V0H1.32V-11.375h4.2a4.215,4.215,0,0,1,2.926.953A3.231,3.231,0,0,1,9.5-7.9,3.189,3.189,0,0,1,8.465-5.348,4.4,4.4,0,0,1,5.5-4.453Zm0-1.227h2.7a2.7,2.7,0,0,0,1.844-.567A2.075,2.075,0,0,0,8-7.887a2.143,2.143,0,0,0-.641-1.628A2.525,2.525,0,0,0,5.6-10.148H2.82ZM10.7-4.3a4.993,4.993,0,0,1,.488-2.234A3.643,3.643,0,0,1,12.551-8.07a3.7,3.7,0,0,1,1.988-.539,3.565,3.565,0,0,1,2.793,1.2A4.6,4.6,0,0,1,18.4-4.234v.1a5.036,5.036,0,0,1-.473,2.215A3.589,3.589,0,0,1,16.574-.391a3.743,3.743,0,0,1-2.02.547,3.556,3.556,0,0,1-2.785-1.2A4.575,4.575,0,0,1,10.7-4.2Zm1.453.172a3.616,3.616,0,0,0,.652,2.258,2.088,2.088,0,0,0,1.746.852,2.075,2.075,0,0,0,1.75-.863A3.955,3.955,0,0,0,16.953-4.3a3.61,3.61,0,0,0-.66-2.254,2.1,2.1,0,0,0-1.754-.863,2.075,2.075,0,0,0-1.727.852A3.925,3.925,0,0,0,12.156-4.133Zm15.211,0a5.026,5.026,0,0,1-.891,3.113A2.846,2.846,0,0,1,24.086.156,2.947,2.947,0,0,1,21.609-.977L21.539,0H20.211V-12h1.445v4.477A2.93,2.93,0,0,1,24.07-8.609a2.863,2.863,0,0,1,2.418,1.164,5.177,5.177,0,0,1,.879,3.188ZM25.922-4.3a3.906,3.906,0,0,0-.57-2.281,1.888,1.888,0,0,0-1.641-.8,2.122,2.122,0,0,0-2.055,1.328V-2.4a2.181,2.181,0,0,0,2.07,1.328,1.878,1.878,0,0,0,1.617-.8A4.153,4.153,0,0,0,25.922-4.3ZM30.758,0H29.313V-12h1.445Zm7.531,0a3.036,3.036,0,0,1-.2-.891A3.225,3.225,0,0,1,35.68.156a2.984,2.984,0,0,1-2.051-.707,2.287,2.287,0,0,1-.8-1.793,2.39,2.39,0,0,1,1-2.051,4.733,4.733,0,0,1,2.824-.73h1.406v-.664A1.623,1.623,0,0,0,37.609-7a1.821,1.821,0,0,0-1.336-.449,2.107,2.107,0,0,0-1.3.391,1.151,1.151,0,0,0-.523.945H33a2,2,0,0,1,.449-1.223,3.066,3.066,0,0,1,1.219-.934,4.1,4.1,0,0,1,1.691-.344,3.342,3.342,0,0,1,2.289.73,2.635,2.635,0,0,1,.859,2.012v3.891a4.757,4.757,0,0,0,.3,1.852V0Zm-2.4-1.1a2.54,2.54,0,0,0,1.289-.352,2.127,2.127,0,0,0,.883-.914V-4.1H36.93q-2.656,0-2.656,1.555a1.316,1.316,0,0,0,.453,1.063A1.742,1.742,0,0,0,35.891-1.1Zm9.273.078a2.082,2.082,0,0,0,1.352-.469,1.649,1.649,0,0,0,.641-1.172h1.367a2.621,2.621,0,0,1-.5,1.383,3.293,3.293,0,0,1-1.23,1.047,3.55,3.55,0,0,1-1.629.391A3.482,3.482,0,0,1,42.418-1,4.59,4.59,0,0,1,41.4-4.148v-.242a5.089,5.089,0,0,1,.453-2.2,3.451,3.451,0,0,1,1.3-1.492,3.7,3.7,0,0,1,2-.531,3.39,3.39,0,0,1,2.363.852,3.043,3.043,0,0,1,1,2.211H47.156a1.992,1.992,0,0,0-.621-1.348,1.932,1.932,0,0,0-1.379-.527,2.023,2.023,0,0,0-1.707.793,3.724,3.724,0,0,0-.605,2.293v.273a3.65,3.65,0,0,0,.6,2.25A2.033,2.033,0,0,0,45.164-1.023ZM51.719,0H50.273V-8.453h1.445ZM50.156-10.7a.863.863,0,0,1,.215-.594.807.807,0,0,1,.637-.242.819.819,0,0,1,.641.242.854.854,0,0,1,.219.594.826.826,0,0,1-.219.586.834.834,0,0,1-.641.234.821.821,0,0,1-.637-.234A.834.834,0,0,1,50.156-10.7ZM53.648-4.3a4.993,4.993,0,0,1,.488-2.234A3.643,3.643,0,0,1,55.5-8.07a3.7,3.7,0,0,1,1.988-.539,3.565,3.565,0,0,1,2.793,1.2,4.6,4.6,0,0,1,1.066,3.18v.1a5.036,5.036,0,0,1-.473,2.215A3.589,3.589,0,0,1,59.52-.391,3.743,3.743,0,0,1,57.5.156a3.556,3.556,0,0,1-2.785-1.2A4.575,4.575,0,0,1,53.648-4.2Zm1.453.172a3.616,3.616,0,0,0,.652,2.258,2.088,2.088,0,0,0,1.746.852,2.075,2.075,0,0,0,1.75-.863A3.955,3.955,0,0,0,59.9-4.3a3.61,3.61,0,0,0-.66-2.254,2.1,2.1,0,0,0-1.754-.863,2.075,2.075,0,0,0-1.727.852A3.925,3.925,0,0,0,55.1-4.133ZM58.141-12h1.75L57.8-9.7l-1.164,0Zm6.383,3.547.047,1.063A3.08,3.08,0,0,1,67.1-8.609q2.68,0,2.7,3.023V0H68.359V-5.594a1.946,1.946,0,0,0-.418-1.352,1.675,1.675,0,0,0-1.277-.437,2.086,2.086,0,0,0-1.234.375,2.546,2.546,0,0,0-.828.984V0H63.156V-8.453Z" transform="translate(1065.464 2065)" fill="#12263f"/>
      <path id="Trazado_116742" data-name="Trazado 116742" d="M2.93,0H1.43V-11.375h1.5ZM6.813-8.453l.047,1.063A3.08,3.08,0,0,1,9.391-8.609q2.68,0,2.7,3.023V0H10.648V-5.594a1.946,1.946,0,0,0-.418-1.352,1.675,1.675,0,0,0-1.277-.437,2.086,2.086,0,0,0-1.234.375,2.546,2.546,0,0,0-.828.984V0H5.445V-8.453ZM13.922-4.3a4.952,4.952,0,0,1,.922-3.129,2.915,2.915,0,0,1,2.414-1.184,2.932,2.932,0,0,1,2.352,1.016V-12h1.445V0H19.727l-.07-.906A2.943,2.943,0,0,1,17.242.156a2.887,2.887,0,0,1-2.395-1.2,5.008,5.008,0,0,1-.926-3.141Zm1.445.164a3.749,3.749,0,0,0,.594,2.25A1.92,1.92,0,0,0,17.6-1.07,2.108,2.108,0,0,0,19.609-2.3V-6.187a2.125,2.125,0,0,0-1.992-1.2,1.929,1.929,0,0,0-1.656.82A4.128,4.128,0,0,0,15.367-4.133ZM24.867,0H23.422V-8.453h1.445ZM23.3-10.7a.863.863,0,0,1,.215-.594.807.807,0,0,1,.637-.242.819.819,0,0,1,.641.242.854.854,0,0,1,.219.594.826.826,0,0,1-.219.586.834.834,0,0,1-.641.234.821.821,0,0,1-.637-.234A.834.834,0,0,1,23.3-10.7Zm6.664,8.734,2.094-6.492h1.477L30.508,0h-1.1L26.344-8.453H27.82ZM36.5,0H35.055V-8.453H36.5ZM34.938-10.7a.863.863,0,0,1,.215-.594.807.807,0,0,1,.637-.242.819.819,0,0,1,.641.242.854.854,0,0,1,.219.594.826.826,0,0,1-.219.586.834.834,0,0,1-.641.234.821.821,0,0,1-.637-.234A.834.834,0,0,1,34.938-10.7Zm3.523,6.4a4.952,4.952,0,0,1,.922-3.129A2.915,2.915,0,0,1,41.8-8.609a2.932,2.932,0,0,1,2.352,1.016V-12h1.445V0H44.266L44.2-.906A2.943,2.943,0,0,1,41.781.156a2.887,2.887,0,0,1-2.395-1.2,5.008,5.008,0,0,1-.926-3.141Zm1.445.164a3.749,3.749,0,0,0,.594,2.25,1.92,1.92,0,0,0,1.641.813A2.108,2.108,0,0,0,44.148-2.3V-6.187a2.125,2.125,0,0,0-1.992-1.2,1.929,1.929,0,0,0-1.656.82A4.128,4.128,0,0,0,39.906-4.133Zm13.148,3.3a3.07,3.07,0,0,1-2.477.992A2.628,2.628,0,0,1,48.52-.629,3.4,3.4,0,0,1,47.8-2.953v-5.5H49.25v5.461q0,1.922,1.563,1.922a2.163,2.163,0,0,0,2.2-1.234V-8.453h1.445V0H53.086ZM56.273-4.3a4.993,4.993,0,0,1,.488-2.234A3.643,3.643,0,0,1,58.121-8.07a3.7,3.7,0,0,1,1.988-.539,3.565,3.565,0,0,1,2.793,1.2,4.6,4.6,0,0,1,1.066,3.18v.1A5.036,5.036,0,0,1,63.5-1.918,3.589,3.589,0,0,1,62.145-.391a3.743,3.743,0,0,1-2.02.547,3.556,3.556,0,0,1-2.785-1.2A4.575,4.575,0,0,1,56.273-4.2Zm1.453.172a3.616,3.616,0,0,0,.652,2.258,2.088,2.088,0,0,0,1.746.852,2.075,2.075,0,0,0,1.75-.863A3.955,3.955,0,0,0,62.523-4.3a3.61,3.61,0,0,0-.66-2.254,2.1,2.1,0,0,0-1.754-.863,2.075,2.075,0,0,0-1.727.852A3.925,3.925,0,0,0,57.727-4.133Z" transform="translate(1065.464 2209)" fill="#12263f"/>
      <path id="Trazado_116727" data-name="Trazado 116727" d="M3723.036-9495h235.631" transform="translate(-2922.536 11698.5)" fill="none" stroke="#3c0061" stroke-width="2"/>
    </g>
  </g>
</svg>
