<svg xmlns="http://www.w3.org/2000/svg" xmlns:xlink="http://www.w3.org/1999/xlink" width="1030" height="984.698" viewBox="0 0 1030 984.698">
  <defs>
    <clipPath id="clip-path">
      <rect id="Rectángulo_34378" data-name="Rectángulo 34378" width="1030" height="197.28" transform="translate(0 0.832)" fill="#fff"/>
    </clipPath>
  </defs>
  <g id="Grupo_1013344" data-name="Grupo 1013344" transform="translate(-285 -4927)">
    <g id="Group" transform="translate(352.571 5146.084)">
      <path id="Trazado_116658" data-name="Trazado 116658" d="M91.839,208.916V99.252" transform="translate(11.586 12.395)" fill="none" stroke="#fa8537" stroke-linecap="round" stroke-linejoin="round" stroke-width="3.516"/>
      <path id="Trazado_116659" data-name="Trazado 116659" d="M273.658,176.482V66.835" transform="translate(34.759 8.263)" fill="none" stroke="#ea5e86" stroke-linecap="round" stroke-linejoin="round" stroke-width="3.516"/>
      <path id="Trazado_116660" data-name="Trazado 116660" d="M455.491,144.065V34.417" transform="translate(57.933 4.132)" fill="none" stroke="#b3009d" stroke-linecap="round" stroke-linejoin="round" stroke-width="3.516"/>
      <path id="Trazado_116661" data-name="Trazado 116661" d="M637.31,111.647V2" transform="translate(81.106)" fill="none" stroke="#33a4ff" stroke-linecap="round" stroke-linejoin="round" stroke-width="3.516"/>
      <path id="Trazado_116662" data-name="Trazado 116662" d="M671.281,18.743l3.947,27.564,29.76,14.038" transform="translate(85.436 2.134)" fill="none" stroke="#67879c" stroke-miterlimit="22.93" stroke-width="1.406"/>
      <path id="Trazado_116663" data-name="Trazado 116663" d="M700.919,18.275,676.955,46.368,657.731,60.406" transform="translate(83.709 2.074)" fill="none" stroke="#67879c" stroke-miterlimit="22.93" stroke-width="1.406"/>
      <path id="Trazado_116664" data-name="Trazado 116664" d="M546.4,120.988,648.9,69.31l102.512,51.628L648.9,172.616Z" transform="translate(69.52 8.579)" fill="#69bcff" fill-rule="evenodd"/>
      <path id="Trazado_116665" data-name="Trazado 116665" d="M546.4,115.146V297.908l102.5,51.628V166.774Z" transform="translate(69.52 14.42)" fill="#33a4ff" fill-rule="evenodd"/>
      <path id="Trazado_116666" data-name="Trazado 116666" d="M739.823,115.146V297.908L637.31,349.536V166.774Z" transform="translate(81.106 14.42)" fill="#107bd2" fill-rule="evenodd"/>
      <path id="Trazado_116667" data-name="Trazado 116667" d="M674.256,106.552a19.407,19.407,0,0,0-6.094,1.784c-2.312,1.173-3.683,2.692-3.931,4.294-3.418.462-6.821.925-10.256,1.387a11.017,11.017,0,0,0-1.6-.974,15.184,15.184,0,0,0-1.9-.793c.909-1.718,1.816-3.435,2.742-5.169a21.55,21.55,0,0,0,8.555-1.982,7.748,7.748,0,0,0,3.5-3.055c1.949-3.65-2.362-7.416-9.6-8.39-4.673-.628-9.695.05-13.113,1.784a7.77,7.77,0,0,0-3.5,3.072c-.941,1.751-.446,3.6,1.354,5.186a12.17,12.17,0,0,0,4.062,2.229q-1.361,2.577-2.725,5.154a24.613,24.613,0,0,0-4.789.644c-2.494-1.255-5-2.527-7.5-3.783,2.395-2.527,1.52-5.681-2.643-7.778-5.284-2.659-13.906-2.659-19.191,0-5.3,2.676-5.3,7.02-.016,9.678,4.161,2.1,10.421,2.544,15.458,1.321,2.494,1.255,5,2.527,7.5,3.781a4.329,4.329,0,0,0-1.272,2.412c-3.418.462-6.854.925-10.255,1.388-3.172-2.329-9.018-3.519-14.715-2.725a19.835,19.835,0,0,0-6.061,1.75c-3.42,1.734-4.774,4.262-3.535,6.623.924,1.768,3.2,3.254,6.309,4.163a25.509,25.509,0,0,0,10.3.693,19.066,19.066,0,0,0,6.061-1.784c2.312-1.173,3.683-2.708,3.931-4.294,3.418-.462,6.821-.924,10.256-1.387a11.1,11.1,0,0,0,1.585.958,15.648,15.648,0,0,0,1.932.808c-.926,1.734-1.817,3.435-2.742,5.169a21.541,21.541,0,0,0-8.555,1.982,7.748,7.748,0,0,0-3.5,3.055c-1.932,3.634,2.378,7.4,9.595,8.39a23.824,23.824,0,0,0,13.147-1.784,7.79,7.79,0,0,0,3.485-3.055c1.536-2.874-.826-5.814-5.417-7.416.908-1.717,1.816-3.434,2.741-5.169a23.69,23.69,0,0,0,4.774-.644c2.494,1.255,5,2.527,7.5,3.783-2.395,2.544-1.536,5.7,2.643,7.8,5.285,2.659,13.906,2.659,19.208,0,5.284-2.66,5.284-7,0-9.678-4.179-2.1-10.388-2.544-15.46-1.338-2.493-1.255-5-2.527-7.5-3.781a4.362,4.362,0,0,0,1.289-2.412c3.418-.462,6.82-.925,10.255-1.371a13.882,13.882,0,0,0,4.411,2.049,25.136,25.136,0,0,0,10.289.676,19.734,19.734,0,0,0,6.094-1.767c3.419-1.734,4.773-4.262,3.5-6.623-1.932-3.651-9.381-5.814-16.6-4.839ZM639.59,119.5c-1.767-.892-1.767-2.328,0-3.22a7.972,7.972,0,0,1,6.393,0c1.767.892,1.767,2.345,0,3.237a7.972,7.972,0,0,1-6.393,0Zm8.654-18.084a1.359,1.359,0,0,1-.445-1.734,2.8,2.8,0,0,1,1.172-1.024,8.186,8.186,0,0,1,4.393-.595c2.4.33,3.832,1.569,3.2,2.791a2.792,2.792,0,0,1-1.173,1.024,8.22,8.22,0,0,1-4.393.6,5.228,5.228,0,0,1-2.742-1.058Zm-34.236,1.965a7.969,7.969,0,0,1,6.391,0c1.75.892,1.767,2.329,0,3.221a7.969,7.969,0,0,1-6.391,0C612.24,105.71,612.24,104.272,614.008,103.381Zm-2.99,20.86a6.546,6.546,0,0,1-2.031.594,8.309,8.309,0,0,1-3.4-.231,3.374,3.374,0,0,1-2.131-1.388c-.413-.793.034-1.635,1.189-2.213a6.049,6.049,0,0,1,2.015-.577c2.412-.33,4.921.4,5.532,1.618C612.62,122.82,612.174,123.662,611.018,124.241Zm26.755,11.891a2.479,2.479,0,0,1-1.14,1.007,7.9,7.9,0,0,1-4.393.6c-2.395-.33-3.832-1.586-3.2-2.792a2.516,2.516,0,0,1,1.173-1.024,7.834,7.834,0,0,1,4.36-.6c2.412.315,3.848,1.569,3.2,2.792Zm33.825-3.716a7.969,7.969,0,0,1-6.391,0c-1.768-.892-1.768-2.329,0-3.221a7.969,7.969,0,0,1,6.391,0C673.348,130.086,673.365,131.524,671.6,132.416Zm10.536-19.835c.43.793-.033,1.635-1.188,2.2a6.117,6.117,0,0,1-2.032.594,8.333,8.333,0,0,1-3.4-.231,3.308,3.308,0,0,1-2.13-1.387c-.414-.793.033-1.635,1.188-2.2a6.171,6.171,0,0,1,2.032-.594C679,110.631,681.507,111.358,682.134,112.581Z" transform="translate(75.622 11.652)" fill="#fff" fill-rule="evenodd" opacity="0.5"/>
      <path id="Trazado_116668" data-name="Trazado 116668" d="M364.582,153.422l102.5-51.694,102.5,51.628-102.5,51.677Z" transform="translate(46.347 12.71)" fill="#db00c0" fill-rule="evenodd"/>
      <path id="Trazado_116669" data-name="Trazado 116669" d="M364.582,147.578v146.2l102.5,51.628V199.189Z" transform="translate(46.347 18.554)" fill="#b3009d" fill-rule="evenodd"/>
      <path id="Trazado_116670" data-name="Trazado 116670" d="M557.987,147.578v146.2L455.491,345.4V199.189Z" transform="translate(57.933 18.554)" fill="#a3038f" fill-rule="evenodd"/>
      <path id="Trazado_116671" data-name="Trazado 116671" d="M182.748,185.84l102.5-51.695,102.512,51.628L285.244,237.451Z" transform="translate(23.173 16.842)" fill="#ff80a4" fill-rule="evenodd"/>
      <path id="Trazado_116672" data-name="Trazado 116672" d="M182.748,180V289.643l102.5,51.628V231.607Z" transform="translate(23.173 22.685)" fill="#ea5e86" fill-rule="evenodd"/>
      <path id="Trazado_116673" data-name="Trazado 116673" d="M376.17,180V289.643L273.658,341.271V231.607Z" transform="translate(34.759 22.685)" fill="#d84871" fill-rule="evenodd"/>
      <path id="Trazado_116674" data-name="Trazado 116674" d="M324.368,275.925l-4.724-7.73-4.706,12.486,3.716-1.883v25.912l2-.991V277.791Z" transform="translate(40.02 33.926)" fill="#fcabc1" fill-rule="evenodd"/>
      <path id="Trazado_116675" data-name="Trazado 116675" d="M292.959,153.615h-25.6c-2.493,0-4.524,1.008-4.524,2.28v12.915c0,.909,1.106,1.751,2.807,2.1a8.135,8.135,0,0,0,4.921-.5c1.073-.545,2.131-1.073,3.2-1.618l19.208,9.678q9.587,4.83,19.19,9.678l-6.392,3.22c-8.521-4.293-17.076-8.6-25.6-12.915a7.969,7.969,0,0,0-6.392,0q-6.416,3.245-12.817,6.458c-1.767.892-1.767,2.328,0,3.22,8.522,4.31,17.077,8.6,25.6,12.915l-6.392,3.221q-5.872-2.948-11.742-5.912a7.969,7.969,0,0,0-6.392,0q-6.393,3.22-12.8,6.457c-1.784.892-1.768,2.329,0,3.221q7.482,3.765,14.947,7.531a7.969,7.969,0,0,0,6.392,0q15.978-8.052,31.974-16.12,16.027-8.075,32.023-16.135c1.768-.892,1.768-2.329,0-3.221q-10.4-5.251-20.792-10.488t-20.809-10.488c1.073-.545,2.13-1.073,3.2-1.618,1.289-.661,1.684-1.635.991-2.494a5.724,5.724,0,0,0-4.178-1.4Zm-25.6,57.128c-2.857-1.421-5.7-2.857-8.555-4.294l6.392-3.22c2.858,1.436,5.7,2.874,8.555,4.294Zm25.583-12.9q-11.2-5.649-22.411-11.28l6.424-3.238q11.223,5.649,22.413,11.28C297.22,195.7,295.09,196.77,292.942,197.845Zm25.6-12.916q-10.406-5.251-20.794-10.488-10.4-5.251-20.809-10.486a8.076,8.076,0,0,0-5.07-.463v-5.318h10.536c-.743.843-.43,1.867.941,2.56q10.406,5.253,20.81,10.488,10.4,5.251,20.792,10.488c-2.147,1.073-4.278,2.147-6.424,3.22Z" transform="translate(31.477 19.321)" fill="#fff" fill-rule="evenodd" opacity="0.5"/>
      <path id="Trazado_116676" data-name="Trazado 116676" d="M.929,218.257l102.5-51.694,102.5,51.627-102.5,51.695Z" transform="translate(0 20.973)" fill="#ffd843" fill-rule="evenodd"/>
      <path id="Trazado_116677" data-name="Trazado 116677" d="M.929,212.413v73.1l102.5,51.628v-73.1Z" transform="translate(0 26.817)" fill="#ffca00" fill-rule="evenodd"/>
      <path id="Trazado_116678" data-name="Trazado 116678" d="M194.334,212.413v73.1l-102.5,51.628v-73.1Z" transform="translate(11.586 26.817)" fill="#f2c000" fill-rule="evenodd"/>
      <path id="Trazado_116679" data-name="Trazado 116679" d="M142.551,298.908l-4.724-7.729L133.1,303.664l3.732-1.883,1.982-.991Z" transform="translate(16.846 36.856)" fill="#ffd4b7" fill-rule="evenodd"/>
      <path id="Trazado_116680" data-name="Trazado 116680" d="M130.057,253.879v8.043l4.442-2.246V289.2l6.028-3.022V248.61Z" transform="translate(16.457 31.43)" fill="#ffd4b7" fill-rule="evenodd"/>
      <path id="Trazado_116681" data-name="Trazado 116681" d="M317.85,239.3l-8.406,18.266.033,6.475,17.606-8.853v-7.877l-9.893,4.971,4.757-10.108c2.576-5.532,4.493-10.719,4.493-14.8,0-5.946-3.4-8.209-8.077-5.864-3.369,1.686-6.589,5.45-9.562,10.488l2.279,6.1c2.148-4.031,4.526-7.036,6.391-7.978,1.684-.842,2.643-.148,2.643,1.883,0,1.6-.958,4.493-2.246,7.283Z" transform="translate(39.238 27.86)" fill="#fcabc1" fill-rule="evenodd"/>
      <path id="Trazado_116682" data-name="Trazado 116682" d="M505.012,208.067l-1.157.313,6.227-12.552v-5.681l-16.153,8.11.034,7.547,8.9-4.476-5.4,11.116v5.269l3.9-1.949c2.577-1.288,4-.445,4,2.56a7.1,7.1,0,0,1-3.963,6.655c-2.213,1.107-4.394.594-6.194-1.553l-2.444,8.786c2.247,1.669,5.732,1.734,9.1.034,5.731-2.874,9.4-9.761,9.4-17,0-5.748-2.576-8.109-6.227-7.184Z" transform="translate(62.683 23.979)" fill="#e6aee4" fill-rule="evenodd"/>
      <path id="Trazado_116683" data-name="Trazado 116683" d="M679.292,160.5l-6.854,26.326v6.59l10.454-5.236v8.142l5.549-2.792V185.39L691.4,183.9v-7.448l-2.956,1.486v-7.927l-5.549,2.775.034,7.927-4.311,2.164,6.425-25.253Z" transform="translate(85.583 19.834)" fill="#97c9ea" fill-rule="evenodd"/>
      <path id="Trazado_116684" data-name="Trazado 116684" d="M502.3,128.526c-1.123-1.123-2.246-2.263-3.352-3.4-1.057-1.058-3.617-1.486-5.731-.958-2.1.529-2.957,1.817-1.917,2.891.892.892,1.751,1.784,2.643,2.659-1.668.842-3.319,1.684-4.988,2.528-9.216-3.865-20.71-5.665-32.024-5.417s-22.526,2.527-31.165,6.886c-9.132,4.608-13.708,10.669-13.708,16.714s4.558,12.122,13.692,16.73c9.132,4.624,21.172,6.92,33.18,6.92s24.013-2.312,33.147-6.92c8.654-4.36,13.2-10.008,13.675-15.706.479-5.714-3.105-11.511-10.785-16.152,1.669-.843,3.32-1.669,4.988-2.528,1.784.446,3.535.892,5.318,1.338a7.714,7.714,0,0,0,4.906-.4,2.927,2.927,0,0,0,.793-.561c1.056-1.073.214-2.362-1.9-2.89-2.263-.561-4.526-1.123-6.787-1.7Zm-16.251,35.557c-7.482,3.766-17.324,5.665-27.135,5.665s-19.637-1.9-27.119-5.682c-7.482-3.765-11.23-8.72-11.23-13.658s3.749-9.909,11.23-13.692c6.97-3.518,15.987-5.4,25.136-5.632s18.432,1.173,25.963,4.2c-2.032,1.024-4.062,2.047-6.078,3.055-11.66-4.409-28.356-3.93-38.976,1.421-11.627,5.863-11.627,15.409,0,21.272,11.626,5.88,30.57,5.88,42.214,0,10.619-5.351,11.544-13.774,2.807-19.654,2.032-1.007,4.062-2.032,6.077-3.055,6.028,3.783,8.8,8.473,8.324,13.081-.478,4.625-4.194,9.149-11.181,12.667Zm-21.619-19.5c-4.757-1.123-10.619-.726-14.567,1.272-4.988,2.511-4.988,6.607,0,9.117,4.988,2.527,13.1,2.527,18.084,0,3.947-1.982,4.789-4.954,2.511-7.35,2.08-1.04,4.178-2.1,6.258-3.138,5.467,4.163,4.559,9.86-2.741,13.526-8.307,4.2-21.834,4.2-30.141,0s-8.307-11,0-15.193c7.3-3.666,18.58-4.129,26.855-1.371-2.081,1.056-4.178,2.1-6.26,3.155Z" transform="translate(52.398 15.541)" fill="#fff" fill-rule="evenodd" opacity="0.5"/>
      <path id="Trazado_116685" data-name="Trazado 116685" d="M64.583,197.273c-13.526,6.821-13.543,17.92-.016,24.741,9.034,4.558,22.246,6.21,34.336,4.409,4.195,2.114,8.39,4.245,12.585,6.342a7.969,7.969,0,0,0,6.392,0c.594-.3,1.189-.594,1.8-.909a18.606,18.606,0,0,0,11.015-1.255c2.973-1.486,3.8-3.666,2.478-5.549.594-.3,1.188-.594,1.784-.908,1.767-.893,1.767-2.329,0-3.221l-12.585-6.342c3.583-6.094.313-12.75-8.738-17.309C100.108,190.452,78.092,190.468,64.583,197.273Zm52.6,21.157c2.725,1.371,5.45,2.758,8.175,4.129-3.551,1.8-7.119,3.584-10.686,5.385-2.725-1.371-5.45-2.759-8.175-4.129C110.066,222.013,113.634,220.23,117.185,218.429Zm-3.9-4.492q-7.854,3.962-15.69,7.91c-9.282,1.652-19.637.479-26.656-3.055-9.975-5.037-9.975-13.245.016-18.283,9.975-5.037,26.26-5.037,36.252,0,7.02,3.535,9.332,8.754,6.061,13.444Z" transform="translate(6.819 24.236)" fill="#fff" fill-rule="evenodd" opacity="0.5"/>
      <path id="Trazado_116686" data-name="Trazado 116686" d="M506.2,245.587l-4.724-7.729-4.723,12.485,3.732-1.883v60.117l1.982-.991V247.454Z" transform="translate(63.193 30.06)" fill="#e6aee4" fill-rule="evenodd"/>
      <path id="Trazado_116687" data-name="Trazado 116687" d="M688.021,211.529,683.3,203.8l-4.707,12.485,3.716-1.883v98.515l1.982-.991V213.4Z" transform="translate(86.367 25.719)" fill="#97c9ea" fill-rule="evenodd"/>
      <path id="Trazado_116688" data-name="Trazado 116688" d="M146.6,127.436h-8.241v24.592H146.6Z" transform="translate(17.516 15.987)" fill="#33a4ff"/>
      <path id="Trazado_116689" data-name="Trazado 116689" d="M135.5,108.247h-8.242v46.227H135.5Z" transform="translate(16.101 13.541)" fill="#b3009d"/>
      <path id="Trazado_116690" data-name="Trazado 116690" d="M124.382,126.206h-8.241v25.979h8.241Z" transform="translate(14.684 15.83)" fill="#ea5e86"/>
      <path id="Trazado_116691" data-name="Trazado 116691" d="M113.279,121.738h-8.242v31.016h8.242Z" transform="translate(13.268 15.26)" fill="#ffca00"/>
      <path id="Trazado_116692" data-name="Trazado 116692" d="M163.387,152.163h-58.35v6.574h58.35Z" transform="translate(13.268 19.138)" fill="#67879c"/>
      <path id="Trazado_116693" data-name="Trazado 116693" d="M157.723,143.154h-8.242v6.871h8.242Z" transform="translate(18.933 17.99)" fill="#1ccad6"/>
      <path id="Trazado_116694" data-name="Trazado 116694" d="M320.2,138.142a30.637,30.637,0,1,0-30.636-30.637A30.637,30.637,0,0,0,320.2,138.142Z" transform="translate(36.786 9.542)" fill="#ffa86e"/>
      <path id="Trazado_116695" data-name="Trazado 116695" d="M315.017,137.349a30.657,30.657,0,0,1-8.522-57.623L320.2,107.141Z" transform="translate(36.786 9.906)" fill="#1ccad6" fill-rule="evenodd"/>
      <path id="Trazado_116696" data-name="Trazado 116696" d="M347.566,99.65a30.673,30.673,0,0,1-30.24,35.591,29.793,29.793,0,0,1-5.185-.446l5.185-30.207,30.24-4.955Z" transform="translate(39.663 12.443)" fill="#33a4ff" fill-rule="evenodd"/>
      <path id="Trazado_116697" data-name="Trazado 116697" d="M341.216,87.695a30.481,30.481,0,0,1,5.764,13.477l-30.24,4.954Z" transform="translate(40.25 10.922)" fill="#b3009d" fill-rule="evenodd"/>
      <path id="Trazado_116698" data-name="Trazado 116698" d="M316.739,76.854a30.533,30.533,0,0,1,24.477,12.222l-24.477,18.431V76.854Z" transform="translate(40.25 9.54)" fill="#ea5e86" fill-rule="evenodd"/>
      <path id="Trazado_116699" data-name="Trazado 116699" d="M318.837,124.7a18.564,18.564,0,1,0-18.563-18.565A18.564,18.564,0,0,0,318.837,124.7Z" transform="translate(38.151 10.907)" fill="#fff"/>
      <path id="Trazado_116700" data-name="Trazado 116700" d="M536.544,74.511H467.078v7.762h69.466Z" transform="translate(59.41 9.241)" fill="#33a4ff" opacity="0.5"/>
      <path id="Trazado_116701" data-name="Trazado 116701" d="M536.544,64.052H467.078v7.762h69.466Z" transform="translate(59.41 7.908)" fill="#b3009d" opacity="0.5"/>
      <path id="Trazado_116702" data-name="Trazado 116702" d="M536.544,53.607H467.078v7.762h69.466Z" transform="translate(59.41 6.577)" fill="#ea5e86" opacity="0.5"/>
      <path id="Trazado_116703" data-name="Trazado 116703" d="M536.544,43.148H467.078V50.91h69.466Z" transform="translate(59.41 5.244)" fill="#ffca00" opacity="0.5"/>
      <path id="Trazado_116704" data-name="Trazado 116704" d="M501.81,43.148H467.078V50.91H501.81Z" transform="translate(59.41 5.244)" fill="#ffca00"/>
      <path id="Trazado_116705" data-name="Trazado 116705" d="M520.853,53.607H467.078v7.762h53.775Z" transform="translate(59.41 6.577)" fill="#ea5e86"/>
      <path id="Trazado_116706" data-name="Trazado 116706" d="M484.436,64.052H467.078v7.762h17.358Z" transform="translate(59.41 7.908)" fill="#b3009d"/>
      <path id="Trazado_116707" data-name="Trazado 116707" d="M473.866,74.511h-6.788v7.762h6.788Z" transform="translate(59.41 9.241)" fill="#33a4ff"/>
      <path id="Trazado_116708" data-name="Trazado 116708" d="M536.544,84.97H467.078v7.762h69.466Z" transform="translate(59.41 10.574)" fill="#1ccad6" opacity="0.5"/>
      <path id="Trazado_116709" data-name="Trazado 116709" d="M531.506,84.97H467.078v7.762h64.428Z" transform="translate(59.41 10.574)" fill="#1ccad6"/>
      <path id="Trazado_116710" data-name="Trazado 116710" d="M675.587,51.1a7.118,7.118,0,1,0-7.119-7.118A7.13,7.13,0,0,0,675.587,51.1Z" transform="translate(85.077 4.443)" fill="#b3009d" fill-rule="evenodd"/>
      <path id="Trazado_116711" data-name="Trazado 116711" d="M696.842,26.183a7.118,7.118,0,1,0-7.119-7.118A7.13,7.13,0,0,0,696.842,26.183Z" transform="translate(87.786 1.268)" fill="#33a4ff" fill-rule="evenodd"/>
      <path id="Trazado_116712" data-name="Trazado 116712" d="M672.086,26.652a7.118,7.118,0,1,0-7.119-7.118A7.129,7.129,0,0,0,672.086,26.652Z" transform="translate(84.631 1.327)" fill="#ffca00" fill-rule="evenodd"/>
      <path id="Trazado_116713" data-name="Trazado 116713" d="M701.983,63.552a7.118,7.118,0,1,0-7.118-7.118A7.13,7.13,0,0,0,701.983,63.552Z" transform="translate(88.441 6.03)" fill="#1ccad6" fill-rule="evenodd"/>
      <path id="Trazado_116714" data-name="Trazado 116714" d="M658.536,63.552a7.118,7.118,0,1,0-7.119-7.118A7.13,7.13,0,0,0,658.536,63.552Z" transform="translate(82.904 6.03)" fill="#ea5e86" fill-rule="evenodd"/>
    </g>
    <rect id="Rectángulo_34376" data-name="Rectángulo 34376" width="715" height="83" rx="18" transform="translate(285 4927)" fill="#e8e8e8"/>
    <rect id="Rectángulo_34377" data-name="Rectángulo 34377" width="505" height="83" rx="18" transform="translate(810 5589)" fill="#e8e8e8"/>
    <text id="Los_resultados_del_muestreo_sirven_para_realizar_los_siguientes_tipos_de_análisis" data-name="Los resultados del muestreo sirven para realizar los siguientes tipos de análisis" transform="translate(341 4944)" fill="#12263f" font-size="21" font-family="Roboto-Regular, Roboto"><tspan x="0" y="20">Los resultados del muestreo sirven para realizar los siguientes </tspan><tspan x="0" y="45" font-family="Roboto-Bold, Roboto" font-weight="700">tipos de análisis</tspan></text>
    <text id="De_acuerdo_con_los_resultados_de_muestreo_la_investigación_puede_ser:" data-name="De acuerdo con los resultados de muestreo, la investigación puede ser:" transform="translate(839 5606)" fill="#12263f" font-size="21" font-family="Roboto-Regular, Roboto"><tspan x="80.368" y="20">De acuerdo con los resultados de </tspan><tspan x="42.767" y="45">muestreo, </tspan><tspan y="45" font-family="Roboto-Bold, Roboto" font-weight="700">la investigación </tspan><tspan y="45">puede ser:</tspan></text>
    <text id="Análisis_de_la_calidad_de_los_datos._Se_observa_y_revisa_que_los_datos_recopilados_cumplan_con_las_características_de_la_investigación." data-name="Análisis de la calidad de los 
datos. Se observa y revisa que los 
datos recopilados cumplan con 
las características de la 
investigación." transform="translate(321.5 5138)" fill="#12263f" font-size="16" font-family="Roboto-Bold, Roboto" font-weight="700"><tspan x="0" y="15">Análisis de la calidad de los </tspan><tspan x="0" y="35">datos. </tspan><tspan y="35" font-family="Roboto-Regular, Roboto" font-weight="400">Se observa y revisa que los </tspan><tspan font-family="Roboto-Regular, Roboto" font-weight="400"><tspan x="0" y="55">datos recopilados cumplan con </tspan><tspan x="0" y="75">las características de la </tspan><tspan x="0" y="95">investigación.</tspan></tspan></text>
    <text id="Análisis_de_la_precisión_de_estimación._Guarda_relación_con_los_resultados_obtenidos._" data-name="Análisis de la precisión de estimación. Guarda relación con los resultados obtenidos. " transform="translate(586.5 5109)" fill="#12263f" font-size="16" font-family="Roboto-Bold, Roboto" font-weight="700"><tspan x="0" y="15">Análisis de la precisión de </tspan><tspan x="0" y="35">estimación.</tspan><tspan y="35" xml:space="preserve" font-family="Roboto-Regular, Roboto" font-weight="400"> Guarda relación </tspan><tspan x="0" y="55" font-family="Roboto-Regular, Roboto" font-weight="400">con los resultados obtenidos. </tspan></text>
    <text id="Análisis_inductivo._Va_de_lo_general_a_lo_particular._" data-name="Análisis inductivo. Va de lo general a lo particular. " transform="translate(816.5 5099)" fill="#12263f" font-size="16" font-family="Roboto-Bold, Roboto" font-weight="700"><tspan x="0" y="15">Análisis inductivo.</tspan><tspan y="15" xml:space="preserve" font-family="Roboto-Regular, Roboto" font-weight="400"> Va de </tspan><tspan x="0" y="35" font-family="Roboto-Regular, Roboto" font-weight="400">lo general a lo particular. </tspan></text>
    <text id="Análisis_estructural._Se_determina_a_través_del_comportamiento_de_la_investigación_de_sus_pasos_o_fases_de_trabajo." data-name="Análisis estructural. Se determina a través del comportamiento de la investigación de sus pasos o fases de trabajo." transform="translate(1027.5 5027)" fill="#12263f" font-size="16" font-family="Roboto-Bold, Roboto" font-weight="700"><tspan x="0" y="15">Análisis estructural.</tspan><tspan y="15" xml:space="preserve" font-family="Roboto-Regular, Roboto" font-weight="400"> Se </tspan><tspan x="0" y="35" font-family="Roboto-Regular, Roboto" font-weight="400">determina a través del </tspan><tspan x="0" y="55" font-family="Roboto-Regular, Roboto" font-weight="400">comportamiento de la </tspan><tspan x="0" y="75" font-family="Roboto-Regular, Roboto" font-weight="400">investigación de sus </tspan><tspan x="0" y="95" font-family="Roboto-Regular, Roboto" font-weight="400">pasos o fases de trabajo.</tspan></text>
    <g id="OBJECTS_1_" data-name="OBJECTS (1)" transform="translate(285 5713.586)" clip-path="url(#clip-path)">
      <path id="Trazado_116715" data-name="Trazado 116715" d="M933.226,72.562A71.717,71.717,0,0,0,861.512.832H652.676V144.275H861.512a71.73,71.73,0,0,0,71.73-71.729Z" transform="translate(96.774 0)" fill="#eee"/>
      <path id="Trazado_116716" data-name="Trazado 116716" d="M857.972,136.985H657.359V5.255H857.972c38.128,0,69.151,29.544,69.151,65.865S896.1,136.985,857.972,136.985ZM658.146,136.2H857.972c37.7,0,68.365-29.2,68.365-65.079S895.661,6.025,857.972,6.025H658.146V136.2Z" transform="translate(97.468 0.656)" fill="#ffca00"/>
      <path id="Trazado_116717" data-name="Trazado 116717" d="M808.509,137.93a46.793,46.793,0,1,1-46.792-46.793A46.794,46.794,0,0,1,808.509,137.93Z" transform="translate(106.003 13.39)" fill="#ffca00"/>
      <path id="Trazado_116718" data-name="Trazado 116718" d="M715.672,72.562A71.717,71.717,0,0,0,643.958.832H435.122V144.275H643.958a71.73,71.73,0,0,0,71.73-71.729Z" transform="translate(64.516 0)" fill="#eee"/>
      <path id="Trazado_116719" data-name="Trazado 116719" d="M640.418,136.985H439.8V5.255H640.418c38.128,0,69.15,29.544,69.15,65.865S678.547,136.985,640.418,136.985ZM440.592,136.2H640.418c37.7,0,68.365-29.2,68.365-65.079S678.122,6.025,640.418,6.025H440.592V136.2Z" transform="translate(65.211 0.656)" fill="#00cca7"/>
      <path id="Trazado_116720" data-name="Trazado 116720" d="M590.957,137.93a46.8,46.8,0,1,1-46.792-46.793A46.794,46.794,0,0,1,590.957,137.93Z" transform="translate(73.744 13.39)" fill="#00cca7"/>
      <path id="Trazado_116721" data-name="Trazado 116721" d="M498.121,72.562A71.72,71.72,0,0,0,426.39.832H217.554V144.275H426.39a71.73,71.73,0,0,0,71.73-71.729Z" transform="translate(32.257 0)" fill="#eee"/>
      <path id="Trazado_116722" data-name="Trazado 116722" d="M422.864,136.985H222.251V5.255H422.864c38.128,0,69.15,29.544,69.15,65.865S460.993,136.985,422.864,136.985ZM223.036,136.2H422.864c37.7,0,68.38-29.2,68.38-65.079S460.568,6.025,422.864,6.025H223.036V136.2Z" transform="translate(32.954 0.656)" fill="#b3009d"/>
      <path id="Trazado_116723" data-name="Trazado 116723" d="M373.4,137.93A46.8,46.8,0,1,1,326.6,91.137,46.8,46.8,0,0,1,373.4,137.93Z" transform="translate(41.487 13.39)" fill="#b3009d"/>
      <path id="Trazado_116724" data-name="Trazado 116724" d="M280.566,72.562A71.72,71.72,0,0,0,208.836.832H0V144.275H208.836a71.73,71.73,0,0,0,71.73-71.729Z" transform="translate(0 0)" fill="#eee"/>
      <path id="Trazado_116725" data-name="Trazado 116725" d="M205.309,136.985H4.7V5.255H205.309c38.13,0,69.151,29.544,69.151,65.865S243.439,136.985,205.309,136.985ZM5.483,136.2H205.309c37.7,0,68.381-29.2,68.381-65.079S243.014,6.025,205.309,6.025H5.483V136.2Z" transform="translate(0.696 0.656)" fill="#33a4ff"/>
      <path id="Trazado_116726" data-name="Trazado 116726" d="M155.849,137.93a46.8,46.8,0,1,1-46.808-46.793A46.8,46.8,0,0,1,155.849,137.93Z" transform="translate(9.23 13.39)" fill="#33a4ff"/>
    </g>
    <text id="_1" data-name="1" transform="translate(390 5844.254)" fill="#12263f" font-size="40" font-family="Roboto-Bold, Roboto" font-weight="700"><tspan x="0" y="38">1</tspan></text>
    <text id="_2" data-name="2" transform="translate(642 5843.254)" fill="#f6f6f6" font-size="40" font-family="Roboto-Bold, Roboto" font-weight="700"><tspan x="0" y="38">2</tspan></text>
    <text id="_3" data-name="3" transform="translate(892 5843.254)" fill="#12263f" font-size="40" font-family="Roboto-Bold, Roboto" font-weight="700"><tspan x="0" y="38">3</tspan></text>
    <text id="_4" data-name="4" transform="translate(1138 5843.254)" fill="#12263f" font-size="40" font-family="Roboto-Bold, Roboto" font-weight="700"><tspan x="0" y="38">4</tspan></text>
    <text id="Descriptiva:_Encuesta_observación." data-name="Descriptiva: 
Encuesta, observación." transform="translate(317 5752.254)" fill="#12263f" font-size="21" font-family="Roboto-Bold, Roboto" font-weight="700"><tspan x="0" y="20">Descriptiva: </tspan><tspan font-family="Roboto-Regular, Roboto" font-weight="400"><tspan x="0" y="45">Encuesta, observación.</tspan></tspan></text>
    <text id="Causal:_Causa_efecto." data-name="Causal: 
Causa – efecto." transform="translate(839 5752.254)" fill="#12263f" font-size="21" font-family="Roboto-Bold, Roboto" font-weight="700"><tspan x="0" y="20">Causal: </tspan><tspan font-family="Roboto-Regular, Roboto" font-weight="400"><tspan x="0" y="45">Causa – efecto.</tspan></tspan></text>
    <text id="Exploratoria:_Grupos_focales_entrevista_técnicas_proyectivas." data-name="Exploratoria: 
Grupos focales, entrevista, técnicas proyectivas." transform="translate(572 5737.254)" fill="#12263f" font-size="21" font-family="Roboto-Bold, Roboto" font-weight="700"><tspan x="0" y="20">Exploratoria: </tspan><tspan font-size="18" font-family="Roboto-Regular, Roboto" font-weight="400"><tspan x="0" y="45">Grupos focales, entrevista, </tspan><tspan x="0" y="70">técnicas proyectivas.</tspan></tspan></text>
    <text id="Concluyente:_Combinación_de_descriptiva_y_casual." data-name="Concluyente: 
Combinación de descriptiva y casual." transform="translate(1085 5737.254)" fill="#12263f" font-size="21" font-family="Roboto-Bold, Roboto" font-weight="700"><tspan x="0" y="20">Concluyente: </tspan><tspan font-size="18" font-family="Roboto-Regular, Roboto" font-weight="400"><tspan x="0" y="45">Combinación de </tspan><tspan x="0" y="70">descriptiva y casual.</tspan></tspan></text>
  </g>
</svg>
