<svg xmlns="http://www.w3.org/2000/svg" width="62.266" height="78.175" viewBox="0 0 62.266 78.175">
  <g id="Grupo_1013346" data-name="Grupo 1013346" transform="translate(-307.734 -6283.438)">
    <g id="Group_2_" data-name="Group (2)" transform="translate(307.551 6283.438)">
      <path id="Trazado_116728" data-name="Trazado 116728" d="M181.284,240.334l-8.219-2.2-2.2,8.221-7.624-13.208-1.629-2.821,5.992-7.554,3.856.545,1.629,2.824Z" transform="translate(-121.867 -168.176)" fill="#6dddc9"/>
      <path id="Trazado_116729" data-name="Trazado 116729" d="M166.332,235.172l6.028,10.441-1.5,5.588-9.253-16.029,5.992-5.98Z" transform="translate(-121.867 -173.025)" fill="#00cca7"/>
      <path id="Trazado_116730" data-name="Trazado 116730" d="M32.505,230.313l-1.631,2.824L23.3,246.26l-2.2-8.221-8.219,2.2,8.2-14.2,1.629-2.822,3.726-.571Z" transform="translate(-9.581 -168.085)" fill="#6dddc9"/>
      <path id="Trazado_116731" data-name="Trazado 116731" d="M26.691,226.246,18.461,240.5,12.875,242,22.7,224.979l3.726,1Z" transform="translate(-9.581 -169.845)" fill="#00cca7"/>
      <path id="Trazado_116732" data-name="Trazado 116732" d="M51.678,222.648l6.079,7.665-1.631,2.824-6.08-6.094-3.722-1,1.629-2.822Z" transform="translate(-34.833 -168.085)" fill="#00cca7"/>
      <path id="Trazado_116733" data-name="Trazado 116733" d="M173.087,226.137l-3.859,1.029-5.989,5.977-1.629-2.821,5.992-7.554,3.856.545Z" transform="translate(-121.867 -168.176)" fill="#00cca7"/>
      <path id="Trazado_116734" data-name="Trazado 116734" d="M180.065,240.3a1.18,1.18,0,0,1-1.023-.59l-4.017-6.957a1.18,1.18,0,1,1,2.045-1.18l4.017,6.957a1.181,1.181,0,0,1-1.021,1.771Z" transform="translate(-131.874 -174.376)" fill="#00cca7"/>
      <path id="Trazado_116735" data-name="Trazado 116735" d="M55.055,240.394a1.181,1.181,0,0,1-1.021-1.771l4-6.927a1.18,1.18,0,0,1,2.045,1.18l-4,6.927A1.18,1.18,0,0,1,55.055,240.394Z" transform="translate(-40.534 -174.47)" fill="#00cca7"/>
      <path id="Trazado_116736" data-name="Trazado 116736" d="M39.745,62.147l-8.457-2.124-8.362,2.206-6.078-6.091L8.51,53.895,6.284,45.553l-6.1-6.111L2.429,31.1.2,22.762l6.111-6.1L8.557,8.326,16.9,6.1,23.01,0l8.337,2.243L39.69.019l6.1,6.111,8.337,2.243,2.226,8.342,6.1,6.111-2.243,8.337,2.226,8.342-6.111,6.1-2.243,8.337-8.342,2.226Z" transform="translate(-0.002 -0.001)" fill="#fee97d"/>
      <path id="Trazado_116737" data-name="Trazado 116737" d="M11.034,16.662l-6.112,6.1L7.148,31.1,4.905,39.44,11,45.552l2.226,8.342,8.337,2.243,5.106,5.117-3.749.974-6.079-6.091L8.508,53.894,6.282,45.552.183,39.44,2.426,31.1.2,22.761l6.112-6.1L8.555,8.325,16.9,6.1,23.009,0l3.719,1L21.619,6.1,13.277,8.325Z" transform="translate(0)" fill="#ffca00"/>
      <path id="Trazado_116738" data-name="Trazado 116738" d="M59.473,81.28a22.132,22.132,0,0,1-13.547-4.69,21.992,21.992,0,0,1,8.5-38.705,21.9,21.9,0,0,1,18.6,4.1,21.719,21.719,0,0,1,7.854,12.251,22,22,0,0,1-21.4,27.045Z" transform="translate(-28.156 -28.154)" fill="#ffb850"/>
      <path id="Trazado_116739" data-name="Trazado 116739" d="M74.558,91.465a17.216,17.216,0,0,1-10.535-3.653,17.1,17.1,0,0,1,6.609-30.083A17,17,0,0,1,85.1,60.921a16.872,16.872,0,0,1,6.1,9.518A17.109,17.109,0,0,1,74.558,91.465Z" transform="translate(-43.241 -43.234)" fill="#fee97d"/>
      <path id="Trazado_116740" data-name="Trazado 116740" d="M76.933,91.3a16.975,16.975,0,0,1-2.375.168,17.215,17.215,0,0,1-10.535-3.653,17.1,17.1,0,0,1,6.609-30.083,17.148,17.148,0,0,1,3.929-.46,16.715,16.715,0,0,1,2.348.167q-.782.111-1.555.293a17.08,17.08,0,0,0-6.609,30.083A17.285,17.285,0,0,0,76.933,91.3Z" transform="translate(-43.241 -43.236)" fill="#ffca00"/>
      <path id="Trazado_116741" data-name="Trazado 116741" d="M94.384,83.163l2.8,5.676,6.263.91a1.091,1.091,0,0,1,.6,1.86l-4.532,4.418,1.07,6.238a1.091,1.091,0,0,1-1.582,1.15l-5.6-2.945-5.6,2.945a1.091,1.091,0,0,1-1.583-1.15l1.07-6.238-4.532-4.418a1.091,1.091,0,0,1,.6-1.86l6.264-.91,2.8-5.676A1.09,1.09,0,0,1,94.384,83.163Z" transform="translate(-62.09 -62.324)" fill="#ffb850"/>
      <path id="Trazado_116742" data-name="Trazado 116742" d="M90.475,91.607l4.532,4.419-.831,4.847-.77-.405-5.6,2.945a1.09,1.09,0,0,1-1.582-1.15l1.071-6.238L82.76,91.607a1.089,1.089,0,0,1,.6-1.859l6.264-.91,2.8-5.676a1.091,1.091,0,0,1,1.956,0l2.8,5.676.079.012-6.186.9A1.089,1.089,0,0,0,90.475,91.607Z" transform="translate(-62.09 -62.323)" fill="#f5a30f"/>
    </g>
  </g>
</svg>
